<svg xmlns="http://www.w3.org/2000/svg" xmlns:xlink="http://www.w3.org/1999/xlink" xmlns:lucid="lucid" width="1202" height="1422"><g transform="translate(-9179 -3579)" lucid:page-tab-id="DzQuOS0QucBl"><path d="M9180 3580h1200v1420H9180z" fill-opacity="0"/><path d="M9199.7 3580h1.97m9.86 0h19.7m9.85 0h1.97m9.86 0h19.7m9.86 0h1.97m9.86 0h19.7m9.84 0h1.97m9.87 0h19.7m9.85 0h1.97m9.84 0h19.7m9.86 0h1.97m9.85 0h19.7m9.86 0h1.97m9.85 0h19.7m9.86 0h1.97m9.85 0h19.7m9.86 0h1.97m9.86 0h19.7m9.86 0h1.97m9.84 0h19.7m9.86 0h1.97m9.85 0h19.7m9.86 0h1.97m9.85 0h19.7m9.86 0h1.97m9.85 0h19.7m9.85 0h1.98m9.86 0h19.7m9.85 0h2m9.84 0h19.7m9.85 0h1.97m9.85 0h19.7m9.85 0h1.97m9.86 0h19.7m9.85 0h1.97m9.85 0h19.7m9.86 0h1.97m9.85 0h19.7m9.86 0h1.98m9.85 0h19.7m9.86 0h1.96m9.85 0h19.72m9.85 0h1.97m9.85 0h19.7m9.85 0h1.97m9.85 0h19.7m9.86 0h1.97m9.85 0h19.7m9.86 0h1.98m9.85 0h19.7m9.86 0h1.96m9.85 0h19.7m9.87 0h1.97m9.85 0h19.7m9.85 0h1.97m9.85 0h19.7m9.86 0h1.97m9.85 0h9.85v9.94m0 9.95v1.98m0 9.94v19.9m0 9.93v2m0 9.93v19.9m0 9.94v2m0 9.93v19.9m0 9.93v2m0 9.93v19.9m0 9.95v2m0 9.93v19.9m0 9.93v2m0 9.94v19.9m0 9.94v2m0 9.93v19.9m0 9.94v2m0 9.93v19.9m0 9.94v2m0 9.94v19.9m0 9.93v2m0 9.93v19.9m0 9.93v2m0 9.94v19.9m0 9.93v2m0 9.93v19.9m0 9.93v2m0 9.94v19.9m0 9.93v2m0 9.93v19.9m0 9.93v1.98m0 9.95v19.9m0 9.93v2m0 9.93v19.88m0 9.94v2m0 9.94v19.88m0 9.95v1.98m0 9.94v19.9m0 9.93v2m0 9.94v19.87m0 9.95v2m0 9.93v19.9m0 9.93v2m0 9.93v19.9m0 9.95v2m0 9.93v19.9m0 9.93v2m0 9.94v19.9m0 9.94v2m0 9.93v19.9m0 9.94v2m0 9.93v19.9m0 9.94v2m0 9.94v19.9m0 9.93v2m0 9.93v19.9m0 9.93v2m0 9.94v19.9m0 9.93v2m0 9.93v19.9m0 9.93v2m0 9.94v19.9m0 9.93v2m0 9.93v19.9m0 9.93v1.98m0 9.95v19.9m0 9.93v2m0 9.93v19.88m0 9.94v2m0 9.94v9.94h-9.85m-9.85 0h-1.97m-9.86 0h-19.7m-9.85 0h-1.97m-9.86 0h-19.7m-9.86 0h-1.97m-9.86 0h-19.7m-9.84 0h-1.97m-9.87 0h-19.7m-9.85 0h-1.97m-9.84 0h-19.7m-9.86 0h-1.97m-9.85 0h-19.7m-9.86 0h-1.97m-9.85 0h-19.7m-9.86 0h-1.97m-9.85 0h-19.7m-9.86 0h-1.97m-9.86 0h-19.7m-9.86 0h-1.97m-9.84 0h-19.7m-9.86 0h-1.97m-9.85 0h-19.7m-9.86 0h-1.97m-9.85 0h-19.7m-9.86 0h-1.97m-9.85 0h-19.7m-9.85 0h-1.98m-9.86 0h-19.7m-9.85 0h-2m-9.84 0h-19.7m-9.85 0h-1.97m-9.85 0h-19.7m-9.85 0h-1.97m-9.86 0h-19.7m-9.85 0h-1.97m-9.85 0h-19.7m-9.86 0h-1.97m-9.85 0h-19.7m-9.86 0h-1.98m-9.85 0h-19.7m-9.86 0h-1.96m-9.85 0h-19.72m-9.85 0h-1.97m-9.85 0h-19.7m-9.85 0h-1.97m-9.85 0h-19.7m-9.86 0h-1.97m-9.85 0h-19.7m-9.86 0h-1.98m-9.85 0h-19.7m-9.86 0h-1.96m-9.85 0h-19.7m-9.87 0h-1.97m-9.85 0h-19.7m-9.85 0h-1.97m-9.85 0h-19.7m-9.86 0h-1.97m-9.85 0H9180v-9.94m0-9.95v-1.98m0-9.94v-19.9m0-9.93v-2m0-9.94v-19.87m0-9.95v-2m0-9.93v-19.9m0-9.93v-2m0-9.93V4823m0-9.95v-2m0-9.93v-19.9m0-9.93v-2m0-9.94v-19.9m0-9.94v-2m0-9.93v-19.9m0-9.94v-2m0-9.93v-19.9m0-9.94v-2m0-9.94v-19.9m0-9.93v-2m0-9.93v-19.9m0-9.93v-2m0-9.94v-19.9m0-9.93v-2m0-9.93v-19.9m0-9.93v-2m0-9.94v-19.9m0-9.93v-2m0-9.93v-19.9m0-9.93v-1.98m0-9.95v-19.9m0-9.93v-2m0-9.93v-19.88m0-9.94v-2m0-9.94v-19.88m0-9.95v-1.98m0-9.94v-19.9m0-9.93v-2m0-9.94v-19.87m0-9.95v-2m0-9.93v-19.9m0-9.93v-2m0-9.93V4113m0-9.95v-2m0-9.93v-19.9m0-9.93v-2m0-9.94v-19.9m0-9.94v-2m0-9.93v-19.9m0-9.94v-2m0-9.93v-19.9m0-9.94v-2m0-9.94v-19.9m0-9.93v-2m0-9.93v-19.9m0-9.93v-2m0-9.94v-19.9m0-9.93v-2m0-9.93v-19.9m0-9.93v-2m0-9.94v-19.9m0-9.93v-2m0-9.93v-19.9m0-9.93v-1.98m0-9.95v-19.88m0-9.96v-2m0-9.93v-19.88m0-9.94v-2m0-9.94V3580h9.85" stroke="#fff" stroke-width="2" fill="none"/><use xlink:href="#a" transform="matrix(1,0,0,1,9200,3600) translate(437.54999999999995 14.4)"/><use xlink:href="#b" transform="matrix(1,0,0,1,9200,3600) translate(497.79999999999995 14.4)"/><use xlink:href="#c" transform="matrix(1,0,0,1,9200,3600) translate(512.8 14.4)"/><use xlink:href="#d" transform="matrix(1,0,0,1,9200,3600) translate(523.75 14.4)"/><use xlink:href="#e" transform="matrix(1,0,0,1,9200,3600) translate(617.5999999999999 14.4)"/><use xlink:href="#f" transform="matrix(1,0,0,1,9200,3600) translate(664.5999999999999 14.4)"/><path d="M9646.54 4543.12h228.5v120h-228.5z" stroke="#fff" stroke-width="3" fill-opacity="0"/><use xlink:href="#g" transform="matrix(1,0,0,1,9646.543757120846,4543.121337890625) translate(32.554999999999986 51.9)"/><use xlink:href="#h" transform="matrix(1,0,0,1,9646.543757120846,4543.121337890625) translate(79.55499999999998 51.9)"/><use xlink:href="#i" transform="matrix(1,0,0,1,9646.543757120846,4543.121337890625) translate(135.505 51.9)"/><use xlink:href="#j" transform="matrix(1,0,0,1,9646.543757120846,4543.121337890625) translate(176.455 51.9)"/><use xlink:href="#k" transform="matrix(1,0,0,1,9646.543757120846,4543.121337890625) translate(74.05499999999999 73.5)"/><path d="M9646.54 4740h228.5v120h-228.5z" stroke="#fff" stroke-width="3" fill-opacity="0"/><use xlink:href="#l" transform="matrix(1,0,0,1,9646.543757120846,4740) translate(25.82999999999999 51.9)"/><use xlink:href="#m" transform="matrix(1,0,0,1,9646.543757120846,4740) translate(86.67999999999999 51.9)"/><use xlink:href="#n" transform="matrix(1,0,0,1,9646.543757120846,4740) translate(146.63 51.9)"/><use xlink:href="#o" transform="matrix(1,0,0,1,9646.543757120846,4740) translate(79.38000000000001 73.5)"/><use xlink:href="#p" transform="matrix(1,0,0,1,9646.543757120846,4740) translate(139.63 73.5)"/><path d="M9894.25 4469.24v29.44a6 6 0 0 1-6 6h-125.4a2.05 2.05 0 0 0-2.05 2.06" stroke="#fff" stroke-width="3" fill="none"/><path d="M9895.73 4469.28h-2.95v-1.54h2.95z" stroke="#fff" stroke-width=".05" fill="#fff"/><path d="M9760.8 4536.77l-9.27-28.53h18.54z" stroke="#fff" stroke-width="3" fill="#fff"/><path d="M9760.8 4666.12v37.5" stroke="#fff" stroke-width="3" fill="none"/><path d="M9762.27 4666.16h-2.95v-1.54h2.95z" stroke="#fff" stroke-width=".05" fill="#fff"/><path d="M9760.8 4733.65l-9.27-28.54h18.54z" stroke="#fff" stroke-width="3" fill="#fff"/><path d="M10040 4339.12a6 6 0 0 1 6-6h268.17a6 6 0 0 1 6 6v108a6 6 0 0 1-6 6H10046a6 6 0 0 1-6-6z" fill-opacity="0"/><path d="M10068.02 4333.12H10046a6 6 0 0 0-6 6v108a6 6 0 0 0 6 6h22.02" stroke="#fff" stroke-width="3" fill="none"/><use xlink:href="#q" transform="matrix(1,0,0,1,10062.510878766876,4338.121337890625) translate(0 58.6)"/><use xlink:href="#r" transform="matrix(1,0,0,1,10062.510878766876,4338.121337890625) translate(44.85 58.6)"/><use xlink:href="#s" transform="matrix(1,0,0,1,10062.510878766876,4338.121337890625) translate(59.85 58.6)"/><use xlink:href="#t" transform="matrix(1,0,0,1,10062.510878766876,4338.121337890625) translate(107.7 58.6)"/><use xlink:href="#u" transform="matrix(1,0,0,1,10062.510878766876,4338.121337890625) translate(184.60000000000002 58.6)"/><use xlink:href="#v" transform="matrix(1,0,0,1,10062.510878766876,4338.121337890625) translate(200.55 58.6)"/><path d="M9644 3660h228.5v146.24H9644z" stroke="#fff" stroke-width="3" fill-opacity="0"/><use xlink:href="#w" transform="matrix(1,0,0,1,9644,3660) translate(12.12999999999999 64.93125)"/><use xlink:href="#m" transform="matrix(1,0,0,1,9644,3660) translate(71.03 64.93125)"/><use xlink:href="#x" transform="matrix(1,0,0,1,9644,3660) translate(130.98000000000002 64.93125)"/><use xlink:href="#y" transform="matrix(1,0,0,1,9644,3660) translate(49.57999999999999 86.53125)"/><use xlink:href="#e" transform="matrix(1,0,0,1,9644,3660) translate(74.57999999999998 86.53125)"/><use xlink:href="#f" transform="matrix(1,0,0,1,9644,3660) translate(121.57999999999998 86.53125)"/><path d="M9321.3 3679.12a6 6 0 0 1 6-6h268.18a6 6 0 0 1 6 6v108a6 6 0 0 1-6 6H9327.3a6 6 0 0 1-6-6z" fill-opacity="0"/><path d="M9349.32 3673.12h-22.02a6 6 0 0 0-6 6v108a6 6 0 0 0 6 6h22.02" stroke="#fff" stroke-width="3" fill="none"/><use xlink:href="#z" transform="matrix(1,0,0,1,9343.812288361125,3678.121337890625) translate(0 37)"/><use xlink:href="#A" transform="matrix(1,0,0,1,9343.812288361125,3678.121337890625) translate(63.75000000000001 37)"/><use xlink:href="#B" transform="matrix(1,0,0,1,9343.812288361125,3678.121337890625) translate(126.70000000000002 37)"/><use xlink:href="#C" transform="matrix(1,0,0,1,9343.812288361125,3678.121337890625) translate(226.45000000000005 37)"/><use xlink:href="#D" transform="matrix(1,0,0,1,9343.812288361125,3678.121337890625) translate(0 58.6)"/><use xlink:href="#E" transform="matrix(1,0,0,1,9343.812288361125,3678.121337890625) translate(53.800000000000004 58.6)"/><use xlink:href="#F" transform="matrix(1,0,0,1,9343.812288361125,3678.121337890625) translate(79.75 58.6)"/><use xlink:href="#G" transform="matrix(1,0,0,1,9343.812288361125,3678.121337890625) translate(119.60000000000001 58.6)"/><use xlink:href="#H" transform="matrix(1,0,0,1,9343.812288361125,3678.121337890625) translate(198.45000000000002 58.6)"/><use xlink:href="#u" transform="matrix(1,0,0,1,9343.812288361125,3678.121337890625) translate(0 80.20000000000002)"/><use xlink:href="#I" transform="matrix(1,0,0,1,9343.812288361125,3678.121337890625) translate(15.950000000000001 80.20000000000002)"/><use xlink:href="#J" transform="matrix(1,0,0,1,9343.812288361125,3678.121337890625) translate(56.900000000000006 80.20000000000002)"/><use xlink:href="#K" transform="matrix(1,0,0,1,9343.812288361125,3678.121337890625) translate(125.9 80.20000000000002)"/><use xlink:href="#L" transform="matrix(1,0,0,1,9343.812288361125,3678.121337890625) translate(157.85000000000002 80.20000000000002)"/><path d="M9753.45 3872.04a8 8 0 0 1 9.6 0l118.1 88.58a4.5 4.5 0 0 1 0 7.2l-118.1 88.58a8 8 0 0 1-9.6 0l-118.1-88.58a4.5 4.5 0 0 1 0-7.2z" stroke="#fff" stroke-width="3" fill-opacity="0"/><g><use xlink:href="#w" transform="matrix(1,0,0,1,9635.543757120777,3873.437500000007) translate(45.62999999999999 71.275)"/><use xlink:href="#M" transform="matrix(1,0,0,1,9635.543757120777,3873.437500000007) translate(104.52999999999999 71.275)"/><use xlink:href="#N" transform="matrix(1,0,0,1,9635.543757120777,3873.437500000007) translate(152.48000000000002 71.275)"/><use xlink:href="#O" transform="matrix(1,0,0,1,9635.543757120777,3873.437500000007) translate(167.48000000000002 71.275)"/><use xlink:href="#P" transform="matrix(1,0,0,1,9635.543757120777,3873.437500000007) translate(33.605 92.875)"/><use xlink:href="#Q" transform="matrix(1,0,0,1,9635.543757120777,3873.437500000007) translate(58.605 92.875)"/><use xlink:href="#i" transform="matrix(1,0,0,1,9635.543757120777,3873.437500000007) translate(161.455 92.875)"/><use xlink:href="#R" transform="matrix(1,0,0,1,9635.543757120777,3873.437500000007) translate(202.405 92.875)"/><use xlink:href="#S" transform="matrix(1,0,0,1,9635.543757120777,3873.437500000007) translate(100.53 114.475)"/></g><path d="M9758.25 3809.24v24.8" stroke="#fff" stroke-width="3" fill="none"/><path d="M9759.73 3809.28h-2.95v-1.54h2.95z" stroke="#fff" stroke-width=".05" fill="#fff"/><path d="M9758.25 3864.08l-9.27-28.53h18.54z" stroke="#fff" stroke-width="3" fill="#fff"/><path d="M9934.06 4132.73l1.1.1 1.15.26 1.1.44 1 .6.9.78.75.9.6 1 .46 1.08.3 1.14.08 1.1v112.42l-.1 1.1-.27 1.15-.44 1.1-.6 1-.77.9-.9.75-1 .6-1.1.46-1.13.3-1.1.08h-33.76l-.75.06-.7.16-.65.27-.6.37-.54.46-.47.54-.38.6-.27.66-.16.7-.07.76v19.05h-2.95v-19.16l.08-1.1.28-1.15.45-1.1.6-1 .76-.9.9-.75 1-.6 1.08-.46 1.14-.3 1.1-.08h33.76l.77-.06.7-.16.65-.27.6-.37.55-.46.46-.54.37-.6.27-.66.17-.7.06-.76v-112.18l-.07-.76-.16-.7-.27-.65-.37-.6-.46-.54-.54-.45-.6-.37-.66-.27-.7-.16-.76-.06h-66v-2.95zm-174.27-3.82l.15.7.27.66.38.6.46.54.53.46.6.37.65.28.7.17.76.06h71.05v2.95h-71.16l-1.12-.1-1.14-.26-1.08-.45-1-.6-.9-.78-.76-.9-.6-1-.46-1.08-.27-1.14-.1-1.12V4061h2.96v67.15z" stroke="#fff" stroke-width=".05" fill="#fff"/><path d="M9757.03 4059.42l1.22.08 1.22-.07.26-.05v1.66h-2.95v-1.66z" fill="#fff"/><path stroke="#fff" stroke-width=".05" fill="#fff"/><path d="M9894.25 4313.65l-9.27-28.54h18.54z" fill="#fff"/><path d="M9894.25 4318.42l-11.3-34.78h22.6zm-7.24-31.83l7.25 22.27 7.24-22.28z" stroke="#fff" stroke-width=".05" fill="#fff"/><g><use xlink:href="#T" transform="matrix(1,0,0,1,9835.35108294369,4123.53967106602) translate(0 14.222222222222223)"/></g><path d="M9926.74 3965.7h-40.77v-2.96h40.77zm40.87 0h-7.38v-2.96h7.4z" stroke="#fff" stroke-width=".05" fill="#fff"/><path d="M9886 3965.7h-1.74l.1-.37.1-1.1-.1-1.12-.1-.36h1.74z" fill="#fff"/><path stroke="#fff" stroke-width=".05" fill="#fff"/><path d="M9997.65 3964.22l-28.54 9.27v-18.55z" fill="#fff"/><path d="M10002.42 3964.22l-34.78 11.3v-22.6zm-31.83 7.24l22.27-7.24-22.28-7.24z" stroke="#fff" stroke-width=".05" fill="#fff"/><g><use xlink:href="#U" transform="matrix(1,0,0,1,9926.742686848092,3953.5520833333335) translate(0 14.222222222222223)"/></g><path d="M10004 3891.1h228.5v146.24H10004z" stroke="#fff" stroke-width="3" fill-opacity="0"/><g><use xlink:href="#V" transform="matrix(1,0,0,1,10004,3891.097412109375) translate(23.554999999999986 78.7125)"/><use xlink:href="#W" transform="matrix(1,0,0,1,10004,3891.097412109375) translate(120.455 78.7125)"/><use xlink:href="#X" transform="matrix(1,0,0,1,10004,3891.097412109375) translate(145.45499999999998 78.7125)"/><use xlink:href="#Y" transform="matrix(1,0,0,1,10004,3891.097412109375) translate(195.455 78.7125)"/></g><path d="M9520 4320h228.5v146.24H9520z" stroke="#fff" stroke-width="3" fill-opacity="0"/><g><use xlink:href="#w" transform="matrix(1,0,0,1,9520,4320) translate(16.62999999999999 64.93125)"/><use xlink:href="#M" transform="matrix(1,0,0,1,9520,4320) translate(75.53 64.93125)"/><use xlink:href="#Z" transform="matrix(1,0,0,1,9520,4320) translate(123.48 64.93125)"/><use xlink:href="#i" transform="matrix(1,0,0,1,9520,4320) translate(12.630000000000004 86.53125)"/><use xlink:href="#N" transform="matrix(1,0,0,1,9520,4320) translate(53.580000000000005 86.53125)"/><use xlink:href="#aa" transform="matrix(1,0,0,1,9520,4320) translate(68.58000000000001 86.53125)"/><use xlink:href="#ab" transform="matrix(1,0,0,1,9520,4320) translate(107.53 86.53125)"/></g><path d="M9780 4320h228.5v146.24H9780z" stroke="#fff" stroke-width="3" fill-opacity="0"/><g><use xlink:href="#w" transform="matrix(1,0,0,1,9780,4320) translate(16.62999999999999 64.93125)"/><use xlink:href="#M" transform="matrix(1,0,0,1,9780,4320) translate(75.53 64.93125)"/><use xlink:href="#Z" transform="matrix(1,0,0,1,9780,4320) translate(123.48 64.93125)"/><use xlink:href="#i" transform="matrix(1,0,0,1,9780,4320) translate(38.57999999999999 86.53125)"/><use xlink:href="#N" transform="matrix(1,0,0,1,9780,4320) translate(79.53 86.53125)"/><use xlink:href="#aa" transform="matrix(1,0,0,1,9780,4320) translate(94.53 86.53125)"/><use xlink:href="#ac" transform="matrix(1,0,0,1,9780,4320) translate(133.48 86.53125)"/><use xlink:href="#ad" transform="matrix(1,0,0,1,9780,4320) translate(161.43 86.53125)"/></g><path d="M9239.83 4339.12a6 6 0 0 1 6-6H9514a6 6 0 0 1 6 6v108a6 6 0 0 1-6 6h-268.17a6 6 0 0 1-6-6z" fill-opacity="0"/><path d="M9267.84 4333.12h-22a6 6 0 0 0-6 6v108a6 6 0 0 0 6 6h22" stroke="#fff" stroke-width="3" fill="none"/><g><use xlink:href="#ae" transform="matrix(1,0,0,1,9262.336818496453,4338.121337890625) translate(0 15.399999999999993)"/><use xlink:href="#af" transform="matrix(1,0,0,1,9262.336818496453,4338.121337890625) translate(174.55 15.399999999999993)"/><use xlink:href="#u" transform="matrix(1,0,0,1,9262.336818496453,4338.121337890625) translate(200.5 15.399999999999993)"/><use xlink:href="#ag" transform="matrix(1,0,0,1,9262.336818496453,4338.121337890625) translate(216.45 15.399999999999993)"/><use xlink:href="#ah" transform="matrix(1,0,0,1,9262.336818496453,4338.121337890625) translate(0 36.99999999999999)"/><use xlink:href="#ai" transform="matrix(1,0,0,1,9262.336818496453,4338.121337890625) translate(27.95 36.99999999999999)"/><use xlink:href="#aj" transform="matrix(1,0,0,1,9262.336818496453,4338.121337890625) translate(70.8 36.99999999999999)"/><use xlink:href="#J" transform="matrix(1,0,0,1,9262.336818496453,4338.121337890625) translate(85.8 36.99999999999999)"/><use xlink:href="#ak" transform="matrix(1,0,0,1,9262.336818496453,4338.121337890625) translate(154.8 36.99999999999999)"/><use xlink:href="#al" transform="matrix(1,0,0,1,9262.336818496453,4338.121337890625) translate(181.70000000000002 36.99999999999999)"/><use xlink:href="#am" transform="matrix(1,0,0,1,9262.336818496453,4338.121337890625) translate(0 58.599999999999994)"/><use xlink:href="#an" transform="matrix(1,0,0,1,9262.336818496453,4338.121337890625) translate(80.80000000000001 58.599999999999994)"/><use xlink:href="#ao" transform="matrix(1,0,0,1,9262.336818496453,4338.121337890625) translate(165.65000000000003 58.599999999999994)"/><use xlink:href="#ap" transform="matrix(1,0,0,1,9262.336818496453,4338.121337890625) translate(207.60000000000002 58.599999999999994)"/><use xlink:href="#aq" transform="matrix(1,0,0,1,9262.336818496453,4338.121337890625) translate(0 80.20000000000002)"/><use xlink:href="#ar" transform="matrix(1,0,0,1,9262.336818496453,4338.121337890625) translate(61.75000000000001 80.20000000000002)"/><use xlink:href="#ao" transform="matrix(1,0,0,1,9262.336818496453,4338.121337890625) translate(99.70000000000002 80.20000000000002)"/><use xlink:href="#as" transform="matrix(1,0,0,1,9262.336818496453,4338.121337890625) translate(141.65000000000003 80.20000000000002)"/><use xlink:href="#aj" transform="matrix(1,0,0,1,9262.336818496453,4338.121337890625) translate(178.55000000000004 80.20000000000002)"/><use xlink:href="#at" transform="matrix(1,0,0,1,9262.336818496453,4338.121337890625) translate(193.55000000000004 80.20000000000002)"/><use xlink:href="#au" transform="matrix(1,0,0,1,9262.336818496453,4338.121337890625) translate(0 101.80000000000001)"/><use xlink:href="#av" transform="matrix(1,0,0,1,9262.336818496453,4338.121337890625) translate(40 101.80000000000001)"/></g><path d="M9634.25 4469.24v29.44a6 6 0 0 0 6 6h118.5a2.05 2.05 0 0 1 2.05 2.06" stroke="#fff" stroke-width="3" fill="none"/><path d="M9635.73 4469.28h-2.95v-1.54h2.95z" stroke="#fff" stroke-width=".05" fill="#fff"/><path d="M9760.8 4536.77l-9.27-28.53h18.54z" stroke="#fff" stroke-width="3" fill="#fff"/><path d="M9224.5 4183.62h1129" stroke="#fff" stroke-linecap="round" fill="none"/><path d="M9224 4146a6 6 0 0 1 6-6h60a6 6 0 0 1 6 6v19.6a6 6 0 0 1-6 6h-60a6 6 0 0 1-6-6z" fill="none"/><g><use xlink:href="#aw" transform="matrix(1,0,0,1,9229.000000000005,4145.000000000051) translate(0 14.6)"/><use xlink:href="#Y" transform="matrix(1,0,0,1,9229.000000000005,4145.000000000051) translate(52 14.6)"/></g><path d="M9224 4210.65a6 6 0 0 1 6-6h60a6 6 0 0 1 6 6v19.6a6 6 0 0 1-6 6h-60a6 6 0 0 1-6-6z" fill="none"/><g><use xlink:href="#aw" transform="matrix(1,0,0,1,9229,4209.6456689453125) translate(0 14.6)"/><use xlink:href="#ax" transform="matrix(1,0,0,1,9229,4209.6456689453125) translate(52 14.6)"/></g><path d="M9630.54 4210.65a6 6 0 0 1 6-6h287a6 6 0 0 1 6 6v19.6a6 6 0 0 1-6 6h-287a6 6 0 0 1-6-6z" fill="none"/><g><use xlink:href="#a" transform="matrix(1,0,0,1,9635.543757120777,4209.6456689453125) translate(0 14.6)"/><use xlink:href="#ay" transform="matrix(1,0,0,1,9635.543757120777,4209.6456689453125) translate(60.25 14.6)"/><use xlink:href="#c" transform="matrix(1,0,0,1,9635.543757120777,4209.6456689453125) translate(75.25 14.6)"/><use xlink:href="#az" transform="matrix(1,0,0,1,9635.543757120777,4209.6456689453125) translate(86.2 14.6)"/><use xlink:href="#aA" transform="matrix(1,0,0,1,9635.543757120777,4209.6456689453125) translate(145.10000000000002 14.6)"/><use xlink:href="#W" transform="matrix(1,0,0,1,9635.543757120777,4209.6456689453125) translate(191.05 14.6)"/><use xlink:href="#aB" transform="matrix(1,0,0,1,9635.543757120777,4209.6456689453125) translate(216.05 14.6)"/></g><defs><path fill="#fff" d="M30 0v-248h187v28H63v79h144v27H63v87h162V0H30" id="aC"/><path fill="#fff" d="M127-220V0H93v-220H8v-28h204v28h-85" id="aD"/><path fill="#fff" d="M205 0l-28-72H64L36 0H1l101-248h38L239 0h-34zm-38-99l-47-123c-12 45-31 82-46 123h93" id="aE"/><path fill="#fff" d="M30-248c87 1 191-15 191 75 0 78-77 80-158 76V0H30v-248zm33 125c57 0 124 11 124-50 0-59-68-47-124-48v98" id="aF"/><g id="a"><use transform="matrix(0.05,0,0,0.05,0,0)" xlink:href="#aC"/><use transform="matrix(0.05,0,0,0.05,12,0)" xlink:href="#aD"/><use transform="matrix(0.05,0,0,0.05,21.6,0)" xlink:href="#aE"/><use transform="matrix(0.05,0,0,0.05,33.6,0)" xlink:href="#aF"/><use transform="matrix(0.05,0,0,0.05,44.25,0)" xlink:href="#aE"/></g><path fill="#fff" d="M155-56V0h-30v-56H8v-25l114-167h33v167h35v25h-35zm-30-156c-27 46-58 90-88 131h88v-131" id="aG"/><use transform="matrix(0.05,0,0,0.05,0,0)" xlink:href="#aG" id="b"/><path fill="#fff" d="M16-82v-28h88v28H16" id="aH"/><use transform="matrix(0.05,0,0,0.05,0,0)" xlink:href="#aH" id="c"/><path fill="#fff" d="M190 0L58-211 59 0H30v-248h39L202-35l-2-213h31V0h-41" id="aI"/><path fill="#fff" d="M100-194c62-1 85 37 85 99 1 63-27 99-86 99S16-35 15-95c0-66 28-99 85-99zM99-20c44 1 53-31 53-75 0-43-8-75-51-75s-53 32-53 75 10 74 51 75" id="aJ"/><path fill="#fff" d="M59-47c-2 24 18 29 38 22v24C64 9 27 4 27-40v-127H5v-23h24l9-43h21v43h35v23H59v120" id="aK"/><path fill="#fff" d="M24-231v-30h32v30H24zM24 0v-190h32V0H24" id="aL"/><path fill="#fff" d="M101-234c-31-9-42 10-38 44h38v23H63V0H32v-167H5v-23h27c-7-52 17-82 69-68v24" id="aM"/><path fill="#fff" d="M96-169c-40 0-48 33-48 73s9 75 48 75c24 0 41-14 43-38l32 2c-6 37-31 61-74 61-59 0-76-41-82-99-10-93 101-131 147-64 4 7 5 14 7 22l-32 3c-4-21-16-35-41-35" id="aN"/><path fill="#fff" d="M141-36C126-15 110 5 73 4 37 3 15-17 15-53c-1-64 63-63 125-63 3-35-9-54-41-54-24 1-41 7-42 31l-33-3c5-37 33-52 76-52 45 0 72 20 72 64v82c-1 20 7 32 28 27v20c-31 9-61-2-59-35zM48-53c0 20 12 33 32 33 41-3 63-29 60-74-43 2-92-5-92 41" id="aO"/><path fill="#fff" d="M96-169c-40 0-48 33-48 73s9 75 48 75c24 0 41-14 43-38l32 2c-6 37-31 61-74 61-59 0-76-41-82-99-10-93 101-131 147-64 4 7 5 14 7 22l-32 3c-4-21-16-35-41-35zm3 187c19-1 33 8 33 26 0 31-30 33-64 32V58c18 2 39 4 41-13 1-15-18-13-34-13L87 0h19" id="aP"/><path fill="#fff" d="M141-36C126-15 110 5 73 4 37 3 15-17 15-53c-1-64 63-63 125-63 3-35-9-54-41-54-24 1-41 7-42 31l-33-3c5-37 33-52 76-52 45 0 72 20 72 64v82c-1 20 7 32 28 27v20c-31 9-61-2-59-35zM48-53c0 20 12 33 32 33 41-3 63-29 60-74-43 2-92-5-92 41zm117-205c-3 23-9 48-36 47-26-1-65-44-74 0H39c4-23 8-48 36-47s64 44 74 0h16" id="aQ"/><g id="d"><use transform="matrix(0.05,0,0,0.05,0,0)" xlink:href="#aI"/><use transform="matrix(0.05,0,0,0.05,12.950000000000001,0)" xlink:href="#aJ"/><use transform="matrix(0.05,0,0,0.05,22.950000000000003,0)" xlink:href="#aK"/><use transform="matrix(0.05,0,0,0.05,27.950000000000003,0)" xlink:href="#aL"/><use transform="matrix(0.05,0,0,0.05,31.900000000000002,0)" xlink:href="#aM"/><use transform="matrix(0.05,0,0,0.05,36.900000000000006,0)" xlink:href="#aL"/><use transform="matrix(0.05,0,0,0.05,40.85000000000001,0)" xlink:href="#aN"/><use transform="matrix(0.05,0,0,0.05,49.85000000000001,0)" xlink:href="#aO"/><use transform="matrix(0.05,0,0,0.05,59.85,0)" xlink:href="#aP"/><use transform="matrix(0.05,0,0,0.05,68.85000000000001,0)" xlink:href="#aQ"/><use transform="matrix(0.05,0,0,0.05,78.85000000000001,0)" xlink:href="#aJ"/></g><path fill="#fff" d="M185-189c-5-48-123-54-124 2 14 75 158 14 163 119 3 78-121 87-175 55-17-10-28-26-33-46l33-7c5 56 141 63 141-1 0-78-155-14-162-118-5-82 145-84 179-34 5 7 8 16 11 25" id="aR"/><path fill="#fff" d="M117-194c89-4 53 116 60 194h-32v-121c0-31-8-49-39-48C34-167 62-67 57 0H25l-1-190h30c1 10-1 24 2 32 11-22 29-35 61-36" id="aS"/><g id="e"><use transform="matrix(0.05,0,0,0.05,0,0)" xlink:href="#aR"/><use transform="matrix(0.05,0,0,0.05,12,0)" xlink:href="#aO"/><use transform="matrix(0.05,0,0,0.05,22,0)" xlink:href="#aS"/><use transform="matrix(0.05,0,0,0.05,32,0)" xlink:href="#aO"/></g><path fill="#fff" d="M212-179c-10-28-35-45-73-45-59 0-87 40-87 99 0 60 29 101 89 101 43 0 62-24 78-52l27 14C228-24 195 4 139 4 59 4 22-46 18-125c-6-104 99-153 187-111 19 9 31 26 39 46" id="aT"/><path fill="#fff" d="M100-194c63 0 86 42 84 106H49c0 40 14 67 53 68 26 1 43-12 49-29l28 8c-11 28-37 45-77 45C44 4 14-33 15-96c1-61 26-98 85-98zm52 81c6-60-76-77-97-28-3 7-6 17-6 28h103" id="aU"/><path fill="#fff" d="M114-163C36-179 61-72 57 0H25l-1-190h30c1 12-1 29 2 39 6-27 23-49 58-41v29" id="aV"/><path fill="#fff" d="M24 0v-261h32V0H24" id="aW"/><g id="f"><use transform="matrix(0.05,0,0,0.05,0,0)" xlink:href="#aT"/><use transform="matrix(0.05,0,0,0.05,12.950000000000001,0)" xlink:href="#aU"/><use transform="matrix(0.05,0,0,0.05,22.950000000000003,0)" xlink:href="#aS"/><use transform="matrix(0.05,0,0,0.05,32.95,0)" xlink:href="#aK"/><use transform="matrix(0.05,0,0,0.05,37.95,0)" xlink:href="#aV"/><use transform="matrix(0.05,0,0,0.05,43.900000000000006,0)" xlink:href="#aO"/><use transform="matrix(0.05,0,0,0.05,53.900000000000006,0)" xlink:href="#aW"/></g><g id="g"><use transform="matrix(0.05,0,0,0.05,0,0)" xlink:href="#aR"/><use transform="matrix(0.05,0,0,0.05,12,0)" xlink:href="#aO"/><use transform="matrix(0.05,0,0,0.05,22,0)" xlink:href="#aS"/><use transform="matrix(0.05,0,0,0.05,32,0)" xlink:href="#aO"/></g><path fill="#fff" d="M140-251c81 0 123 46 123 126C263-46 219 4 140 4 59 4 17-45 17-125s42-126 123-126zm0 227c63 0 89-41 89-101s-29-99-89-99c-61 0-89 39-89 99S79-25 140-24" id="aX"/><path fill="#fff" d="M195 0l-74-108L45 0H8l94-129-87-119h37l69 98 67-98h37l-84 118L233 0h-38" id="aY"/><g id="h"><use transform="matrix(0.05,0,0,0.05,0,0)" xlink:href="#aT"/><use transform="matrix(0.05,0,0,0.05,12.950000000000001,0)" xlink:href="#aX"/><use transform="matrix(0.05,0,0,0.05,26.950000000000003,0)" xlink:href="#aC"/><use transform="matrix(0.05,0,0,0.05,38.95,0)" xlink:href="#aY"/></g><path fill="#fff" d="M115-194c55 1 70 41 70 98S169 2 115 4C84 4 66-9 55-30l1 105H24l-1-265h31l2 30c10-21 28-34 59-34zm-8 174c40 0 45-34 45-75s-6-73-45-74c-42 0-51 32-51 76 0 43 10 73 51 73" id="aZ"/><g id="i"><use transform="matrix(0.05,0,0,0.05,0,0)" xlink:href="#aZ"/><use transform="matrix(0.05,0,0,0.05,10,0)" xlink:href="#aO"/><use transform="matrix(0.05,0,0,0.05,20,0)" xlink:href="#aV"/><use transform="matrix(0.05,0,0,0.05,25.950000000000003,0)" xlink:href="#aO"/></g><path fill="#fff" d="M85-194c31 0 48 13 60 33l-1-100h32l1 261h-30c-2-10 0-23-3-31C134-8 116 4 85 4 32 4 16-35 15-94c0-66 23-100 70-100zm9 24c-40 0-46 34-46 75 0 40 6 74 45 74 42 0 51-32 51-76 0-42-9-74-50-73" id="ba"/><g id="j"><use transform="matrix(0.05,0,0,0.05,0,0)" xlink:href="#ba"/><use transform="matrix(0.05,0,0,0.05,10,0)" xlink:href="#aU"/></g><path fill="#fff" d="M135-143c-3-34-86-38-87 0 15 53 115 12 119 90S17 21 10-45l28-5c4 36 97 45 98 0-10-56-113-15-118-90-4-57 82-63 122-42 12 7 21 19 24 35" id="bb"/><g id="k"><use transform="matrix(0.05,0,0,0.05,0,0)" xlink:href="#aV"/><use transform="matrix(0.05,0,0,0.05,5.95,0)" xlink:href="#aU"/><use transform="matrix(0.05,0,0,0.05,15.949999999999998,0)" xlink:href="#bb"/><use transform="matrix(0.05,0,0,0.05,24.95,0)" xlink:href="#aZ"/><use transform="matrix(0.05,0,0,0.05,34.95,0)" xlink:href="#aJ"/><use transform="matrix(0.05,0,0,0.05,44.95,0)" xlink:href="#aS"/><use transform="matrix(0.05,0,0,0.05,54.95,0)" xlink:href="#ba"/><use transform="matrix(0.05,0,0,0.05,64.95,0)" xlink:href="#aU"/><use transform="matrix(0.05,0,0,0.05,74.95,0)" xlink:href="#aV"/></g><g id="l"><use transform="matrix(0.05,0,0,0.05,0,0)" xlink:href="#aT"/><use transform="matrix(0.05,0,0,0.05,12.950000000000001,0)" xlink:href="#aW"/><use transform="matrix(0.05,0,0,0.05,16.900000000000002,0)" xlink:href="#aL"/><use transform="matrix(0.05,0,0,0.05,20.85,0)" xlink:href="#aU"/><use transform="matrix(0.05,0,0,0.05,30.85,0)" xlink:href="#aS"/><use transform="matrix(0.05,0,0,0.05,40.85,0)" xlink:href="#aK"/><use transform="matrix(0.05,0,0,0.05,45.85,0)" xlink:href="#aU"/></g><path fill="#fff" d="M115-194c53 0 69 39 70 98 0 66-23 100-70 100C84 3 66-7 56-30L54 0H23l1-261h32v101c10-23 28-34 59-34zm-8 174c40 0 45-34 45-75 0-40-5-75-45-74-42 0-51 32-51 76 0 43 10 73 51 73" id="bc"/><g id="m"><use transform="matrix(0.05,0,0,0.05,0,0)" xlink:href="#aV"/><use transform="matrix(0.05,0,0,0.05,5.95,0)" xlink:href="#aU"/><use transform="matrix(0.05,0,0,0.05,15.949999999999998,0)" xlink:href="#aN"/><use transform="matrix(0.05,0,0,0.05,24.95,0)" xlink:href="#aU"/><use transform="matrix(0.05,0,0,0.05,34.95,0)" xlink:href="#bc"/><use transform="matrix(0.05,0,0,0.05,44.95,0)" xlink:href="#aU"/></g><path fill="#fff" d="M63-220v92h138v28H63V0H30v-248h175v28H63" id="bd"/><path fill="#fff" d="M30 0v-248h33v221h125V0H30" id="be"/><path fill="#fff" d="M266 0h-40l-56-210L115 0H75L2-248h35L96-30l15-64 43-154h32l59 218 59-218h35" id="bf"/><path fill="#fff" d="M33-154v-36h34v36H33zM33 0v-36h34V0H33" id="bg"/><g id="n"><use transform="matrix(0.05,0,0,0.05,0,0)" xlink:href="#bd"/><use transform="matrix(0.05,0,0,0.05,10.950000000000001,0)" xlink:href="#be"/><use transform="matrix(0.05,0,0,0.05,20.950000000000003,0)" xlink:href="#aX"/><use transform="matrix(0.05,0,0,0.05,34.95,0)" xlink:href="#bf"/><use transform="matrix(0.05,0,0,0.05,51.54999999999999,0)" xlink:href="#bg"/></g><g id="o"><use transform="matrix(0.05,0,0,0.05,0,0)" xlink:href="#aC"/><use transform="matrix(0.05,0,0,0.05,12,0)" xlink:href="#aD"/><use transform="matrix(0.05,0,0,0.05,21.6,0)" xlink:href="#aE"/><use transform="matrix(0.05,0,0,0.05,33.6,0)" xlink:href="#aF"/><use transform="matrix(0.05,0,0,0.05,44.25,0)" xlink:href="#aE"/></g><path fill="#fff" d="M110-160c48 1 74 30 74 79 0 53-28 85-80 85-65 0-83-55-86-122-5-90 50-162 133-122 14 7 22 21 27 39l-31 6c-5-40-67-38-82-6-9 19-15 44-15 74 11-20 30-34 60-33zm-7 138c34 0 49-23 49-58s-16-56-50-56c-29 0-50 16-49 49 1 36 15 65 50 65" id="bh"/><use transform="matrix(0.05,0,0,0.05,0,0)" xlink:href="#bh" id="p"/><path fill="#fff" d="M199 0l-22-63H83L61 0H9l90-248h61L250 0h-51zm-33-102l-36-108c-10 38-24 72-36 108h72" id="bi"/><path fill="#fff" d="M84 4C32 4 15-41 15-95c0-55 18-99 73-99 29 0 47 12 58 34l2-30h48l-1 265h-49V-32C136-9 114 4 84 4zm21-34c32 0 41-29 41-66 0-36-9-64-40-64-33 0-39 30-40 65 0 43 13 65 39 65" id="bj"/><path fill="#fff" d="M85 4C-2 5 27-109 22-190h50c7 57-23 150 33 157 60-5 35-97 40-157h50l1 190h-47c-2-12 1-28-3-38-12 25-28 42-61 42" id="bk"/><path fill="#fff" d="M25-224v-37h50v37H25zM25 0v-190h50V0H25" id="bl"/><g id="q"><use transform="matrix(0.05,0,0,0.05,0,0)" xlink:href="#bi"/><use transform="matrix(0.05,0,0,0.05,12.950000000000001,0)" xlink:href="#bj"/><use transform="matrix(0.05,0,0,0.05,23.900000000000002,0)" xlink:href="#bk"/><use transform="matrix(0.05,0,0,0.05,34.85,0)" xlink:href="#bl"/></g><path fill="#fff" d="M185-48c-13 30-37 53-82 52C43 2 14-33 14-96s30-98 90-98c62 0 83 45 84 108H66c0 31 8 55 39 56 18 0 30-7 34-22zm-45-69c5-46-57-63-70-21-2 6-4 13-4 21h74zm-67-91v-5l45-51h45v8l-60 48H73" id="bm"/><use transform="matrix(0.05,0,0,0.05,0,0)" xlink:href="#bm" id="r"/><path fill="#fff" d="M110-194c64 0 96 36 96 99 0 64-35 99-97 99-61 0-95-36-95-99 0-62 34-99 96-99zm-1 164c35 0 45-28 45-65 0-40-10-65-43-65-34 0-45 26-45 65 0 36 10 65 43 65" id="bn"/><path fill="#fff" d="M135-194c87-1 58 113 63 194h-50c-7-57 23-157-34-157-59 0-34 97-39 157H25l-1-190h47c2 12-1 28 3 38 12-26 28-41 61-42" id="bo"/><path fill="#fff" d="M88-194c31-1 46 15 58 34l-1-101h50l1 261h-48c-2-10 0-23-3-31C134-8 116 4 84 4 32 4 16-41 15-95c0-56 19-97 73-99zm17 164c33 0 40-30 41-66 1-37-9-64-41-64s-38 30-39 65c0 43 13 65 39 65" id="bp"/><path fill="#fff" d="M185-48c-13 30-37 53-82 52C43 2 14-33 14-96s30-98 90-98c62 0 83 45 84 108H66c0 31 8 55 39 56 18 0 30-7 34-22zm-45-69c5-46-57-63-70-21-2 6-4 13-4 21h74" id="bq"/><g id="s"><use transform="matrix(0.05,0,0,0.05,0,0)" xlink:href="#bn"/><use transform="matrix(0.05,0,0,0.05,10.950000000000001,0)" xlink:href="#bo"/><use transform="matrix(0.05,0,0,0.05,21.900000000000002,0)" xlink:href="#bp"/><use transform="matrix(0.05,0,0,0.05,32.85,0)" xlink:href="#bq"/></g><path fill="#fff" d="M128 0H69L1-190h53L99-40l48-150h52" id="br"/><path fill="#fff" d="M133-34C117-15 103 5 69 4 32 3 11-16 11-54c-1-60 55-63 116-61 1-26-3-47-28-47-18 1-26 9-28 27l-52-2c7-38 36-58 82-57s74 22 75 68l1 82c-1 14 12 18 25 15v27c-30 8-71 5-69-32zm-48 3c29 0 43-24 42-57-32 0-66-3-65 30 0 17 8 27 23 27" id="bs"/><path fill="#fff" d="M14-72v-43h91v43H14" id="bt"/><path fill="#fff" d="M137-138c1-29-70-34-71-4 15 46 118 7 119 86 1 83-164 76-172 9l43-7c4 19 20 25 44 25 33 8 57-30 24-41C81-84 22-81 20-136c-2-80 154-74 161-7" id="bu"/><g id="t"><use transform="matrix(0.05,0,0,0.05,0,0)" xlink:href="#bq"/><use transform="matrix(0.05,0,0,0.05,10,0)" xlink:href="#bo"/><use transform="matrix(0.05,0,0,0.05,20.950000000000003,0)" xlink:href="#br"/><use transform="matrix(0.05,0,0,0.05,30.950000000000003,0)" xlink:href="#bl"/><use transform="matrix(0.05,0,0,0.05,35.95,0)" xlink:href="#bs"/><use transform="matrix(0.05,0,0,0.05,45.95,0)" xlink:href="#bt"/><use transform="matrix(0.05,0,0,0.05,51.900000000000006,0)" xlink:href="#bu"/><use transform="matrix(0.05,0,0,0.05,61.900000000000006,0)" xlink:href="#bq"/></g><use transform="matrix(0.05,0,0,0.05,0,0)" xlink:href="#bn" id="u"/><path fill="#fff" d="M76-208v77h127v40H76V0H24v-248h183v40H76" id="bv"/><path fill="#fff" d="M25 0v-261h50V0H25" id="bw"/><path fill="#fff" d="M231 0h-52l-39-155L100 0H48L-1-190h46L77-45c9-52 24-97 36-145h53l37 145 32-145h46" id="bx"/><path fill="#fff" d="M24 0v-54h51V0H24" id="by"/><g id="v"><use transform="matrix(0.05,0,0,0.05,0,0)" xlink:href="#bv"/><use transform="matrix(0.05,0,0,0.05,10.950000000000001,0)" xlink:href="#bw"/><use transform="matrix(0.05,0,0,0.05,15.950000000000001,0)" xlink:href="#bn"/><use transform="matrix(0.05,0,0,0.05,26.900000000000002,0)" xlink:href="#bx"/><use transform="matrix(0.05,0,0,0.05,40.25,0)" xlink:href="#by"/></g><path fill="#fff" d="M30-248c118-7 216 8 213 122C240-48 200 0 122 0H30v-248zM63-27c89 8 146-16 146-99s-60-101-146-95v194" id="bz"/><path fill="#fff" d="M84 4C-5 8 30-112 23-190h32v120c0 31 7 50 39 49 72-2 45-101 50-169h31l1 190h-30c-1-10 1-25-2-33-11 22-28 36-60 37" id="bA"/><g id="w"><use transform="matrix(0.05,0,0,0.05,0,0)" xlink:href="#bz"/><use transform="matrix(0.05,0,0,0.05,12.950000000000001,0)" xlink:href="#aJ"/><use transform="matrix(0.05,0,0,0.05,22.950000000000003,0)" xlink:href="#bA"/><use transform="matrix(0.05,0,0,0.05,32.95,0)" xlink:href="#aK"/><use transform="matrix(0.05,0,0,0.05,37.95,0)" xlink:href="#aJ"/><use transform="matrix(0.05,0,0,0.05,47.95,0)" xlink:href="#aV"/></g><g id="x"><use transform="matrix(0.05,0,0,0.05,0,0)" xlink:href="#aS"/><use transform="matrix(0.05,0,0,0.05,10,0)" xlink:href="#aJ"/><use transform="matrix(0.05,0,0,0.05,20,0)" xlink:href="#aK"/><use transform="matrix(0.05,0,0,0.05,25,0)" xlink:href="#aL"/><use transform="matrix(0.05,0,0,0.05,28.950000000000003,0)" xlink:href="#aM"/><use transform="matrix(0.05,0,0,0.05,33.95,0)" xlink:href="#aL"/><use transform="matrix(0.05,0,0,0.05,37.900000000000006,0)" xlink:href="#aN"/><use transform="matrix(0.05,0,0,0.05,46.900000000000006,0)" xlink:href="#aO"/><use transform="matrix(0.05,0,0,0.05,56.900000000000006,0)" xlink:href="#aP"/><use transform="matrix(0.05,0,0,0.05,65.9,0)" xlink:href="#aQ"/><use transform="matrix(0.05,0,0,0.05,75.9,0)" xlink:href="#aJ"/></g><g id="y"><use transform="matrix(0.05,0,0,0.05,0,0)" xlink:href="#ba"/><use transform="matrix(0.05,0,0,0.05,10,0)" xlink:href="#aJ"/></g><path fill="#fff" d="M24-248c120-7 223 5 221 122C244-46 201 0 124 0H24v-248zM76-40c74 7 117-18 117-86 0-67-45-88-117-82v168" id="bB"/><path fill="#fff" d="M115-3C79 11 28 4 28-45v-112H4v-33h27l15-45h31v45h36v33H77v99c-1 23 16 31 38 25v30" id="bC"/><path fill="#fff" d="M135-150c-39-12-60 13-60 57V0H25l-1-190h47c2 13-1 29 3 40 6-28 27-53 61-41v41" id="bD"/><g id="z"><use transform="matrix(0.05,0,0,0.05,0,0)" xlink:href="#bB"/><use transform="matrix(0.05,0,0,0.05,12.950000000000001,0)" xlink:href="#bn"/><use transform="matrix(0.05,0,0,0.05,23.900000000000002,0)" xlink:href="#bk"/><use transform="matrix(0.05,0,0,0.05,34.85,0)" xlink:href="#bC"/><use transform="matrix(0.05,0,0,0.05,40.800000000000004,0)" xlink:href="#bn"/><use transform="matrix(0.05,0,0,0.05,51.75,0)" xlink:href="#bD"/></g><path fill="#fff" d="M190-63c-7 42-38 67-86 67-59 0-84-38-90-98-12-110 154-137 174-36l-49 2c-2-19-15-32-35-32-30 0-35 28-38 64-6 74 65 87 74 30" id="bE"/><path fill="#fff" d="M135-194c52 0 70 43 70 98 0 56-19 99-73 100-30 1-46-15-58-35L72 0H24l1-261h50v104c11-23 29-37 60-37zM114-30c31 0 40-27 40-66 0-37-7-63-39-63s-41 28-41 65c0 36 8 64 40 64" id="bF"/><g id="A"><use transform="matrix(0.05,0,0,0.05,0,0)" xlink:href="#bD"/><use transform="matrix(0.05,0,0,0.05,7,0)" xlink:href="#bq"/><use transform="matrix(0.05,0,0,0.05,17,0)" xlink:href="#bE"/><use transform="matrix(0.05,0,0,0.05,27,0)" xlink:href="#bq"/><use transform="matrix(0.05,0,0,0.05,37,0)" xlink:href="#bF"/><use transform="matrix(0.05,0,0,0.05,47.95,0)" xlink:href="#bq"/></g><path fill="#fff" d="M121-226c-27-7-43 5-38 36h38v33H83V0H34v-157H6v-33h28c-9-59 32-81 87-68v32" id="bG"/><path fill="#fff" d="M190-63c-7 42-38 67-86 67-59 0-84-38-90-98-12-110 154-137 174-36l-49 2c-2-19-15-32-35-32-30 0-35 28-38 64-6 74 65 87 74 30zm-84 77c20 1 33 9 33 27 0 32-36 36-71 33V53c15 1 39 4 39-11 0-13-16-12-31-12L87 0h25" id="bH"/><path fill="#fff" d="M132-34C116-15 102 5 68 4 31 3 10-16 10-54c-1-60 55-63 116-61 1-26-3-47-28-47-18 1-26 9-28 27l-52-2c7-38 36-58 82-57s74 22 75 68l1 82c-1 14 12 18 25 15v27c-30 8-71 5-69-32zm-48 3c29 0 43-24 42-57-32 0-66-3-65 30 0 17 8 27 23 27zm82-228c-2 27-9 52-40 51-27-1-66-46-73 0H29c0-29 9-51 39-51 28 0 66 44 74 0h24" id="bI"/><g id="B"><use transform="matrix(0.05,0,0,0.05,0,0)" xlink:href="#bo"/><use transform="matrix(0.05,0,0,0.05,10.950000000000001,0)" xlink:href="#bn"/><use transform="matrix(0.05,0,0,0.05,21.900000000000002,0)" xlink:href="#bC"/><use transform="matrix(0.05,0,0,0.05,27.85,0)" xlink:href="#bl"/><use transform="matrix(0.05,0,0,0.05,32.85,0)" xlink:href="#bG"/><use transform="matrix(0.05,0,0,0.05,38.800000000000004,0)" xlink:href="#bl"/><use transform="matrix(0.05,0,0,0.05,43.800000000000004,0)" xlink:href="#bE"/><use transform="matrix(0.05,0,0,0.05,53.800000000000004,0)" xlink:href="#bs"/><use transform="matrix(0.05,0,0,0.05,63.800000000000004,0)" xlink:href="#bH"/><use transform="matrix(0.05,0,0,0.05,73.80000000000001,0)" xlink:href="#bI"/><use transform="matrix(0.05,0,0,0.05,83.80000000000001,0)" xlink:href="#bn"/></g><path fill="#fff" d="M220-157c-53 9-28 100-34 157h-49v-107c1-27-5-49-29-50C55-147 81-57 75 0H25l-1-190h47c2 12-1 28 3 38 10-53 101-56 108 0 13-22 24-43 59-42 82 1 51 116 57 194h-49v-107c-1-25-5-48-29-50" id="bJ"/><g id="C"><use transform="matrix(0.05,0,0,0.05,0,0)" xlink:href="#bE"/><use transform="matrix(0.05,0,0,0.05,10,0)" xlink:href="#bn"/><use transform="matrix(0.05,0,0,0.05,20.950000000000003,0)" xlink:href="#bJ"/></g><g id="D"><use transform="matrix(0.05,0,0,0.05,0,0)" xlink:href="#bF"/><use transform="matrix(0.05,0,0,0.05,10.950000000000001,0)" xlink:href="#bn"/><use transform="matrix(0.05,0,0,0.05,21.900000000000002,0)" xlink:href="#bC"/><use transform="matrix(0.05,0,0,0.05,27.85,0)" xlink:href="#bI"/><use transform="matrix(0.05,0,0,0.05,37.85,0)" xlink:href="#bn"/></g><g id="E"><use transform="matrix(0.05,0,0,0.05,0,0)" xlink:href="#bp"/><use transform="matrix(0.05,0,0,0.05,10.950000000000001,0)" xlink:href="#bq"/></g><path fill="#fff" d="M67-125c0 53 21 87 73 88 37 1 54-22 65-47l45 17C233-25 199 4 140 4 58 4 20-42 15-125 8-235 124-281 211-232c18 10 29 29 36 50l-46 12c-8-25-30-41-62-41-52 0-71 34-72 86" id="bK"/><path fill="#fff" d="M136-208V0H84v-208H4v-40h212v40h-80" id="bL"/><g id="F"><use transform="matrix(0.05,0,0,0.05,0,0)" xlink:href="#bK"/><use transform="matrix(0.05,0,0,0.05,12.950000000000001,0)" xlink:href="#bL"/><use transform="matrix(0.05,0,0,0.05,22.550000000000004,0)" xlink:href="#bi"/></g><g id="G"><use transform="matrix(0.05,0,0,0.05,0,0)" xlink:href="#bu"/><use transform="matrix(0.05,0,0,0.05,10,0)" xlink:href="#bn"/><use transform="matrix(0.05,0,0,0.05,20.950000000000003,0)" xlink:href="#bJ"/><use transform="matrix(0.05,0,0,0.05,36.95,0)" xlink:href="#bq"/><use transform="matrix(0.05,0,0,0.05,46.95,0)" xlink:href="#bo"/><use transform="matrix(0.05,0,0,0.05,57.900000000000006,0)" xlink:href="#bC"/><use transform="matrix(0.05,0,0,0.05,63.85,0)" xlink:href="#bq"/></g><g id="H"><use transform="matrix(0.05,0,0,0.05,0,0)" xlink:href="#bj"/><use transform="matrix(0.05,0,0,0.05,10.950000000000001,0)" xlink:href="#bk"/><use transform="matrix(0.05,0,0,0.05,21.900000000000002,0)" xlink:href="#bs"/><use transform="matrix(0.05,0,0,0.05,31.900000000000002,0)" xlink:href="#bo"/><use transform="matrix(0.05,0,0,0.05,42.85,0)" xlink:href="#bp"/><use transform="matrix(0.05,0,0,0.05,53.800000000000004,0)" xlink:href="#bn"/></g><g id="I"><use transform="matrix(0.05,0,0,0.05,0,0)" xlink:href="#bw"/><use transform="matrix(0.05,0,0,0.05,5,0)" xlink:href="#bq"/><use transform="matrix(0.05,0,0,0.05,15,0)" xlink:href="#bs"/><use transform="matrix(0.05,0,0,0.05,25,0)" xlink:href="#bp"/></g><g id="J"><use transform="matrix(0.05,0,0,0.05,0,0)" xlink:href="#bD"/><use transform="matrix(0.05,0,0,0.05,7,0)" xlink:href="#bq"/><use transform="matrix(0.05,0,0,0.05,17,0)" xlink:href="#bu"/><use transform="matrix(0.05,0,0,0.05,27,0)" xlink:href="#bq"/><use transform="matrix(0.05,0,0,0.05,37,0)" xlink:href="#bD"/><use transform="matrix(0.05,0,0,0.05,44,0)" xlink:href="#br"/><use transform="matrix(0.05,0,0,0.05,54,0)" xlink:href="#bs"/></g><g id="K"><use transform="matrix(0.05,0,0,0.05,0,0)" xlink:href="#bk"/><use transform="matrix(0.05,0,0,0.05,10.950000000000001,0)" xlink:href="#bJ"/></g><path fill="#fff" d="M114-157C55-157 80-60 75 0H25v-261h50l-1 109c12-26 28-41 61-42 86-1 58 113 63 194h-50c-7-57 23-157-34-157" id="bM"/><path fill="#fff" d="M132-34C116-15 102 5 68 4 31 3 10-16 10-54c-1-60 55-63 116-61 1-26-3-47-28-47-18 1-26 9-28 27l-52-2c7-38 36-58 82-57s74 22 75 68l1 82c-1 14 12 18 25 15v27c-30 8-71 5-69-32zm-48 3c29 0 43-24 42-57-32 0-66-3-65 30 0 17 8 27 23 27zM66-208v-5l45-51h45v8l-60 48H66" id="bN"/><g id="L"><use transform="matrix(0.05,0,0,0.05,0,0)" xlink:href="#bM"/><use transform="matrix(0.05,0,0,0.05,10.950000000000001,0)" xlink:href="#bn"/><use transform="matrix(0.05,0,0,0.05,21.900000000000002,0)" xlink:href="#bD"/><use transform="matrix(0.05,0,0,0.05,28.900000000000002,0)" xlink:href="#bN"/><use transform="matrix(0.05,0,0,0.05,38.900000000000006,0)" xlink:href="#bD"/><use transform="matrix(0.05,0,0,0.05,45.900000000000006,0)" xlink:href="#bl"/><use transform="matrix(0.05,0,0,0.05,50.900000000000006,0)" xlink:href="#bn"/></g><path fill="#fff" d="M108 0H70L1-190h34L89-25l56-165h34" id="bO"/><g id="M"><use transform="matrix(0.05,0,0,0.05,0,0)" xlink:href="#aU"/><use transform="matrix(0.05,0,0,0.05,10,0)" xlink:href="#aS"/><use transform="matrix(0.05,0,0,0.05,20,0)" xlink:href="#bO"/><use transform="matrix(0.05,0,0,0.05,29,0)" xlink:href="#aL"/><use transform="matrix(0.05,0,0,0.05,32.95,0)" xlink:href="#aO"/></g><use transform="matrix(0.05,0,0,0.05,0,0)" xlink:href="#aJ" id="N"/><path fill="#fff" d="M206 0h-36l-40-164L89 0H53L-1-190h32L70-26l43-164h34l41 164 42-164h31" id="bP"/><g id="O"><use transform="matrix(0.05,0,0,0.05,0,0)" xlink:href="#aM"/><use transform="matrix(0.05,0,0,0.05,5,0)" xlink:href="#aW"/><use transform="matrix(0.05,0,0,0.05,8.95,0)" xlink:href="#aJ"/><use transform="matrix(0.05,0,0,0.05,18.95,0)" xlink:href="#bP"/></g><g id="P"><use transform="matrix(0.05,0,0,0.05,0,0)" xlink:href="#ba"/><use transform="matrix(0.05,0,0,0.05,10,0)" xlink:href="#aU"/></g><path fill="#fff" d="M210-169c-67 3-38 105-44 169h-31v-121c0-29-5-50-35-48C34-165 62-65 56 0H25l-1-190h30c1 10-1 24 2 32 10-44 99-50 107 0 11-21 27-35 58-36 85-2 47 119 55 194h-31v-121c0-29-5-49-35-48" id="bQ"/><g id="Q"><use transform="matrix(0.05,0,0,0.05,0,0)" xlink:href="#aN"/><use transform="matrix(0.05,0,0,0.05,9,0)" xlink:href="#aJ"/><use transform="matrix(0.05,0,0,0.05,19,0)" xlink:href="#aS"/><use transform="matrix(0.05,0,0,0.05,29,0)" xlink:href="#aM"/><use transform="matrix(0.05,0,0,0.05,34,0)" xlink:href="#aL"/><use transform="matrix(0.05,0,0,0.05,37.95,0)" xlink:href="#aV"/><use transform="matrix(0.05,0,0,0.05,43.900000000000006,0)" xlink:href="#bQ"/><use transform="matrix(0.05,0,0,0.05,58.85,0)" xlink:href="#aO"/><use transform="matrix(0.05,0,0,0.05,68.85000000000001,0)" xlink:href="#aP"/><use transform="matrix(0.05,0,0,0.05,77.85000000000001,0)" xlink:href="#aQ"/><use transform="matrix(0.05,0,0,0.05,87.85000000000001,0)" xlink:href="#aJ"/></g><use transform="matrix(0.05,0,0,0.05,0,0)" xlink:href="#aJ" id="R"/><path fill="#fff" d="M103-251c84 0 111 97 45 133-19 10-37 24-39 52H78c0-63 77-55 77-114 0-30-21-42-52-43-32 0-53 17-56 46l-32-2c7-45 34-72 88-72zM77 0v-35h34V0H77" id="bR"/><g id="S"><use transform="matrix(0.05,0,0,0.05,0,0)" xlink:href="#aW"/><use transform="matrix(0.05,0,0,0.05,3.95,0)" xlink:href="#aU"/><use transform="matrix(0.05,0,0,0.05,13.949999999999998,0)" xlink:href="#aO"/><use transform="matrix(0.05,0,0,0.05,23.95,0)" xlink:href="#ba"/><use transform="matrix(0.05,0,0,0.05,33.95,0)" xlink:href="#bR"/></g><path fill="#fff" d="M169-182c-1-43-94-46-97-3 18 66 151 10 154 114 3 95-165 93-204 36-6-8-10-19-12-30l50-8c3 46 112 56 116 5-17-69-150-10-154-114-4-87 153-88 188-35 5 8 8 18 10 28" id="bS"/><g id="T"><use transform="matrix(0.04938271604938272,0,0,0.04938271604938272,0,0)" xlink:href="#bS"/><use transform="matrix(0.04938271604938272,0,0,0.04938271604938272,11.851851851851853,0)" xlink:href="#bl"/><use transform="matrix(0.04938271604938272,0,0,0.04938271604938272,16.790123456790127,0)" xlink:href="#bJ"/></g><path fill="#fff" d="M175 0L67-191c6 58 2 128 3 191H24v-248h59L193-55c-6-58-2-129-3-193h46V0h-61" id="bT"/><g id="U"><use transform="matrix(0.04938271604938272,0,0,0.04938271604938272,0,0)" xlink:href="#bT"/><use transform="matrix(0.04938271604938272,0,0,0.04938271604938272,12.790123456790125,0)" xlink:href="#bI"/><use transform="matrix(0.04938271604938272,0,0,0.04938271604938272,22.66666666666667,0)" xlink:href="#bn"/></g><g id="V"><use transform="matrix(0.05,0,0,0.05,0,0)" xlink:href="#aF"/><use transform="matrix(0.05,0,0,0.05,12,0)" xlink:href="#aU"/><use transform="matrix(0.05,0,0,0.05,22,0)" xlink:href="#aV"/><use transform="matrix(0.05,0,0,0.05,27.950000000000003,0)" xlink:href="#bQ"/><use transform="matrix(0.05,0,0,0.05,42.9,0)" xlink:href="#aO"/><use transform="matrix(0.05,0,0,0.05,52.900000000000006,0)" xlink:href="#aS"/><use transform="matrix(0.05,0,0,0.05,62.900000000000006,0)" xlink:href="#aU"/><use transform="matrix(0.05,0,0,0.05,72.9,0)" xlink:href="#aN"/><use transform="matrix(0.05,0,0,0.05,81.9,0)" xlink:href="#aU"/></g><g id="W"><use transform="matrix(0.05,0,0,0.05,0,0)" xlink:href="#aS"/><use transform="matrix(0.05,0,0,0.05,10,0)" xlink:href="#aO"/></g><g id="X"><use transform="matrix(0.05,0,0,0.05,0,0)" xlink:href="#aU"/><use transform="matrix(0.05,0,0,0.05,10,0)" xlink:href="#aK"/><use transform="matrix(0.05,0,0,0.05,15,0)" xlink:href="#aO"/><use transform="matrix(0.05,0,0,0.05,25,0)" xlink:href="#aZ"/><use transform="matrix(0.05,0,0,0.05,35,0)" xlink:href="#aO"/></g><use transform="matrix(0.05,0,0,0.05,0,0)" xlink:href="#aG" id="Y"/><path fill="#fff" d="M177-190C167-65 218 103 67 71c-23-6-38-20-44-43l32-5c15 47 100 32 89-28v-30C133-14 115 1 83 1 29 1 15-40 15-95c0-56 16-97 71-98 29-1 48 16 59 35 1-10 0-23 2-32h30zM94-22c36 0 50-32 50-73 0-42-14-75-50-75-39 0-46 34-46 75s6 73 46 73" id="bU"/><g id="Z"><use transform="matrix(0.05,0,0,0.05,0,0)" xlink:href="#bQ"/><use transform="matrix(0.05,0,0,0.05,14.950000000000001,0)" xlink:href="#aU"/><use transform="matrix(0.05,0,0,0.05,24.950000000000003,0)" xlink:href="#aS"/><use transform="matrix(0.05,0,0,0.05,34.95,0)" xlink:href="#bb"/><use transform="matrix(0.05,0,0,0.05,43.95,0)" xlink:href="#aO"/><use transform="matrix(0.05,0,0,0.05,53.95,0)" xlink:href="#bU"/><use transform="matrix(0.05,0,0,0.05,63.95,0)" xlink:href="#aU"/><use transform="matrix(0.05,0,0,0.05,73.95,0)" xlink:href="#bQ"/></g><g id="aa"><use transform="matrix(0.05,0,0,0.05,0,0)" xlink:href="#aW"/><use transform="matrix(0.05,0,0,0.05,3.95,0)" xlink:href="#aU"/><use transform="matrix(0.05,0,0,0.05,13.949999999999998,0)" xlink:href="#aO"/><use transform="matrix(0.05,0,0,0.05,23.95,0)" xlink:href="#ba"/></g><g id="ab"><use transform="matrix(0.05,0,0,0.05,0,0)" xlink:href="#bQ"/><use transform="matrix(0.05,0,0,0.05,14.950000000000001,0)" xlink:href="#aO"/><use transform="matrix(0.05,0,0,0.05,24.950000000000003,0)" xlink:href="#aS"/><use transform="matrix(0.05,0,0,0.05,34.95,0)" xlink:href="#bA"/><use transform="matrix(0.05,0,0,0.05,44.95,0)" xlink:href="#aO"/><use transform="matrix(0.05,0,0,0.05,54.95,0)" xlink:href="#aW"/><use transform="matrix(0.05,0,0,0.05,58.900000000000006,0)" xlink:href="#bQ"/><use transform="matrix(0.05,0,0,0.05,73.85000000000001,0)" xlink:href="#aU"/><use transform="matrix(0.05,0,0,0.05,83.85000000000001,0)" xlink:href="#aS"/><use transform="matrix(0.05,0,0,0.05,93.85000000000001,0)" xlink:href="#aK"/><use transform="matrix(0.05,0,0,0.05,98.85000000000001,0)" xlink:href="#aU"/></g><g id="ac"><use transform="matrix(0.05,0,0,0.05,0,0)" xlink:href="#bO"/><use transform="matrix(0.05,0,0,0.05,9,0)" xlink:href="#aL"/><use transform="matrix(0.05,0,0,0.05,12.949999999999998,0)" xlink:href="#aO"/></g><path fill="#fff" d="M33 0v-248h34V0H33" id="bV"/><g id="ad"><use transform="matrix(0.05,0,0,0.05,0,0)" xlink:href="#aE"/><use transform="matrix(0.05,0,0,0.05,12,0)" xlink:href="#aF"/><use transform="matrix(0.05,0,0,0.05,24,0)" xlink:href="#bV"/></g><path fill="#fff" d="M24 0v-248h52V0H24" id="bW"/><path fill="#fff" d="M135-194c53 0 70 44 70 98 0 56-19 98-73 100-31 1-45-17-59-34 3 33 2 69 2 105H25l-1-265h48c2 10 0 23 3 31 11-24 29-35 60-35zM114-30c33 0 39-31 40-66 0-38-9-64-40-64-56 0-55 130 0 130" id="bX"/><g id="ae"><use transform="matrix(0.05,0,0,0.05,0,0)" xlink:href="#bW"/><use transform="matrix(0.05,0,0,0.05,5,0)" xlink:href="#bo"/><use transform="matrix(0.05,0,0,0.05,15.950000000000001,0)" xlink:href="#bp"/><use transform="matrix(0.05,0,0,0.05,26.900000000000002,0)" xlink:href="#bq"/><use transform="matrix(0.05,0,0,0.05,36.900000000000006,0)" xlink:href="#bX"/><use transform="matrix(0.05,0,0,0.05,47.85000000000001,0)" xlink:href="#bq"/><use transform="matrix(0.05,0,0,0.05,57.85,0)" xlink:href="#bo"/><use transform="matrix(0.05,0,0,0.05,68.80000000000001,0)" xlink:href="#bp"/><use transform="matrix(0.05,0,0,0.05,79.75000000000001,0)" xlink:href="#bq"/><use transform="matrix(0.05,0,0,0.05,89.75000000000001,0)" xlink:href="#bo"/><use transform="matrix(0.05,0,0,0.05,100.70000000000002,0)" xlink:href="#bC"/><use transform="matrix(0.05,0,0,0.05,106.65000000000003,0)" xlink:href="#bq"/><use transform="matrix(0.05,0,0,0.05,116.65000000000003,0)" xlink:href="#bJ"/><use transform="matrix(0.05,0,0,0.05,132.65000000000003,0)" xlink:href="#bq"/><use transform="matrix(0.05,0,0,0.05,142.65000000000003,0)" xlink:href="#bo"/><use transform="matrix(0.05,0,0,0.05,153.60000000000002,0)" xlink:href="#bC"/><use transform="matrix(0.05,0,0,0.05,159.55,0)" xlink:href="#bq"/></g><g id="af"><use transform="matrix(0.05,0,0,0.05,0,0)" xlink:href="#bp"/><use transform="matrix(0.05,0,0,0.05,10.950000000000001,0)" xlink:href="#bq"/></g><g id="ag"><use transform="matrix(0.05,0,0,0.05,0,0)" xlink:href="#bw"/><use transform="matrix(0.05,0,0,0.05,5,0)" xlink:href="#bq"/><use transform="matrix(0.05,0,0,0.05,15,0)" xlink:href="#bs"/><use transform="matrix(0.05,0,0,0.05,25,0)" xlink:href="#bp"/></g><g id="ah"><use transform="matrix(0.05,0,0,0.05,0,0)" xlink:href="#bC"/><use transform="matrix(0.05,0,0,0.05,5.95,0)" xlink:href="#bq"/><use transform="matrix(0.05,0,0,0.05,15.949999999999998,0)" xlink:href="#bD"/></g><g id="ai"><use transform="matrix(0.05,0,0,0.05,0,0)" xlink:href="#bG"/><use transform="matrix(0.05,0,0,0.05,5.95,0)" xlink:href="#bq"/><use transform="matrix(0.05,0,0,0.05,15.949999999999998,0)" xlink:href="#bl"/><use transform="matrix(0.05,0,0,0.05,20.95,0)" xlink:href="#bC"/><use transform="matrix(0.05,0,0,0.05,26.899999999999995,0)" xlink:href="#bn"/></g><use transform="matrix(0.05,0,0,0.05,0,0)" xlink:href="#bs" id="aj"/><g id="ak"><use transform="matrix(0.05,0,0,0.05,0,0)" xlink:href="#bn"/><use transform="matrix(0.05,0,0,0.05,10.950000000000001,0)" xlink:href="#bk"/></g><path fill="#fff" d="M76-54c-1 42 2 86-19 110H24C36 42 46 24 48 0H25v-54h51" id="bY"/><g id="al"><use transform="matrix(0.05,0,0,0.05,0,0)" xlink:href="#bo"/><use transform="matrix(0.05,0,0,0.05,10.950000000000001,0)" xlink:href="#bI"/><use transform="matrix(0.05,0,0,0.05,20.950000000000003,0)" xlink:href="#bn"/><use transform="matrix(0.05,0,0,0.05,31.900000000000006,0)" xlink:href="#bY"/></g><g id="am"><use transform="matrix(0.05,0,0,0.05,0,0)" xlink:href="#bj"/><use transform="matrix(0.05,0,0,0.05,10.950000000000001,0)" xlink:href="#bk"/><use transform="matrix(0.05,0,0,0.05,21.900000000000002,0)" xlink:href="#bs"/><use transform="matrix(0.05,0,0,0.05,31.900000000000002,0)" xlink:href="#bw"/><use transform="matrix(0.05,0,0,0.05,36.900000000000006,0)" xlink:href="#bj"/><use transform="matrix(0.05,0,0,0.05,47.85000000000001,0)" xlink:href="#bk"/><use transform="matrix(0.05,0,0,0.05,58.80000000000001,0)" xlink:href="#bq"/><use transform="matrix(0.05,0,0,0.05,68.80000000000001,0)" xlink:href="#bD"/></g><g id="an"><use transform="matrix(0.05,0,0,0.05,0,0)" xlink:href="#bl"/><use transform="matrix(0.05,0,0,0.05,5,0)" xlink:href="#bo"/><use transform="matrix(0.05,0,0,0.05,15.950000000000001,0)" xlink:href="#bC"/><use transform="matrix(0.05,0,0,0.05,21.900000000000002,0)" xlink:href="#bq"/><use transform="matrix(0.05,0,0,0.05,31.900000000000002,0)" xlink:href="#bD"/><use transform="matrix(0.05,0,0,0.05,38.900000000000006,0)" xlink:href="#bs"/><use transform="matrix(0.05,0,0,0.05,48.900000000000006,0)" xlink:href="#bH"/><use transform="matrix(0.05,0,0,0.05,58.900000000000006,0)" xlink:href="#bI"/><use transform="matrix(0.05,0,0,0.05,68.9,0)" xlink:href="#bn"/></g><g id="ao"><use transform="matrix(0.05,0,0,0.05,0,0)" xlink:href="#bE"/><use transform="matrix(0.05,0,0,0.05,10,0)" xlink:href="#bn"/><use transform="matrix(0.05,0,0,0.05,20.950000000000003,0)" xlink:href="#bJ"/></g><use transform="matrix(0.05,0,0,0.05,0,0)" xlink:href="#bn" id="ap"/><g id="aq"><use transform="matrix(0.05,0,0,0.05,0,0)" xlink:href="#bp"/><use transform="matrix(0.05,0,0,0.05,10.950000000000001,0)" xlink:href="#bn"/><use transform="matrix(0.05,0,0,0.05,21.900000000000002,0)" xlink:href="#bk"/><use transform="matrix(0.05,0,0,0.05,32.85,0)" xlink:href="#bC"/><use transform="matrix(0.05,0,0,0.05,38.800000000000004,0)" xlink:href="#bn"/><use transform="matrix(0.05,0,0,0.05,49.75000000000001,0)" xlink:href="#bD"/></g><g id="ar"><use transform="matrix(0.05,0,0,0.05,0,0)" xlink:href="#bG"/><use transform="matrix(0.05,0,0,0.05,5.95,0)" xlink:href="#bs"/><use transform="matrix(0.05,0,0,0.05,15.949999999999998,0)" xlink:href="#bD"/><use transform="matrix(0.05,0,0,0.05,22.95,0)" xlink:href="#bN"/></g><g id="as"><use transform="matrix(0.05,0,0,0.05,0,0)" xlink:href="#bj"/><use transform="matrix(0.05,0,0,0.05,10.950000000000001,0)" xlink:href="#bk"/><use transform="matrix(0.05,0,0,0.05,21.900000000000002,0)" xlink:href="#bq"/></g><g id="at"><use transform="matrix(0.05,0,0,0.05,0,0)" xlink:href="#bq"/><use transform="matrix(0.05,0,0,0.05,10,0)" xlink:href="#bC"/><use transform="matrix(0.05,0,0,0.05,15.949999999999998,0)" xlink:href="#bs"/><use transform="matrix(0.05,0,0,0.05,25.950000000000003,0)" xlink:href="#bX"/><use transform="matrix(0.05,0,0,0.05,36.9,0)" xlink:href="#bs"/></g><path fill="#fff" d="M25-224v-37h50v37H25zM75 22c2 45-34 59-81 51V38c22 5 31-5 31-27v-201h50V22" id="bZ"/><g id="au"><use transform="matrix(0.05,0,0,0.05,0,0)" xlink:href="#bu"/><use transform="matrix(0.05,0,0,0.05,10,0)" xlink:href="#bq"/><use transform="matrix(0.05,0,0,0.05,20,0)" xlink:href="#bZ"/><use transform="matrix(0.05,0,0,0.05,25,0)" xlink:href="#bs"/></g><g id="av"><use transform="matrix(0.05,0,0,0.05,0,0)" xlink:href="#bs"/><use transform="matrix(0.05,0,0,0.05,10,0)" xlink:href="#br"/><use transform="matrix(0.05,0,0,0.05,20,0)" xlink:href="#bs"/><use transform="matrix(0.05,0,0,0.05,30,0)" xlink:href="#bo"/><use transform="matrix(0.05,0,0,0.05,40.95,0)" xlink:href="#bH"/><use transform="matrix(0.05,0,0,0.05,50.95,0)" xlink:href="#bs"/><use transform="matrix(0.05,0,0,0.05,60.95,0)" xlink:href="#bp"/><use transform="matrix(0.05,0,0,0.05,71.9,0)" xlink:href="#bs"/><use transform="matrix(0.05,0,0,0.05,81.9,0)" xlink:href="#by"/></g><g id="aw"><use transform="matrix(0.05,0,0,0.05,0,0)" xlink:href="#aC"/><use transform="matrix(0.05,0,0,0.05,12,0)" xlink:href="#aK"/><use transform="matrix(0.05,0,0,0.05,17,0)" xlink:href="#aO"/><use transform="matrix(0.05,0,0,0.05,27,0)" xlink:href="#aZ"/><use transform="matrix(0.05,0,0,0.05,37,0)" xlink:href="#aO"/></g><path fill="#fff" d="M54-142c48-35 137-8 131 61C196 18 31 33 14-55l32-4c7 23 22 37 52 37 35-1 51-22 54-58 4-55-73-65-99-34H22l8-134h141v27H59" id="ca"/><use transform="matrix(0.05,0,0,0.05,0,0)" xlink:href="#ca" id="ax"/><use transform="matrix(0.05,0,0,0.05,0,0)" xlink:href="#ca" id="ay"/><g id="az"><use transform="matrix(0.05,0,0,0.05,0,0)" xlink:href="#bz"/><use transform="matrix(0.05,0,0,0.05,12.950000000000001,0)" xlink:href="#aJ"/><use transform="matrix(0.05,0,0,0.05,22.950000000000003,0)" xlink:href="#bA"/><use transform="matrix(0.05,0,0,0.05,32.95,0)" xlink:href="#aK"/><use transform="matrix(0.05,0,0,0.05,37.95,0)" xlink:href="#aJ"/><use transform="matrix(0.05,0,0,0.05,47.95,0)" xlink:href="#aV"/></g><g id="aA"><use transform="matrix(0.05,0,0,0.05,0,0)" xlink:href="#aU"/><use transform="matrix(0.05,0,0,0.05,10,0)" xlink:href="#aS"/><use transform="matrix(0.05,0,0,0.05,20,0)" xlink:href="#aK"/><use transform="matrix(0.05,0,0,0.05,25,0)" xlink:href="#aV"/><use transform="matrix(0.05,0,0,0.05,30.950000000000003,0)" xlink:href="#aO"/></g><g id="aB"><use transform="matrix(0.05,0,0,0.05,0,0)" xlink:href="#aN"/><use transform="matrix(0.05,0,0,0.05,9,0)" xlink:href="#aJ"/><use transform="matrix(0.05,0,0,0.05,19,0)" xlink:href="#aS"/><use transform="matrix(0.05,0,0,0.05,29,0)" xlink:href="#bO"/><use transform="matrix(0.05,0,0,0.05,38,0)" xlink:href="#aU"/><use transform="matrix(0.05,0,0,0.05,48,0)" xlink:href="#aV"/><use transform="matrix(0.05,0,0,0.05,53.95,0)" xlink:href="#bb"/><use transform="matrix(0.05,0,0,0.05,62.95,0)" xlink:href="#aO"/></g></defs></g></svg>