<svg xmlns="http://www.w3.org/2000/svg" xmlns:xlink="http://www.w3.org/1999/xlink" xmlns:lucid="lucid" width="683.53" height="1482"><g transform="translate(-8498.515046077315 -1519)" lucid:page-tab-id="DzQuOS0QucBl"><path d="M8499.5 1520h681.54v1480H8499.5z" fill-opacity="0"/><path d="M8519.8 1520h2.03m10.14 0h20.28m10.14 0h2.02m10.14 0h20.3m10.13 0h2.02m10.14 0h20.28m10.14 0h2.03m10.15 0h20.3m10.13 0h2.03m10.15 0h20.28m10.15 0h2.02m10.15 0h20.28m10.14 0h2.03m10.14 0h20.28m10.15 0h2.03m10.14 0h20.28m10.14 0h2.03m10.13 0h20.3m10.13 0h2.03m10.13 0h20.28m10.15 0h2.03m10.14 0h20.3m10.13 0h2.03m10.14 0h20.28m10.14 0h2.03m10.14 0h20.3m10.14 0h2.03m10.14 0h20.3m10.13 0h2.03m10.14 0h20.3m10.13 0h2.03m10.14 0h10.14v10.07m0 10.07v2m0 10.08v20.13m0 10.07v2m0 10.08v20.14m0 10.07v2.02m0 10.07v20.13m0 10.06v2m0 10.08v20.13m0 10.08v2m0 10.08v20.14m0 10.07v2m0 10.08v20.13m0 10.07v2m0 10.08v20.14m0 10.07v2m0 10.08v20.13m0 10.07v2m0 10.08v20.14m0 10.07v2.02m0 10.07v20.13m0 10.06v2m0 10.08v20.13m0 10.08v2m0 10.08v20.14m0 10.07v2m0 10.08v20.13m0 10.07v2m0 10.08v20.14m0 10.07v2m0 10.08v20.13m0 10.07v2m0 10.08v20.14m0 10.07v2.02m0 10.07v20.13m0 10.06v2m0 10.07v20.14m0 10.08v2m0 10.08v20.14m0 10.07v2m0 10.08v20.13m0 10.07v2m0 10.08v20.14m0 10.07v2m0 10.08v20.13m0 10.07v2m0 10.08v20.14m0 10.07v2.02m0 10.07v20.13m0 10.06v2m0 10.07v20.14m0 10.08v2m0 10.08v20.14m0 10.07v2m0 10.08v20.13m0 10.07v2m0 10.08v20.14m0 10.07v2m0 10.08v20.13m0 10.07v2m0 10.08v20.14m0 10.07v2.02m0 10.07v20.13m0 10.06v2m0 10.07v20.14m0 10.08v2m0 10.08v20.14m0 10.07v2m0 10.08v20.13m0 10.07v2m0 10.08V3000h-10.14m-10.14 0h-2.03m-10.14 0h-20.3m-10.14 0h-2.03m-10.14 0h-20.3m-10.13 0h-2.03m-10.14 0h-20.3m-10.13 0h-2.03m-10.14 0h-20.28m-10.14 0h-2.03m-10.14 0h-20.28m-10.14 0h-2.03m-10.14 0h-20.27m-10.14 0h-2.04m-10.14 0h-20.3m-10.13 0h-2.04m-10.14 0h-20.28m-10.14 0h-2.03m-10.14 0h-20.3m-10.13 0h-2.03m-10.14 0h-20.28m-10.15 0h-2.02m-10.15 0h-20.28m-10.14 0h-2.02m-10.14 0h-20.3m-10.13 0h-2.02m-10.14 0h-20.28m-10.14 0H8605m-10.15 0h-20.3m-10.13 0h-2.03m-10.15 0h-20.28m-10.14 0h-2.03m-10.14 0h-10.15v-10.07m0-10.07v-2m0-10.08v-20.13m0-10.07v-2m0-10.08v-20.14m0-10.07v-2.02m0-10.07v-20.13m0-10.06v-2m0-10.07v-20.14m0-10.08v-2m0-10.08v-20.14m0-10.07v-2m0-10.08v-20.13m0-10.07v-2m0-10.08v-20.14m0-10.07v-2m0-10.08v-20.13m0-10.07v-2m0-10.08v-20.14m0-10.07v-2.02m0-10.07v-20.13m0-10.06v-2m0-10.07v-20.14m0-10.08v-2m0-10.08v-20.14m0-10.07v-2m0-10.08v-20.13m0-10.07v-2m0-10.08v-20.14m0-10.07v-2m0-10.08v-20.13m0-10.07v-2m0-10.08v-20.14m0-10.07v-2.02m0-10.07v-20.13m0-10.06v-2m0-10.07v-20.14m0-10.08v-2m0-10.08v-20.14m0-10.07v-2m0-10.08v-20.13m0-10.07v-2m0-10.08v-20.14m0-10.07v-2m0-10.08v-20.13m0-10.07v-2m0-10.08v-20.14m0-10.07v-2.02m0-10.07v-20.13m0-10.06v-2m0-10.08v-20.13m0-10.08v-2m0-10.08v-20.14m0-10.07v-2m0-10.08v-20.13m0-10.07v-2m0-10.08v-20.14m0-10.07v-2m0-10.08v-20.13m0-10.07v-2m0-10.08v-20.14m0-10.07v-2.02m0-10.07v-20.13m0-10.06v-2m0-10.08v-20.13m0-10.08v-2m0-10.08v-20.14m0-10.07v-2m0-10.08v-20.13m0-10.07v-2m0-10.08V1520h10.16" stroke="#fff" stroke-width="2" fill="none"/><use xlink:href="#a" transform="matrix(1,0,0,1,8519.515046077315,1540) translate(244.45 14.4)"/><use xlink:href="#b" transform="matrix(1,0,0,1,8519.515046077315,1540) translate(304.7 14.4)"/><use xlink:href="#c" transform="matrix(1,0,0,1,8519.515046077315,1540) translate(319.7 14.4)"/><use xlink:href="#d" transform="matrix(1,0,0,1,8519.515046077315,1540) translate(330.65 14.4)"/><path d="M8726.03 1629.85h228.5v146.24h-228.5z" stroke="#fff" stroke-width="3" fill-opacity="0"/><use xlink:href="#e" transform="matrix(1,0,0,1,8726.026265917884,1629.8487481394386) translate(5.65500000000001 64.93125)"/><use xlink:href="#f" transform="matrix(1,0,0,1,8726.026265917884,1629.8487481394386) translate(74.55500000000002 64.93125)"/><use xlink:href="#g" transform="matrix(1,0,0,1,8726.026265917884,1629.8487481394386) translate(89.55500000000002 64.93125)"/><use xlink:href="#h" transform="matrix(1,0,0,1,8726.026265917884,1629.8487481394386) translate(136.455 64.93125)"/><use xlink:href="#i" transform="matrix(1,0,0,1,8726.026265917884,1629.8487481394386) translate(162.405 64.93125)"/><use xlink:href="#j" transform="matrix(1,0,0,1,8726.026265917884,1629.8487481394386) translate(83.08 86.53125)"/><use xlink:href="#k" transform="matrix(1,0,0,1,8726.026265917884,1629.8487481394386) translate(109.97999999999999 86.53125)"/><path d="M8758.4 1859.5h163.75v120H8758.4z" stroke="#fff" stroke-width="3" fill-opacity="0"/><use xlink:href="#l" transform="matrix(1,0,0,1,8758.403356371986,1859.5030909437755) translate(9.704999999999993 40.65)"/><use xlink:href="#m" transform="matrix(1,0,0,1,8758.403356371986,1859.5030909437755) translate(91.455 40.65)"/><use xlink:href="#n" transform="matrix(1,0,0,1,8758.403356371986,1859.5030909437755) translate(23.679999999999986 62.25)"/><use xlink:href="#o" transform="matrix(1,0,0,1,8758.403356371986,1859.5030909437755) translate(92.48 62.25)"/><use xlink:href="#p" transform="matrix(1,0,0,1,8758.403356371986,1859.5030909437755) translate(107.48 62.25)"/><use xlink:href="#q" transform="matrix(1,0,0,1,8758.403356371986,1859.5030909437755) translate(34.10499999999999 83.85000000000001)"/><path d="M8760.28 2039.5h160v120h-160z" stroke="#fff" stroke-width="3" fill-opacity="0"/><use xlink:href="#r" transform="matrix(1,0,0,1,8760.278356371986,2039.5030909437755) translate(9.104999999999999 63.15)"/><use xlink:href="#s" transform="matrix(1,0,0,1,8760.278356371986,2039.5030909437755) translate(62.055 63.15)"/><use xlink:href="#t" transform="matrix(1,0,0,1,8760.278356371986,2039.5030909437755) translate(140.905 63.15)"/><path d="M8840.28 1982.5v20.62" stroke="#fff" stroke-width="3" fill="none"/><path d="M8841.75 1982.54h-2.95V1981h2.95z" stroke="#fff" stroke-width=".05" fill="#fff"/><path d="M8840.28 2033.15l-9.27-28.53h18.55z" stroke="#fff" stroke-width="3" fill="#fff"/><path d="M8764.47 2224.33h-64.64l-.77.07-.7.16-.65.27-.6.37-.53.46-.46.54-.36.6-.27.66-.17.7-.06.76v20.9h-2.95v-21.02l.08-1.1.27-1.15.45-1.1.62-1 .76-.88.9-.76 1-.6 1.08-.45 1.14-.28 1.1-.1h64.77zm77.28-22.8h-2.95v-39.03h2.95z" stroke="#fff" stroke-width=".05" fill="#fff"/><path d="M8841.75 2162.54h-2.95V2161h2.95z" fill="#fff"/><path stroke="#fff" stroke-width=".05" fill="#fff"/><path d="M8693.77 2279.86l-9.27-28.53h18.54z" fill="#fff"/><path d="M8693.77 2284.64l-11.3-34.78h22.6zm-7.24-31.84l7.24 22.3 7.24-22.3z" stroke="#fff" stroke-width=".05" fill="#fff"/><use xlink:href="#u" transform="matrix(1,0,0,1,8764.470601846271,2201.5260416666715) translate(0 14.222222222222223)"/><use xlink:href="#v" transform="matrix(1,0,0,1,8764.470601846271,2201.5260416666715) translate(82.71604938271605 14.222222222222223)"/><use xlink:href="#w" transform="matrix(1,0,0,1,8764.470601846271,2201.5260416666715) translate(0 35.55555555555556)"/><path d="M8688.97 2287.82a8 8 0 0 1 9.6 0l91.44 68.58a4.5 4.5 0 0 1 0 7.2l-91.43 68.58a8 8 0 0 1-9.6 0l-91.44-68.58a4.5 4.5 0 0 1 0-7.2z" stroke="#fff" stroke-width="3" fill-opacity="0"/><use xlink:href="#x" transform="matrix(1,0,0,1,8597.72546986476,2289.21875000001) translate(29.12999999999999 76.525)"/><use xlink:href="#y" transform="matrix(1,0,0,1,8597.72546986476,2289.21875000001) translate(76.03 76.525)"/><path d="M8920 2300h160v120h-160z" stroke="#fff" stroke-width="3" fill-opacity="0"/><use xlink:href="#r" transform="matrix(1,0,0,1,8920,2300) translate(9.104999999999999 63.15)"/><use xlink:href="#s" transform="matrix(1,0,0,1,8920,2300) translate(62.055 63.15)"/><use xlink:href="#z" transform="matrix(1,0,0,1,8920,2300) translate(140.905 63.15)"/><path d="M8839.17 2361.47h-44.35v-2.94h44.35zm44.44 0h-10.95v-2.94h10.96z" stroke="#fff" stroke-width=".05" fill="#fff"/><path d="M8794.85 2361.47h-1.74l.1-.36.1-1.1-.1-1.1-.1-.38h1.75z" fill="#fff"/><path stroke="#fff" stroke-width=".05" fill="#fff"/><path d="M8913.65 2360l-28.54 9.27v-18.54z" fill="#fff"/><path d="M8918.42 2360l-34.78 11.3v-22.6zm-31.83 7.24l22.27-7.24-22.28-7.24z" stroke="#fff" stroke-width=".05" fill="#fff"/><use xlink:href="#A" transform="matrix(1,0,0,1,8839.166876136398,2349.3333333333367) translate(0 14.222222222222223)"/><path d="M8995.2 2563.6a8 8 0 0 1 9.6 0l91.44 68.58a4.5 4.5 0 0 1 0 7.2l-91.44 68.58a8 8 0 0 1-9.6 0l-91.44-68.58a4.5 4.5 0 0 1 0-7.2z" stroke="#fff" stroke-width="3" fill-opacity="0"/><use xlink:href="#x" transform="matrix(1,0,0,1,8903.958333333343,2565) translate(29.12999999999999 76.525)"/><use xlink:href="#y" transform="matrix(1,0,0,1,8903.958333333343,2565) translate(76.03 76.525)"/><path d="M9001.48 2525.6h-2.95v-38.24h2.94zm0-59.58h-2.95V2423h2.94z" stroke="#fff" stroke-width=".05" fill="#fff"/><path d="M9001.48 2423.04h-2.95v-1.54h2.94z" fill="#fff"/><path stroke="#fff" stroke-width=".05" fill="#fff"/><path d="M9000 2555.64l-9.27-28.53h18.54z" fill="#fff"/><path d="M9000 2560.42l-11.3-34.78h22.6zm-7.24-31.83l7.24 22.27 7.24-22.28z" stroke="#fff" stroke-width=".05" fill="#fff"/><use xlink:href="#u" transform="matrix(1,0,0,1,8921.703703703704,2466.0222745398387) translate(0 14.222222222222223)"/><use xlink:href="#B" transform="matrix(1,0,0,1,8921.703703703704,2466.0222745398387) translate(82.71604938271605 14.222222222222223)"/><use xlink:href="#w" transform="matrix(1,0,0,1,8921.703703703704,2466.0222745398387) translate(97.53086419753086 14.222222222222223)"/><path d="M8920 2820h160v120h-160z" stroke="#fff" stroke-width="3" fill-opacity="0"/><use xlink:href="#r" transform="matrix(1,0,0,1,8920,2820) translate(27.055 40.65)"/><use xlink:href="#C" transform="matrix(1,0,0,1,8920,2820) translate(80.005 40.65)"/><use xlink:href="#D" transform="matrix(1,0,0,1,8920,2820) translate(122.955 40.65)"/><use xlink:href="#E" transform="matrix(1,0,0,1,8920,2820) translate(41.555 62.25)"/><use xlink:href="#F" transform="matrix(1,0,0,1,8920,2820) translate(93.455 62.25)"/><use xlink:href="#G" transform="matrix(1,0,0,1,8920,2820) translate(108.455 62.25)"/><use xlink:href="#H" transform="matrix(1,0,0,1,8920,2820) translate(5.229999999999984 83.85000000000001)"/><use xlink:href="#I" transform="matrix(1,0,0,1,8920,2820) translate(80.08 83.85000000000001)"/><use xlink:href="#J" transform="matrix(1,0,0,1,8920,2820) translate(96.03 83.85000000000001)"/><path d="M9001.48 2783.6h-2.95v-8.15h2.94zm0-29.48h-2.95v-41.55h2.94z" stroke="#fff" stroke-width=".05" fill="#fff"/><path d="M8998.78 2711l1.22.07 1.22-.08.26-.06v1.66h-2.95v-1.66z" fill="#fff"/><path stroke="#fff" stroke-width=".05" fill="#fff"/><path d="M9000 2813.65l-9.27-28.54h18.54z" fill="#fff"/><path d="M9000 2818.42l-11.3-34.78h22.6zm-7.24-31.83l7.24 22.27 7.24-22.28z" stroke="#fff" stroke-width=".05" fill="#fff"/><g><use xlink:href="#A" transform="matrix(1,0,0,1,8983.25925925926,2754.116128783739) translate(0 14.222222222222223)"/></g><path d="M8613.77 2575.78h160v120h-160z" stroke="#fff" stroke-width="3" fill-opacity="0"/><g><use xlink:href="#r" transform="matrix(1,0,0,1,8613.767136531416,2575.781249999993) translate(27.055 51.9)"/><use xlink:href="#C" transform="matrix(1,0,0,1,8613.767136531416,2575.781249999993) translate(80.005 51.9)"/><use xlink:href="#D" transform="matrix(1,0,0,1,8613.767136531416,2575.781249999993) translate(122.955 51.9)"/><use xlink:href="#E" transform="matrix(1,0,0,1,8613.767136531416,2575.781249999993) translate(49.055 73.5)"/><use xlink:href="#K" transform="matrix(1,0,0,1,8613.767136531416,2575.781249999993) translate(100.955 73.5)"/></g><path d="M8695.24 2539.4h-2.95v-23.95h2.94zm0-45.28h-2.95v-57.34h2.94z" stroke="#fff" stroke-width=".05" fill="#fff"/><path d="M8692.55 2435.2l1.22.08 1.22-.07.24-.04v1.66h-2.95v-1.66z" fill="#fff"/><path stroke="#fff" stroke-width=".05" fill="#fff"/><path d="M8693.77 2569.43l-9.27-28.53h18.54z" fill="#fff"/><path d="M8693.77 2574.2l-11.3-34.78h22.6zm-7.24-31.83l7.24 22.28 7.24-22.28z" stroke="#fff" stroke-width=".05" fill="#fff"/><g><use xlink:href="#L" transform="matrix(1,0,0,1,8677.47084023512,2494.116128783741) translate(0 14.222222222222223)"/></g><path d="M8821.56 2637.26h-11.4v-2.95h11.4zm77.4 0h-44.8v-2.95h44.8z" stroke="#fff" stroke-width=".05" fill="#fff"/><path d="M8900.56 2634.67l-.1 1.1.1 1.12.1.36h-1.75v-2.95h1.76z" fill="#fff"/><path stroke="#fff" stroke-width=".05" fill="#fff"/><path d="M8808.65 2645.05l-28.53-9.27 28.53-9.27z" fill="#fff"/><path d="M8810.13 2647.08l-34.78-11.3 34.78-11.3zm-25.24-11.3l22.28 7.24v-14.48z" stroke="#fff" stroke-width=".05" fill="#fff"/><g><use xlink:href="#L" transform="matrix(1,0,0,1,8821.563223191326,2625.1145833333267) translate(0 14.222222222222223)"/></g><path d="M8840.28 1779.1v44.02" stroke="#fff" stroke-width="3" fill="none"/><path d="M8841.75 1779.13h-2.95v-1.54h2.95z" stroke="#fff" stroke-width=".05" fill="#fff"/><path d="M8840.28 1853.15l-9.27-28.53h18.55z" stroke="#fff" stroke-width="3" fill="#fff"/><path d="M8693.77 2698.78v84.83" stroke="#fff" stroke-width="3" fill="none"/><path d="M8695.24 2698.82h-2.95v-1.54h2.94z" stroke="#fff" stroke-width=".05" fill="#fff"/><path d="M8693.77 2813.65l-9.27-28.54h18.54z" stroke="#fff" stroke-width="3" fill="#fff"/><path d="M8613.77 2820h160v120h-160z" stroke="#fff" stroke-width="3" fill-opacity="0"/><g><use xlink:href="#M" transform="matrix(1,0,0,1,8613.767136531416,2820) translate(7.25499999999999 40.65)"/><use xlink:href="#N" transform="matrix(1,0,0,1,8613.767136531416,2820) translate(78.055 40.65)"/><use xlink:href="#O" transform="matrix(1,0,0,1,8613.767136531416,2820) translate(94.00500000000001 40.65)"/><use xlink:href="#P" transform="matrix(1,0,0,1,8613.767136531416,2820) translate(10.579999999999993 62.25)"/><use xlink:href="#o" transform="matrix(1,0,0,1,8613.767136531416,2820) translate(64.47999999999999 62.25)"/><use xlink:href="#Q" transform="matrix(1,0,0,1,8613.767136531416,2820) translate(79.47999999999999 62.25)"/><use xlink:href="#R" transform="matrix(1,0,0,1,8613.767136531416,2820) translate(31.154999999999987 83.85000000000001)"/></g><defs><path fill="#fff" d="M30 0v-248h187v28H63v79h144v27H63v87h162V0H30" id="S"/><path fill="#fff" d="M127-220V0H93v-220H8v-28h204v28h-85" id="T"/><path fill="#fff" d="M205 0l-28-72H64L36 0H1l101-248h38L239 0h-34zm-38-99l-47-123c-12 45-31 82-46 123h93" id="U"/><path fill="#fff" d="M30-248c87 1 191-15 191 75 0 78-77 80-158 76V0H30v-248zm33 125c57 0 124 11 124-50 0-59-68-47-124-48v98" id="V"/><g id="a"><use transform="matrix(0.05,0,0,0.05,0,0)" xlink:href="#S"/><use transform="matrix(0.05,0,0,0.05,12,0)" xlink:href="#T"/><use transform="matrix(0.05,0,0,0.05,21.6,0)" xlink:href="#U"/><use transform="matrix(0.05,0,0,0.05,33.6,0)" xlink:href="#V"/><use transform="matrix(0.05,0,0,0.05,44.25,0)" xlink:href="#U"/></g><path fill="#fff" d="M126-127c33 6 58 20 58 59 0 88-139 92-164 29-3-8-5-16-6-25l32-3c6 27 21 44 54 44 32 0 52-15 52-46 0-38-36-46-79-43v-28c39 1 72-4 72-42 0-27-17-43-46-43-28 0-47 15-49 41l-32-3c6-42 35-63 81-64 48-1 79 21 79 65 0 36-21 52-52 59" id="W"/><use transform="matrix(0.05,0,0,0.05,0,0)" xlink:href="#W" id="b"/><path fill="#fff" d="M16-82v-28h88v28H16" id="X"/><use transform="matrix(0.05,0,0,0.05,0,0)" xlink:href="#X" id="c"/><path fill="#fff" d="M233-177c-1 41-23 64-60 70L243 0h-38l-65-103H63V0H30v-248c88 3 205-21 203 71zM63-129c60-2 137 13 137-47 0-61-80-42-137-45v92" id="Y"/><path fill="#fff" d="M100-194c63 0 86 42 84 106H49c0 40 14 67 53 68 26 1 43-12 49-29l28 8c-11 28-37 45-77 45C44 4 14-33 15-96c1-61 26-98 85-98zm52 81c6-60-76-77-97-28-3 7-6 17-6 28h103" id="Z"/><path fill="#fff" d="M135-143c-3-34-86-38-87 0 15 53 115 12 119 90S17 21 10-45l28-5c4 36 97 45 98 0-10-56-113-15-118-90-4-57 82-63 122-42 12 7 21 19 24 35" id="aa"/><path fill="#fff" d="M114-163C36-179 61-72 57 0H25l-1-190h30c1 12-1 29 2 39 6-27 23-49 58-41v29" id="ab"/><path fill="#fff" d="M108 0H70L1-190h34L89-25l56-165h34" id="ac"/><path fill="#fff" d="M141-36C126-15 110 5 73 4 37 3 15-17 15-53c-1-64 63-63 125-63 3-35-9-54-41-54-24 1-41 7-42 31l-33-3c5-37 33-52 76-52 45 0 72 20 72 64v82c-1 20 7 32 28 27v20c-31 9-61-2-59-35zM48-53c0 20 12 33 32 33 41-3 63-29 60-74-43 2-92-5-92 41" id="ad"/><g id="d"><use transform="matrix(0.05,0,0,0.05,0,0)" xlink:href="#Y"/><use transform="matrix(0.05,0,0,0.05,12.950000000000001,0)" xlink:href="#Z"/><use transform="matrix(0.05,0,0,0.05,22.950000000000003,0)" xlink:href="#aa"/><use transform="matrix(0.05,0,0,0.05,31.950000000000003,0)" xlink:href="#Z"/><use transform="matrix(0.05,0,0,0.05,41.95,0)" xlink:href="#ab"/><use transform="matrix(0.05,0,0,0.05,47.900000000000006,0)" xlink:href="#ac"/><use transform="matrix(0.05,0,0,0.05,56.900000000000006,0)" xlink:href="#ad"/></g><path fill="#fff" d="M240-174c0 40-23 61-54 70L253 0h-59l-57-94H76V0H24v-248c93 4 217-23 216 74zM76-134c48-2 112 12 112-38 0-48-66-32-112-35v73" id="ae"/><path fill="#fff" d="M185-48c-13 30-37 53-82 52C43 2 14-33 14-96s30-98 90-98c62 0 83 45 84 108H66c0 31 8 55 39 56 18 0 30-7 34-22zm-45-69c5-46-57-63-70-21-2 6-4 13-4 21h74" id="af"/><path fill="#fff" d="M190-63c-7 42-38 67-86 67-59 0-84-38-90-98-12-110 154-137 174-36l-49 2c-2-19-15-32-35-32-30 0-35 28-38 64-6 74 65 87 74 30" id="ag"/><path fill="#fff" d="M135-194c52 0 70 43 70 98 0 56-19 99-73 100-30 1-46-15-58-35L72 0H24l1-261h50v104c11-23 29-37 60-37zM114-30c31 0 40-27 40-66 0-37-7-63-39-63s-41 28-41 65c0 36 8 64 40 64" id="ah"/><g id="e"><use transform="matrix(0.05,0,0,0.05,0,0)" xlink:href="#ae"/><use transform="matrix(0.05,0,0,0.05,12.950000000000001,0)" xlink:href="#af"/><use transform="matrix(0.05,0,0,0.05,22.950000000000003,0)" xlink:href="#ag"/><use transform="matrix(0.05,0,0,0.05,32.95,0)" xlink:href="#af"/><use transform="matrix(0.05,0,0,0.05,42.95,0)" xlink:href="#ah"/><use transform="matrix(0.05,0,0,0.05,53.900000000000006,0)" xlink:href="#af"/></g><path fill="#fff" d="M133-34C117-15 103 5 69 4 32 3 11-16 11-54c-1-60 55-63 116-61 1-26-3-47-28-47-18 1-26 9-28 27l-52-2c7-38 36-58 82-57s74 22 75 68l1 82c-1 14 12 18 25 15v27c-30 8-71 5-69-32zm-48 3c29 0 43-24 42-57-32 0-66-3-65 30 0 17 8 27 23 27" id="ai"/><use transform="matrix(0.05,0,0,0.05,0,0)" xlink:href="#ai" id="f"/><path fill="#fff" d="M121-226c-27-7-43 5-38 36h38v33H83V0H34v-157H6v-33h28c-9-59 32-81 87-68v32" id="aj"/><path fill="#fff" d="M25-224v-37h50v37H25zM25 0v-190h50V0H25" id="ak"/><path fill="#fff" d="M114-157C55-157 80-60 75 0H25v-261h50l-1 109c12-26 28-41 61-42 86-1 58 113 63 194h-50c-7-57 23-157-34-157" id="al"/><g id="g"><use transform="matrix(0.05,0,0,0.05,0,0)" xlink:href="#aj"/><use transform="matrix(0.05,0,0,0.05,5.95,0)" xlink:href="#ak"/><use transform="matrix(0.05,0,0,0.05,10.95,0)" xlink:href="#ag"/><use transform="matrix(0.05,0,0,0.05,20.95,0)" xlink:href="#al"/><use transform="matrix(0.05,0,0,0.05,31.899999999999995,0)" xlink:href="#ai"/></g><path fill="#fff" d="M88-194c31-1 46 15 58 34l-1-101h50l1 261h-48c-2-10 0-23-3-31C134-8 116 4 84 4 32 4 16-41 15-95c0-56 19-97 73-99zm17 164c33 0 40-30 41-66 1-37-9-64-41-64s-38 30-39 65c0 43 13 65 39 65" id="am"/><g id="h"><use transform="matrix(0.05,0,0,0.05,0,0)" xlink:href="#am"/><use transform="matrix(0.05,0,0,0.05,10.950000000000001,0)" xlink:href="#af"/></g><path fill="#fff" d="M135-194c87-1 58 113 63 194h-50c-7-57 23-157-34-157-59 0-34 97-39 157H25l-1-190h47c2 12-1 28 3 38 12-26 28-41 61-42" id="an"/><path fill="#fff" d="M132-34C116-15 102 5 68 4 31 3 10-16 10-54c-1-60 55-63 116-61 1-26-3-47-28-47-18 1-26 9-28 27l-52-2c7-38 36-58 82-57s74 22 75 68l1 82c-1 14 12 18 25 15v27c-30 8-71 5-69-32zm-48 3c29 0 43-24 42-57-32 0-66-3-65 30 0 17 8 27 23 27zM66-208v-5l45-51h45v8l-60 48H66" id="ao"/><path fill="#fff" d="M25 0v-261h50V0H25" id="ap"/><path fill="#fff" d="M137-138c1-29-70-34-71-4 15 46 118 7 119 86 1 83-164 76-172 9l43-7c4 19 20 25 44 25 33 8 57-30 24-41C81-84 22-81 20-136c-2-80 154-74 161-7" id="aq"/><g id="i"><use transform="matrix(0.05,0,0,0.05,0,0)" xlink:href="#ai"/><use transform="matrix(0.05,0,0,0.05,10,0)" xlink:href="#an"/><use transform="matrix(0.05,0,0,0.05,20.950000000000003,0)" xlink:href="#ao"/><use transform="matrix(0.05,0,0,0.05,30.950000000000003,0)" xlink:href="#ap"/><use transform="matrix(0.05,0,0,0.05,35.95,0)" xlink:href="#ak"/><use transform="matrix(0.05,0,0,0.05,40.95,0)" xlink:href="#aq"/><use transform="matrix(0.05,0,0,0.05,50.95,0)" xlink:href="#af"/></g><path fill="#fff" d="M110-194c64 0 96 36 96 99 0 64-35 99-97 99-61 0-95-36-95-99 0-62 34-99 96-99zm-1 164c35 0 45-28 45-65 0-40-10-65-43-65-34 0-45 26-45 65 0 36 10 65 43 65" id="ar"/><g id="j"><use transform="matrix(0.05,0,0,0.05,0,0)" xlink:href="#am"/><use transform="matrix(0.05,0,0,0.05,10.950000000000001,0)" xlink:href="#ar"/></g><g id="k"><use transform="matrix(0.05,0,0,0.05,0,0)" xlink:href="#ap"/><use transform="matrix(0.05,0,0,0.05,5,0)" xlink:href="#af"/><use transform="matrix(0.05,0,0,0.05,15,0)" xlink:href="#ai"/><use transform="matrix(0.05,0,0,0.05,25,0)" xlink:href="#am"/></g><path fill="#fff" d="M67-125c0 53 21 87 73 88 37 1 54-22 65-47l45 17C233-25 199 4 140 4 58 4 20-42 15-125 8-235 124-281 211-232c18 10 29 29 36 50l-46 12c-8-25-30-41-62-41-52 0-71 34-72 86" id="as"/><path fill="#fff" d="M85 4C-2 5 27-109 22-190h50c7 57-23 150 33 157 60-5 35-97 40-157h50l1 190h-47c-2-12 1-28-3-38-12 25-28 42-61 42" id="at"/><path fill="#fff" d="M115-3C79 11 28 4 28-45v-112H4v-33h27l15-45h31v45h36v33H77v99c-1 23 16 31 38 25v30" id="au"/><g id="l"><use transform="matrix(0.05,0,0,0.05,0,0)" xlink:href="#as"/><use transform="matrix(0.05,0,0,0.05,12.950000000000001,0)" xlink:href="#ar"/><use transform="matrix(0.05,0,0,0.05,23.900000000000002,0)" xlink:href="#an"/><use transform="matrix(0.05,0,0,0.05,34.85,0)" xlink:href="#aq"/><use transform="matrix(0.05,0,0,0.05,44.85,0)" xlink:href="#at"/><use transform="matrix(0.05,0,0,0.05,55.800000000000004,0)" xlink:href="#ap"/><use transform="matrix(0.05,0,0,0.05,60.800000000000004,0)" xlink:href="#au"/><use transform="matrix(0.05,0,0,0.05,66.75,0)" xlink:href="#ai"/></g><path fill="#fff" d="M195-6C206 82 75 100 31 46c-4-6-6-13-8-21l49-6c3 16 16 24 34 25 40 0 42-37 40-79-11 22-30 35-61 35-53 0-70-43-70-97 0-56 18-96 73-97 30 0 46 14 59 34l2-30h47zm-90-29c32 0 41-27 41-63 0-35-9-62-40-62-32 0-39 29-40 63 0 36 9 62 39 62" id="av"/><g id="m"><use transform="matrix(0.05,0,0,0.05,0,0)" xlink:href="#ai"/><use transform="matrix(0.05,0,0,0.05,10,0)" xlink:href="#av"/><use transform="matrix(0.05,0,0,0.05,20.950000000000003,0)" xlink:href="#af"/><use transform="matrix(0.05,0,0,0.05,30.950000000000003,0)" xlink:href="#an"/><use transform="matrix(0.05,0,0,0.05,41.900000000000006,0)" xlink:href="#am"/><use transform="matrix(0.05,0,0,0.05,52.85,0)" xlink:href="#ai"/></g><g id="n"><use transform="matrix(0.05,0,0,0.05,0,0)" xlink:href="#at"/><use transform="matrix(0.05,0,0,0.05,10.950000000000001,0)" xlink:href="#aq"/><use transform="matrix(0.05,0,0,0.05,20.950000000000003,0)" xlink:href="#ai"/><use transform="matrix(0.05,0,0,0.05,30.950000000000003,0)" xlink:href="#an"/><use transform="matrix(0.05,0,0,0.05,41.900000000000006,0)" xlink:href="#am"/><use transform="matrix(0.05,0,0,0.05,52.85,0)" xlink:href="#ar"/></g><use transform="matrix(0.05,0,0,0.05,0,0)" xlink:href="#ai" id="o"/><g id="p"><use transform="matrix(0.05,0,0,0.05,0,0)" xlink:href="#au"/><use transform="matrix(0.05,0,0,0.05,5.95,0)" xlink:href="#ar"/><use transform="matrix(0.05,0,0,0.05,16.900000000000002,0)" xlink:href="#ar"/><use transform="matrix(0.05,0,0,0.05,27.85,0)" xlink:href="#ap"/></g><path fill="#fff" d="M142-158h-39l-4-90h48zm-75 0H28l-4-90h48" id="aw"/><path fill="#fff" d="M-4 44V30h207v14H-4" id="ax"/><g id="q"><use transform="matrix(0.05,0,0,0.05,0,0)" xlink:href="#aw"/><use transform="matrix(0.05,0,0,0.05,8.5,0)" xlink:href="#av"/><use transform="matrix(0.05,0,0,0.05,19.450000000000003,0)" xlink:href="#af"/><use transform="matrix(0.05,0,0,0.05,29.450000000000003,0)" xlink:href="#au"/><use transform="matrix(0.05,0,0,0.05,35.400000000000006,0)" xlink:href="#ax"/><use transform="matrix(0.05,0,0,0.05,45.400000000000006,0)" xlink:href="#aq"/><use transform="matrix(0.05,0,0,0.05,55.400000000000006,0)" xlink:href="#ap"/><use transform="matrix(0.05,0,0,0.05,60.400000000000006,0)" xlink:href="#ar"/><use transform="matrix(0.05,0,0,0.05,71.35000000000001,0)" xlink:href="#au"/><use transform="matrix(0.05,0,0,0.05,77.30000000000001,0)" xlink:href="#aq"/><use transform="matrix(0.05,0,0,0.05,87.30000000000001,0)" xlink:href="#aw"/></g><path fill="#fff" d="M24 0v-248h195v40H76v63h132v40H76v65h150V0H24" id="ay"/><path fill="#fff" d="M128 0H69L1-190h53L99-40l48-150h52" id="az"/><g id="r"><use transform="matrix(0.05,0,0,0.05,0,0)" xlink:href="#ay"/><use transform="matrix(0.05,0,0,0.05,12,0)" xlink:href="#an"/><use transform="matrix(0.05,0,0,0.05,22.950000000000003,0)" xlink:href="#az"/><use transform="matrix(0.05,0,0,0.05,32.95,0)" xlink:href="#ak"/><use transform="matrix(0.05,0,0,0.05,37.95,0)" xlink:href="#ai"/></g><path fill="#fff" d="M220-157c-53 9-28 100-34 157h-49v-107c1-27-5-49-29-50C55-147 81-57 75 0H25l-1-190h47c2 12-1 28 3 38 10-53 101-56 108 0 13-22 24-43 59-42 82 1 51 116 57 194h-49v-107c-1-25-5-48-29-50" id="aA"/><path fill="#fff" d="M135-194c53 0 70 44 70 98 0 56-19 98-73 100-31 1-45-17-59-34 3 33 2 69 2 105H25l-1-265h48c2 10 0 23 3 31 11-24 29-35 60-35zM114-30c33 0 39-31 40-66 0-38-9-64-40-64-56 0-55 130 0 130" id="aB"/><g id="s"><use transform="matrix(0.05,0,0,0.05,0,0)" xlink:href="#au"/><use transform="matrix(0.05,0,0,0.05,5.95,0)" xlink:href="#af"/><use transform="matrix(0.05,0,0,0.05,15.949999999999998,0)" xlink:href="#aA"/><use transform="matrix(0.05,0,0,0.05,31.950000000000003,0)" xlink:href="#aB"/><use transform="matrix(0.05,0,0,0.05,42.9,0)" xlink:href="#ap"/><use transform="matrix(0.05,0,0,0.05,47.9,0)" xlink:href="#ai"/><use transform="matrix(0.05,0,0,0.05,57.900000000000006,0)" xlink:href="#au"/><use transform="matrix(0.05,0,0,0.05,63.85,0)" xlink:href="#af"/></g><path fill="#fff" d="M23 0v-37h61v-169l-59 37v-38l62-41h46v211h57V0H23" id="aC"/><use transform="matrix(0.05,0,0,0.05,0,0)" xlink:href="#aC" id="t"/><path fill="#fff" d="M199 0l-22-63H83L61 0H9l90-248h61L250 0h-51zm-33-102l-36-108c-10 38-24 72-36 108h72" id="aD"/><path fill="#fff" d="M135-150c-39-12-60 13-60 57V0H25l-1-190h47c2 13-1 29 3 40 6-28 27-53 61-41v41" id="aE"/><path fill="#fff" d="M35-132v-50h50v50H35zM35 0v-49h50V0H35" id="aF"/><g id="u"><use transform="matrix(0.04938271604938272,0,0,0.04938271604938272,0,0)" xlink:href="#aD"/><use transform="matrix(0.04938271604938272,0,0,0.04938271604938272,12.790123456790125,0)" xlink:href="#av"/><use transform="matrix(0.04938271604938272,0,0,0.04938271604938272,23.60493827160494,0)" xlink:href="#at"/><use transform="matrix(0.04938271604938272,0,0,0.04938271604938272,34.41975308641975,0)" xlink:href="#ai"/><use transform="matrix(0.04938271604938272,0,0,0.04938271604938272,44.2962962962963,0)" xlink:href="#aE"/><use transform="matrix(0.04938271604938272,0,0,0.04938271604938272,51.20987654320988,0)" xlink:href="#am"/><use transform="matrix(0.04938271604938272,0,0,0.04938271604938272,62.0246913580247,0)" xlink:href="#ai"/><use transform="matrix(0.04938271604938272,0,0,0.04938271604938272,71.90123456790124,0)" xlink:href="#aF"/></g><use transform="matrix(0.04938271604938272,0,0,0.04938271604938272,0,0)" xlink:href="#aC" id="v"/><g id="w"><use transform="matrix(0.04938271604938272,0,0,0.04938271604938272,0,0)" xlink:href="#aA"/><use transform="matrix(0.04938271604938272,0,0,0.04938271604938272,15.80246913580247,0)" xlink:href="#ak"/><use transform="matrix(0.04938271604938272,0,0,0.04938271604938272,20.74074074074074,0)" xlink:href="#an"/><use transform="matrix(0.04938271604938272,0,0,0.04938271604938272,31.555555555555557,0)" xlink:href="#at"/><use transform="matrix(0.04938271604938272,0,0,0.04938271604938272,42.370370370370374,0)" xlink:href="#au"/><use transform="matrix(0.04938271604938272,0,0,0.04938271604938272,48.24691358024692,0)" xlink:href="#ar"/></g><path fill="#fff" d="M24 0v-248h52v208h133V0H24" id="aG"/><g id="x"><use transform="matrix(0.05,0,0,0.05,0,0)" xlink:href="#aG"/><use transform="matrix(0.05,0,0,0.05,10.950000000000001,0)" xlink:href="#af"/><use transform="matrix(0.05,0,0,0.05,20.950000000000003,0)" xlink:href="#ai"/><use transform="matrix(0.05,0,0,0.05,30.950000000000003,0)" xlink:href="#am"/></g><path fill="#fff" d="M110-251c83-7 118 89 53 130-17 10-36 21-38 46H78c2-56 65-53 71-103 2-21-15-35-38-34-25 1-41 14-44 38l-50-2c6-48 39-70 93-75zM77 0v-47h51V0H77" id="aH"/><g id="y"><use transform="matrix(0.05,0,0,0.05,0,0)" xlink:href="#aE"/><use transform="matrix(0.05,0,0,0.05,7,0)" xlink:href="#af"/><use transform="matrix(0.05,0,0,0.05,17,0)" xlink:href="#aq"/><use transform="matrix(0.05,0,0,0.05,27,0)" xlink:href="#af"/><use transform="matrix(0.05,0,0,0.05,37,0)" xlink:href="#aE"/><use transform="matrix(0.05,0,0,0.05,44,0)" xlink:href="#az"/><use transform="matrix(0.05,0,0,0.05,54,0)" xlink:href="#ar"/><use transform="matrix(0.05,0,0,0.05,64.95,0)" xlink:href="#at"/><use transform="matrix(0.05,0,0,0.05,75.9,0)" xlink:href="#aH"/></g><path fill="#fff" d="M182-182c0 78-84 86-111 141h115V0H12c-6-101 99-100 120-180 1-22-12-31-33-32-23 0-32 14-35 34l-49-3c5-45 32-70 84-70 51 0 83 22 83 69" id="aI"/><use transform="matrix(0.05,0,0,0.05,0,0)" xlink:href="#aI" id="z"/><path fill="#fff" d="M175 0L67-191c6 58 2 128 3 191H24v-248h59L193-55c-6-58-2-129-3-193h46V0h-61" id="aJ"/><path fill="#fff" d="M132-34C116-15 102 5 68 4 31 3 10-16 10-54c-1-60 55-63 116-61 1-26-3-47-28-47-18 1-26 9-28 27l-52-2c7-38 36-58 82-57s74 22 75 68l1 82c-1 14 12 18 25 15v27c-30 8-71 5-69-32zm-48 3c29 0 43-24 42-57-32 0-66-3-65 30 0 17 8 27 23 27zm82-228c-2 27-9 52-40 51-27-1-66-46-73 0H29c0-29 9-51 39-51 28 0 66 44 74 0h24" id="aK"/><g id="A"><use transform="matrix(0.04938271604938272,0,0,0.04938271604938272,0,0)" xlink:href="#aJ"/><use transform="matrix(0.04938271604938272,0,0,0.04938271604938272,12.790123456790125,0)" xlink:href="#aK"/><use transform="matrix(0.04938271604938272,0,0,0.04938271604938272,22.66666666666667,0)" xlink:href="#ar"/></g><use transform="matrix(0.04938271604938272,0,0,0.04938271604938272,0,0)" xlink:href="#aC" id="B"/><g id="C"><use transform="matrix(0.05,0,0,0.05,0,0)" xlink:href="#aB"/><use transform="matrix(0.05,0,0,0.05,10.950000000000001,0)" xlink:href="#ai"/><use transform="matrix(0.05,0,0,0.05,20.950000000000003,0)" xlink:href="#aE"/><use transform="matrix(0.05,0,0,0.05,27.950000000000003,0)" xlink:href="#ai"/></g><use transform="matrix(0.05,0,0,0.05,0,0)" xlink:href="#ai" id="D"/><g id="E"><use transform="matrix(0.05,0,0,0.05,0,0)" xlink:href="#af"/><use transform="matrix(0.05,0,0,0.05,10,0)" xlink:href="#au"/><use transform="matrix(0.05,0,0,0.05,15.949999999999998,0)" xlink:href="#ai"/><use transform="matrix(0.05,0,0,0.05,25.950000000000003,0)" xlink:href="#aB"/><use transform="matrix(0.05,0,0,0.05,36.9,0)" xlink:href="#ai"/></g><path fill="#fff" d="M165-50V0h-47v-50H5v-38l105-160h55v161h33v37h-33zm-47-37l2-116L46-87h72" id="aL"/><use transform="matrix(0.05,0,0,0.05,0,0)" xlink:href="#aL" id="F"/><use transform="matrix(0.05,0,0,0.05,0,0)" xlink:href="#af" id="G"/><g id="H"><use transform="matrix(0.05,0,0,0.05,0,0)" xlink:href="#ai"/><use transform="matrix(0.05,0,0,0.05,10,0)" xlink:href="#av"/><use transform="matrix(0.05,0,0,0.05,20.950000000000003,0)" xlink:href="#at"/><use transform="matrix(0.05,0,0,0.05,31.900000000000006,0)" xlink:href="#ai"/><use transform="matrix(0.05,0,0,0.05,41.900000000000006,0)" xlink:href="#aE"/><use transform="matrix(0.05,0,0,0.05,48.900000000000006,0)" xlink:href="#am"/><use transform="matrix(0.05,0,0,0.05,59.85,0)" xlink:href="#ai"/></g><use transform="matrix(0.05,0,0,0.05,0,0)" xlink:href="#ar" id="I"/><path fill="#fff" d="M24-248c120-7 223 5 221 122C244-46 201 0 124 0H24v-248zM76-40c74 7 117-18 117-86 0-67-45-88-117-82v168" id="aM"/><g id="J"><use transform="matrix(0.05,0,0,0.05,0,0)" xlink:href="#aM"/><use transform="matrix(0.05,0,0,0.05,12.950000000000001,0)" xlink:href="#ar"/><use transform="matrix(0.05,0,0,0.05,23.900000000000002,0)" xlink:href="#at"/><use transform="matrix(0.05,0,0,0.05,34.85,0)" xlink:href="#au"/><use transform="matrix(0.05,0,0,0.05,40.800000000000004,0)" xlink:href="#ar"/><use transform="matrix(0.05,0,0,0.05,51.75,0)" xlink:href="#aE"/></g><use transform="matrix(0.05,0,0,0.05,0,0)" xlink:href="#aL" id="K"/><path fill="#fff" d="M169-182c-1-43-94-46-97-3 18 66 151 10 154 114 3 95-165 93-204 36-6-8-10-19-12-30l50-8c3 46 112 56 116 5-17-69-150-10-154-114-4-87 153-88 188-35 5 8 8 18 10 28" id="aN"/><g id="L"><use transform="matrix(0.04938271604938272,0,0,0.04938271604938272,0,0)" xlink:href="#aN"/><use transform="matrix(0.04938271604938272,0,0,0.04938271604938272,11.851851851851853,0)" xlink:href="#ak"/><use transform="matrix(0.04938271604938272,0,0,0.04938271604938272,16.790123456790127,0)" xlink:href="#aA"/></g><g id="M"><use transform="matrix(0.05,0,0,0.05,0,0)" xlink:href="#aJ"/><use transform="matrix(0.05,0,0,0.05,12.950000000000001,0)" xlink:href="#ar"/><use transform="matrix(0.05,0,0,0.05,23.900000000000002,0)" xlink:href="#au"/><use transform="matrix(0.05,0,0,0.05,29.85,0)" xlink:href="#ak"/><use transform="matrix(0.05,0,0,0.05,34.85,0)" xlink:href="#aj"/><use transform="matrix(0.05,0,0,0.05,40.800000000000004,0)" xlink:href="#ak"/><use transform="matrix(0.05,0,0,0.05,45.800000000000004,0)" xlink:href="#ag"/><use transform="matrix(0.05,0,0,0.05,55.800000000000004,0)" xlink:href="#ai"/></g><use transform="matrix(0.05,0,0,0.05,0,0)" xlink:href="#ar" id="N"/><g id="O"><use transform="matrix(0.05,0,0,0.05,0,0)" xlink:href="#aM"/><use transform="matrix(0.05,0,0,0.05,12.950000000000001,0)" xlink:href="#ar"/><use transform="matrix(0.05,0,0,0.05,23.900000000000002,0)" xlink:href="#at"/><use transform="matrix(0.05,0,0,0.05,34.85,0)" xlink:href="#au"/><use transform="matrix(0.05,0,0,0.05,40.800000000000004,0)" xlink:href="#ar"/><use transform="matrix(0.05,0,0,0.05,51.75,0)" xlink:href="#aE"/></g><g id="P"><use transform="matrix(0.05,0,0,0.05,0,0)" xlink:href="#aq"/><use transform="matrix(0.05,0,0,0.05,10,0)" xlink:href="#ar"/><use transform="matrix(0.05,0,0,0.05,20.950000000000003,0)" xlink:href="#ah"/><use transform="matrix(0.05,0,0,0.05,31.900000000000006,0)" xlink:href="#aE"/><use transform="matrix(0.05,0,0,0.05,38.900000000000006,0)" xlink:href="#af"/></g><g id="Q"><use transform="matrix(0.05,0,0,0.05,0,0)" xlink:href="#ae"/><use transform="matrix(0.05,0,0,0.05,12.950000000000001,0)" xlink:href="#af"/><use transform="matrix(0.05,0,0,0.05,22.950000000000003,0)" xlink:href="#aq"/><use transform="matrix(0.05,0,0,0.05,32.95,0)" xlink:href="#af"/><use transform="matrix(0.05,0,0,0.05,42.95,0)" xlink:href="#aE"/><use transform="matrix(0.05,0,0,0.05,49.95,0)" xlink:href="#az"/><use transform="matrix(0.05,0,0,0.05,59.95,0)" xlink:href="#ai"/></g><path fill="#fff" d="M76-208v77h127v40H76V0H24v-248h183v40H76" id="aO"/><path fill="#fff" d="M136-208V0H84v-208H4v-40h212v40h-80" id="aP"/><path fill="#fff" d="M238-95c0 69-44 99-111 99C63 4 22-25 22-93v-155h51v151c-1 38 19 59 55 60 90 1 49-130 58-211h52v153" id="aQ"/><g id="R"><use transform="matrix(0.05,0,0,0.05,0,0)" xlink:href="#ay"/><use transform="matrix(0.05,0,0,0.05,12,0)" xlink:href="#aO"/><use transform="matrix(0.05,0,0,0.05,22.950000000000003,0)" xlink:href="#ay"/><use transform="matrix(0.05,0,0,0.05,34.95,0)" xlink:href="#aP"/><use transform="matrix(0.05,0,0,0.05,45.900000000000006,0)" xlink:href="#aQ"/><use transform="matrix(0.05,0,0,0.05,58.85,0)" xlink:href="#aD"/><use transform="matrix(0.05,0,0,0.05,71.80000000000001,0)" xlink:href="#aM"/><use transform="matrix(0.05,0,0,0.05,84.75000000000001,0)" xlink:href="#aD"/></g></defs></g></svg>