<svg xmlns="http://www.w3.org/2000/svg" xmlns:xlink="http://www.w3.org/1999/xlink" xmlns:lucid="lucid" width="938.39" height="1642"><g transform="translate(-9339 -5079)" lucid:page-tab-id="DzQuOS0QucBl"><path d="M9340 5080h936.4v1640H9340z" fill-opacity="0"/><path d="M9360.27 5080h2.02m10.13 0h20.27m10.13 0h2.03m10.13 0h20.26m10.13 0h2.02m10.14 0h20.26m10.14 0h2.02m10.14 0h20.27m10.12 0h2.03m10.13 0h20.27m10.13 0h2.03m10.14 0h20.27m10.15 0h2.02m10.14 0h20.28m10.13 0h2.04m10.13 0h20.27m10.13 0h2.03m10.13 0h20.27m10.13 0h2.03m10.14 0h20.26m10.14 0h2.02m10.14 0h20.27m10.13 0h2.03m10.12 0h20.27m10.12 0h2.03m10.14 0h20.25m10.14 0h2m10.15 0h20.27m10.13 0h2.03m10.13 0h20.28m10.13 0h2.04m10.13 0h20.27m10.14 0h2.02m10.14 0h20.26m10.14 0h2.03m10.13 0h20.27m10.13 0h2.03m10.13 0h20.27m10.14 0h2.02m10.13 0h20.27m10.13 0h2.02m10.14 0h20.26m10.13 0h2.02m10.13 0h10.14v10m0 10.02v2m0 10.02v20.02m0 10.02v2m0 10v20.03m0 10.03v2m0 10v20.04m0 10v2m0 10.02v20.02m0 10v2m0 10.02v20.03m0 10v2m0 10.02v20.02m0 10v2.02m0 10v20.03m0 10v2.02m0 10v20.02m0 10.02v2m0 10v20.03m0 10.02v2m0 10v20.02m0 10.02v2m0 10v20.04m0 10v2m0 10.02v20.03m0 10v2m0 10.02v20.03m0 10v2m0 10.03v20.03m0 10v2.02m0 10v20.03m0 10v2.02m0 10v20.03m0 10.02v2m0 10v20.03m0 10.02v2m0 10v20.04m0 10v2m0 10.02V5889m0 10v2m0 10v20.04m0 10v2m0 10.02v20.03m0 10v2m0 10.02v20.02m0 10v2m0 10.03v20.02m0 10v2m0 10.02v20.02m0 10.02v2m0 10v20.03m0 10v2m0 10.02v20.03m0 10v2m0 10.02v20.03m0 10v2m0 10.02v20.03m0 10v2m0 10.03v20.02m0 10v2m0 10.03v20.02m0 10v2m0 10.03v20.02m0 10v2.02m0 10v20.03m0 10.02v2m0 10v20.03m0 10.02v2m0 10v20.04m0 10v2m0 10.02v20.03m0 10.02v2m0 10v20.04m0 10v2m0 10.03v20m0 10.02v2m0 10.02v20.02m0 10v2.02m0 10V6720h-10.15m-10.13 0h-2.03m-10.14 0h-20.27m-10.15 0h-2.02m-10.14 0h-20.27m-10.14 0h-2.03m-10.14 0h-20.27m-10.13 0h-2.03m-10.13 0H10096m-10.13 0h-2.03m-10.14 0h-20.26m-10.14 0h-2.02m-10.14 0h-20.27m-10.13 0h-2.03m-10.12 0h-20.27m-10.12 0h-2.03m-10.13 0h-20.27m-10.14 0h-2m-10.15 0h-20.27m-10.13 0h-2.03m-10.13 0h-20.28m-10.13 0h-2.04m-10.13 0h-20.27m-10.14 0h-2.02m-10.14 0h-20.26m-10.14 0h-2.03m-10.13 0h-20.27m-10.13 0h-2.03m-10.13 0h-20.27m-10.13 0h-2.03m-10.13 0h-20.26m-10.13 0h-2.02m-10.14 0h-20.26m-10.13 0h-2.02m-10.13 0h-20.27m-10.13 0h-2.03m-10.13 0h-20.28m-10.14 0h-2.02m-10.14 0h-20.26m-10.14 0h-2.03m-10.14 0H9415m-10.14 0h-2.03m-10.13 0h-20.27m-10.14 0h-2.03m-10.14 0H9340v-10m0-10.02v-2m0-10.02v-20.02m0-10.02v-2m0-10v-20.03m0-10.03v-2m0-10v-20.04m0-10v-2m0-10.02v-20.02m0-10v-2m0-10.02v-20.03m0-10v-2m0-10.02v-20.02m0-10v-2.02m0-10v-20.03m0-10v-2.02m0-10v-20.02m0-10.02v-2m0-10v-20.03m0-10.02v-2m0-10v-20.02m0-10.02v-2m0-10v-20.04m0-10v-2m0-10.02v-20.03m0-10v-2m0-10.02v-20.03m0-10v-2m0-10.03v-20.03m0-10v-2.02m0-10v-20.03m0-10v-2.02m0-10v-20.03m0-10.02v-2m0-10v-20.03m0-10.02v-2m0-10v-20.04m0-10v-2m0-10.02V5911m0-10v-2m0-10v-20.04m0-10v-2m0-10.02v-20.03m0-10v-2m0-10.02v-20.02m0-10v-2m0-10.03v-20.02m0-10v-2m0-10.02v-20.02m0-10.02v-2m0-10v-20.03m0-10v-2m0-10.02v-20.03m0-10v-2m0-10.02v-20.03m0-10v-2m0-10.02v-20.03m0-10v-2m0-10.03v-20.02m0-10v-2m0-10.03v-20.02m0-10v-2m0-10.03v-20.02m0-10v-2.02m0-10v-20.03m0-10.02v-2m0-10v-20.03m0-10.02v-2m0-10v-20.04m0-10v-2m0-10.02v-20.03m0-10.02v-2m0-10v-20.04m0-10v-2m0-10.03v-20m0-10.02v-2m0-10.02v-20.02m0-10V5100m0-10V5080h10.13" stroke="#fff" stroke-width="2" fill="none"/><use xlink:href="#a" transform="matrix(1,0,0,1,9360,5100) translate(275.225 14.4)"/><use xlink:href="#b" transform="matrix(1,0,0,1,9360,5100) translate(327.225 14.4)"/><use xlink:href="#c" transform="matrix(1,0,0,1,9360,5100) translate(342.225 14.4)"/><use xlink:href="#d" transform="matrix(1,0,0,1,9360,5100) translate(357.225 14.4)"/><use xlink:href="#e" transform="matrix(1,0,0,1,9360,5100) translate(460.07500000000005 14.4)"/><use xlink:href="#f" transform="matrix(1,0,0,1,9360,5100) translate(485.07500000000005 14.4)"/><use xlink:href="#g" transform="matrix(1,0,0,1,9360,5100) translate(554.825 14.4)"/><path d="M9848.08 5180h228.5v120h-228.5z" stroke="#fff" stroke-width="3" fill-opacity="0"/><use xlink:href="#h" transform="matrix(1,0,0,1,9848.083107198076,5180) translate(13.154999999999982 51.9)"/><use xlink:href="#i" transform="matrix(1,0,0,1,9848.083107198076,5180) translate(72.05499999999998 51.9)"/><use xlink:href="#j" transform="matrix(1,0,0,1,9848.083107198076,5180) translate(120.005 51.9)"/><use xlink:href="#k" transform="matrix(1,0,0,1,9848.083107198076,5180) translate(156.905 51.9)"/><use xlink:href="#l" transform="matrix(1,0,0,1,9848.083107198076,5180) translate(60.529999999999994 73.5)"/><use xlink:href="#m" transform="matrix(1,0,0,1,9848.083107198076,5180) translate(85.53 73.5)"/><path d="M9573.46 5180h228.5v120h-228.5z" stroke="#fff" stroke-width="3" fill-opacity="0"/><use xlink:href="#h" transform="matrix(1,0,0,1,9573.456242879223,5180) translate(13.154999999999982 51.9)"/><use xlink:href="#i" transform="matrix(1,0,0,1,9573.456242879223,5180) translate(72.05499999999998 51.9)"/><use xlink:href="#j" transform="matrix(1,0,0,1,9573.456242879223,5180) translate(120.005 51.9)"/><use xlink:href="#k" transform="matrix(1,0,0,1,9573.456242879223,5180) translate(156.905 51.9)"/><use xlink:href="#l" transform="matrix(1,0,0,1,9573.456242879223,5180) translate(87.00500000000001 73.5)"/><use xlink:href="#n" transform="matrix(1,0,0,1,9573.456242879223,5180) translate(112.005 73.5)"/><path d="M9816.36 5458.02a8 8 0 0 1 9.6 0l118.1 88.58a4.5 4.5 0 0 1 0 7.2l-118.1 88.58a8 8 0 0 1-9.6 0l-118.1-88.58a4.5 4.5 0 0 1 0-7.2z" stroke="#fff" stroke-width="3" fill-opacity="0"/><use xlink:href="#o" transform="matrix(1,0,0,1,9698.456242879221,5459.418333511567) translate(26.18 94.025)"/><use xlink:href="#p" transform="matrix(1,0,0,1,9698.456242879221,5459.418333511567) translate(87.03 94.025)"/><use xlink:href="#q" transform="matrix(1,0,0,1,9698.456242879221,5459.418333511567) translate(157.93 94.025)"/><path d="M9962.33 5303v69.2a6 6 0 0 1-6 6h-129.16a6 6 0 0 0-6 6v35.83" stroke="#fff" stroke-width="3" fill="none"/><path d="M9963.8 5303.04h-2.94v-1.54h2.95z" stroke="#fff" stroke-width=".05" fill="#fff"/><path d="M9821.17 5450.06l-9.28-28.53h18.53z" stroke="#fff" stroke-width="3" fill="#fff"/><path d="M9687.7 5303v69.2a6 6 0 0 0 6 6h121.47a6 6 0 0 1 6 6v35.83" stroke="#fff" stroke-width="3" fill="none"/><path d="M9689.18 5303.04h-2.95v-1.54h2.95z" stroke="#fff" stroke-width=".05" fill="#fff"/><path d="M9821.17 5450.06l-9.28-28.53h18.53z" stroke="#fff" stroke-width="3" fill="#fff"/><path d="M9433.46 5914.42h228.5v120h-228.5z" stroke="#fff" stroke-width="3" fill-opacity="0"/><use xlink:href="#r" transform="matrix(1,0,0,1,9433.456242879223,5914.418333511567) translate(35.105 51.9)"/><use xlink:href="#s" transform="matrix(1,0,0,1,9433.456242879223,5914.418333511567) translate(133.955 51.9)"/><use xlink:href="#t" transform="matrix(1,0,0,1,9433.456242879223,5914.418333511567) translate(183.905 51.9)"/><use xlink:href="#u" transform="matrix(1,0,0,1,9433.456242879223,5914.418333511567) translate(14.630000000000004 73.5)"/><use xlink:href="#v" transform="matrix(1,0,0,1,9433.456242879223,5914.418333511567) translate(92.48000000000002 73.5)"/><use xlink:href="#w" transform="matrix(1,0,0,1,9433.456242879223,5914.418333511567) translate(107.48000000000002 73.5)"/><use xlink:href="#x" transform="matrix(1,0,0,1,9433.456242879223,5914.418333511567) translate(148.43 73.5)"/><use xlink:href="#y" transform="matrix(1,0,0,1,9433.456242879223,5914.418333511567) translate(163.43 73.5)"/><path d="M9967.88 5734.42h228.5v120h-228.5z" stroke="#fff" stroke-width="3" fill-opacity="0"/><use xlink:href="#z" transform="matrix(1,0,0,1,9967.882393603737,5734.418333511567) translate(9.62999999999999 51.9)"/><use xlink:href="#A" transform="matrix(1,0,0,1,9967.882393603737,5734.418333511567) translate(87.48 51.9)"/><use xlink:href="#B" transform="matrix(1,0,0,1,9967.882393603737,5734.418333511567) translate(102.48 51.9)"/><use xlink:href="#C" transform="matrix(1,0,0,1,9967.882393603737,5734.418333511567) translate(127.48 51.9)"/><use xlink:href="#D" transform="matrix(1,0,0,1,9967.882393603737,5734.418333511567) translate(147.48000000000002 51.9)"/><use xlink:href="#t" transform="matrix(1,0,0,1,9967.882393603737,5734.418333511567) translate(209.38 51.9)"/><use xlink:href="#y" transform="matrix(1,0,0,1,9967.882393603737,5734.418333511567) translate(89.03 73.5)"/><path d="M9433.46 6134.42h228.5v120h-228.5z" stroke="#fff" stroke-width="3" fill-opacity="0"/><use xlink:href="#z" transform="matrix(1,0,0,1,9433.456242879223,6134.418333511567) translate(10.154999999999982 51.9)"/><use xlink:href="#E" transform="matrix(1,0,0,1,9433.456242879223,6134.418333511567) translate(88.005 51.9)"/><use xlink:href="#D" transform="matrix(1,0,0,1,9433.456242879223,6134.418333511567) translate(108.005 51.9)"/><use xlink:href="#x" transform="matrix(1,0,0,1,9433.456242879223,6134.418333511567) translate(169.905 51.9)"/><use xlink:href="#F" transform="matrix(1,0,0,1,9433.456242879223,6134.418333511567) translate(184.905 51.9)"/><use xlink:href="#G" transform="matrix(1,0,0,1,9433.456242879223,6134.418333511567) translate(14.154999999999996 73.5)"/><use xlink:href="#H" transform="matrix(1,0,0,1,9433.456242879223,6134.418333511567) translate(55.105 73.5)"/><use xlink:href="#B" transform="matrix(1,0,0,1,9433.456242879223,6134.418333511567) translate(121.955 73.5)"/><use xlink:href="#I" transform="matrix(1,0,0,1,9433.456242879223,6134.418333511567) translate(146.95499999999998 73.5)"/><path d="M9967.88 5914.42h228.5v120h-228.5z" stroke="#fff" stroke-width="3" fill-opacity="0"/><use xlink:href="#z" transform="matrix(1,0,0,1,9967.882393603737,5914.418333511567) translate(48.07999999999999 19.41)"/><use xlink:href="#b" transform="matrix(1,0,0,1,9967.882393603737,5914.418333511567) translate(125.93 19.41)"/><use xlink:href="#B" transform="matrix(1,0,0,1,9967.882393603737,5914.418333511567) translate(140.93 19.41)"/><use xlink:href="#J" transform="matrix(1,0,0,1,9967.882393603737,5914.418333511567) translate(165.93 19.41)"/><use xlink:href="#K" transform="matrix(1,0,0,1,9967.882393603737,5914.418333511567) translate(18.130000000000003 41.01)"/><use xlink:href="#w" transform="matrix(1,0,0,1,9967.882393603737,5914.418333511567) translate(120.98000000000002 41.01)"/><use xlink:href="#x" transform="matrix(1,0,0,1,9967.882393603737,5914.418333511567) translate(161.93 41.01)"/><use xlink:href="#L" transform="matrix(1,0,0,1,9967.882393603737,5914.418333511567) translate(176.93 41.01)"/><use xlink:href="#M" transform="matrix(1,0,0,1,9967.882393603737,5914.418333511567) translate(90.03 62.61)"/><use xlink:href="#N" transform="matrix(1,0,0,1,9967.882393603737,5914.418333511567) translate(128.98 62.61)"/><use xlink:href="#O" transform="matrix(1,0,0,1,9967.882393603737,5914.418333511567) translate(22.130000000000003 84.21000000000001)"/><use xlink:href="#P" transform="matrix(1,0,0,1,9967.882393603737,5914.418333511567) translate(54.03 84.21000000000001)"/><use xlink:href="#B" transform="matrix(1,0,0,1,9967.882393603737,5914.418333511567) translate(106.93 84.21000000000001)"/><use xlink:href="#Q" transform="matrix(1,0,0,1,9967.882393603737,5914.418333511567) translate(131.93 84.21000000000001)"/><use xlink:href="#R" transform="matrix(1,0,0,1,9967.882393603737,5914.418333511567) translate(73.58 105.81)"/><path d="M9967.88 6134.42h228.5v120h-228.5z" stroke="#fff" stroke-width="3" fill-opacity="0"/><g><use xlink:href="#z" transform="matrix(1,0,0,1,9967.882393603737,6134.418333511567) translate(18.154999999999994 51.9)"/><use xlink:href="#S" transform="matrix(1,0,0,1,9967.882393603737,6134.418333511567) translate(96.00500000000001 51.9)"/><use xlink:href="#T" transform="matrix(1,0,0,1,9967.882393603737,6134.418333511567) translate(116.00500000000001 51.9)"/><use xlink:href="#U" transform="matrix(1,0,0,1,9967.882393603737,6134.418333511567) translate(190.85500000000002 51.9)"/><use xlink:href="#V" transform="matrix(1,0,0,1,9967.882393603737,6134.418333511567) translate(75.555 73.5)"/><use xlink:href="#W" transform="matrix(1,0,0,1,9967.882393603737,6134.418333511567) translate(109.45500000000001 73.5)"/></g><path d="M9547.7 6037.42v60.6" stroke="#fff" stroke-width="3" fill="none"/><path d="M9549.18 6037.46h-2.95v-1.54h2.95z" stroke="#fff" stroke-width=".05" fill="#fff"/><path d="M9547.7 6128.06l-9.26-28.53h18.54z" stroke="#fff" stroke-width="3" fill="#fff"/><path d="M10082.13 5857.42v20.6" stroke="#fff" stroke-width="3" fill="none"/><path d="M10083.6 5857.46h-2.94v-1.54h2.95z" stroke="#fff" stroke-width=".05" fill="#fff"/><path d="M10082.13 5908.06l-9.27-28.53h18.55z" stroke="#fff" stroke-width="3" fill="#fff"/><path d="M10082.13 6037.42v60.6" stroke="#fff" stroke-width="3" fill="none"/><path d="M10083.6 6037.46h-2.94v-1.54h2.95z" stroke="#fff" stroke-width=".05" fill="#fff"/><path d="M10082.13 6128.06l-9.27-28.53h18.55z" stroke="#fff" stroke-width="3" fill="#fff"/><path d="M9549.18 5698.03h-2.95V5578.6h2.95zm144.27-146.35h-139.68l-.77.05-.7.17-.64.27-.6.37-.55.46-.45.54-.37.6-.27.66-.16.7-.06.76v1h-2.95v-1.12l.1-1.1.26-1.15.44-1.1.62-1 .76-.9.9-.75 1-.6 1.08-.46 1.14-.3 1.1-.07h139.8z" stroke="#fff" stroke-width=".05" fill="#fff"/><path d="M9695.05 5549.1l-.1 1.1.1 1.1.1.38h-1.74v-2.95h1.76z" fill="#fff"/><path stroke="#fff" stroke-width=".05" fill="#fff"/><path d="M9547.7 5728.06l-9.26-28.53h18.54z" fill="#fff"/><path d="M9547.7 5732.84l-11.3-34.78h22.6zm-7.23-31.83l7.24 22.3 7.25-22.3z" stroke="#fff" stroke-width=".05" fill="#fff"/><g><use xlink:href="#X" transform="matrix(1,0,0,1,9530.967592592584,5557.271552516707) translate(0 14.222222222222223)"/></g><path d="M10083.6 5698.03h-2.94v-113.18h2.95zm-6.3-149.22l1.15.3 1.08.43 1 .62.9.76.76.9.6 1 .45 1.1.27 1.13.1 1.1v7.4h-2.96v-7.27l-.06-.77-.17-.7-.27-.65-.37-.6-.47-.55-.54-.46-.6-.37-.67-.27-.7-.16-.75-.06h-127.2v-2.95h127.3z" stroke="#fff" stroke-width=".05" fill="#fff"/><path d="M9948.92 5551.68h-1.75l.1-.37.1-1.1-.1-1.1-.1-.38h1.75z" fill="#fff"/><path stroke="#fff" stroke-width=".05" fill="#fff"/><path d="M10082.13 5728.06l-9.27-28.53h18.55z" fill="#fff"/><path d="M10082.13 5732.84l-11.3-34.78h22.6zm-7.24-31.83l7.23 22.3 7.25-22.3z" stroke="#fff" stroke-width=".05" fill="#fff"/><g><use xlink:href="#Y" transform="matrix(1,0,0,1,10065.838187761543,5563.514720284033) translate(0 14.222222222222223)"/></g><path d="M9433.46 5734.42h228.5v120h-228.5z" stroke="#fff" stroke-width="3" fill-opacity="0"/><g><use xlink:href="#Z" transform="matrix(1,0,0,1,9433.456242879223,5734.418333511567) translate(31.029999999999994 51.9)"/><use xlink:href="#aa" transform="matrix(1,0,0,1,9433.456242879223,5734.418333511567) translate(103.98 51.9)"/><use xlink:href="#ab" transform="matrix(1,0,0,1,9433.456242879223,5734.418333511567) translate(128.98000000000002 51.9)"/><use xlink:href="#ac" transform="matrix(1,0,0,1,9433.456242879223,5734.418333511567) translate(177.98000000000002 51.9)"/><use xlink:href="#ad" transform="matrix(1,0,0,1,9433.456242879223,5734.418333511567) translate(65.05499999999999 73.5)"/></g><path d="M9547.7 5857.42v20.6" stroke="#fff" stroke-width="3" fill="none"/><path d="M9549.18 5857.46h-2.95v-1.54h2.95z" stroke="#fff" stroke-width=".05" fill="#fff"/><path d="M9547.7 5908.06l-9.26-28.53h18.54z" stroke="#fff" stroke-width="3" fill="#fff"/><path d="M9433.46 6565.98h228.5v120h-228.5z" stroke="#fff" stroke-width="3" fill-opacity="0"/><g><use xlink:href="#z" transform="matrix(1,0,0,1,9433.456242879223,6565.980833511553) translate(10.154999999999982 51.9)"/><use xlink:href="#ae" transform="matrix(1,0,0,1,9433.456242879223,6565.980833511553) translate(88.005 51.9)"/><use xlink:href="#D" transform="matrix(1,0,0,1,9433.456242879223,6565.980833511553) translate(108.005 51.9)"/><use xlink:href="#x" transform="matrix(1,0,0,1,9433.456242879223,6565.980833511553) translate(169.905 51.9)"/><use xlink:href="#F" transform="matrix(1,0,0,1,9433.456242879223,6565.980833511553) translate(184.905 51.9)"/><use xlink:href="#G" transform="matrix(1,0,0,1,9433.456242879223,6565.980833511553) translate(14.154999999999996 73.5)"/><use xlink:href="#H" transform="matrix(1,0,0,1,9433.456242879223,6565.980833511553) translate(55.105 73.5)"/><use xlink:href="#B" transform="matrix(1,0,0,1,9433.456242879223,6565.980833511553) translate(121.955 73.5)"/><use xlink:href="#I" transform="matrix(1,0,0,1,9433.456242879223,6565.980833511553) translate(146.95499999999998 73.5)"/></g><path d="M9542.9 6318.02a8 8 0 0 1 9.6 0l118.12 88.58a4.5 4.5 0 0 1 0 7.2l-118.1 88.58a8 8 0 0 1-9.6 0l-118.12-88.58a4.5 4.5 0 0 1 0-7.2z" stroke="#fff" stroke-width="3" fill-opacity="0"/><g><use xlink:href="#o" transform="matrix(1,0,0,1,9425,6319.418333511567) translate(59.13 71.275)"/><use xlink:href="#af" transform="matrix(1,0,0,1,9425,6319.418333511567) translate(119.98 71.275)"/><use xlink:href="#ag" transform="matrix(1,0,0,1,9425,6319.418333511567) translate(25.054999999999986 92.875)"/><use xlink:href="#ab" transform="matrix(1,0,0,1,9425,6319.418333511567) translate(81.955 92.875)"/><use xlink:href="#e" transform="matrix(1,0,0,1,9425,6319.418333511567) translate(130.95499999999998 92.875)"/><use xlink:href="#ah" transform="matrix(1,0,0,1,9425,6319.418333511567) translate(155.955 92.875)"/><use xlink:href="#ac" transform="matrix(1,0,0,1,9425,6319.418333511567) translate(200.955 92.875)"/><use xlink:href="#ai" transform="matrix(1,0,0,1,9425,6319.418333511567) translate(68.055 114.475)"/></g><path d="M9547.7 6257.42v22.6" stroke="#fff" stroke-width="3" fill="none"/><path d="M9549.18 6257.46h-2.95v-1.54h2.95z" stroke="#fff" stroke-width=".05" fill="#fff"/><path d="M9547.7 6310.06l-9.26-28.53h18.54z" stroke="#fff" stroke-width="3" fill="#fff"/><path d="M9549.18 6524.32h-2.95v-17.34h2.95z" stroke="#fff" stroke-width=".05" fill="#fff"/><path d="M9546.5 6505.4l1.2.08 1.23-.07.25-.05v1.67h-2.95v-1.67z" fill="#fff"/><path stroke="#fff" stroke-width=".05" fill="#fff"/><path d="M9547.7 6559.63l-4.53-13.98h9.08z" fill="#fff"/><path d="M9547.7 6564.4l-6.08-18.75h3.1l3 9.2 2.98-9.2h3.1z" stroke="#fff" stroke-width=".05" fill="#fff"/><g><use xlink:href="#X" transform="matrix(1,0,0,1,9530.967592592584,6524.31571231678) translate(0 14.222222222222223)"/></g><path d="M9821.63 6404.26l-.1 1.1-.26 1.15-.45 1.1-.62 1-.76.9-.9.75-1 .6-1.08.46-1.14.3-1.1.07h-138.8v-2.94h138.67l.76-.07.7-.16.65-.27.6-.37.55-.46.46-.54.38-.6.27-.66.17-.7.06-.76v-291.16h2.95zm109.87-608.37h-105.3l-.75.05-.7.17-.65.27-.6.36-.54.46-.46.54-.38.6-.27.66-.16.7-.07.76v291.16h-2.95v-291.28l.08-1.1.28-1.15.45-1.08.6-1 .76-.9.9-.75 1-.62 1.08-.44 1.14-.27 1.1-.1h105.42z" stroke="#fff" stroke-width=".05" fill="#fff"/><path d="M9675.46 6411.68h-1.74l.1-.37.1-1.1-.1-1.1-.1-.38h1.74z" fill="#fff"/><path stroke="#fff" stroke-width=".05" fill="#fff"/><path d="M9961.53 5794.42l-28.53 9.27v-18.55z" fill="#fff"/><path d="M9966.3 5794.42l-34.78 11.3v-22.6zm-31.83 7.24l22.28-7.24-22.28-7.24z" stroke="#fff" stroke-width=".05" fill="#fff"/><g><use xlink:href="#Y" transform="matrix(1,0,0,1,9803.856449534018,6091.642291844896) translate(0 14.222222222222223)"/></g><defs><path fill="#fff" d="M30 0v-248h187v28H63v79h144v27H63v87h162V0H30" id="aj"/><path fill="#fff" d="M59-47c-2 24 18 29 38 22v24C64 9 27 4 27-40v-127H5v-23h24l9-43h21v43h35v23H59v120" id="ak"/><path fill="#fff" d="M141-36C126-15 110 5 73 4 37 3 15-17 15-53c-1-64 63-63 125-63 3-35-9-54-41-54-24 1-41 7-42 31l-33-3c5-37 33-52 76-52 45 0 72 20 72 64v82c-1 20 7 32 28 27v20c-31 9-61-2-59-35zM48-53c0 20 12 33 32 33 41-3 63-29 60-74-43 2-92-5-92 41" id="al"/><path fill="#fff" d="M115-194c55 1 70 41 70 98S169 2 115 4C84 4 66-9 55-30l1 105H24l-1-265h31l2 30c10-21 28-34 59-34zm-8 174c40 0 45-34 45-75s-6-73-45-74c-42 0-51 32-51 76 0 43 10 73 51 73" id="am"/><g id="a"><use transform="matrix(0.05,0,0,0.05,0,0)" xlink:href="#aj"/><use transform="matrix(0.05,0,0,0.05,12,0)" xlink:href="#ak"/><use transform="matrix(0.05,0,0,0.05,17,0)" xlink:href="#al"/><use transform="matrix(0.05,0,0,0.05,27,0)" xlink:href="#am"/><use transform="matrix(0.05,0,0,0.05,37,0)" xlink:href="#al"/></g><path fill="#fff" d="M110-160c48 1 74 30 74 79 0 53-28 85-80 85-65 0-83-55-86-122-5-90 50-162 133-122 14 7 22 21 27 39l-31 6c-5-40-67-38-82-6-9 19-15 44-15 74 11-20 30-34 60-33zm-7 138c34 0 49-23 49-58s-16-56-50-56c-29 0-50 16-49 49 1 36 15 65 50 65" id="an"/><use transform="matrix(0.05,0,0,0.05,0,0)" xlink:href="#an" id="b"/><path fill="#fff" d="M0-79v-24h200v24H0" id="ao"/><use transform="matrix(0.05,0,0,0.05,0,0)" xlink:href="#ao" id="c"/><path fill="#fff" d="M190 0L58-211 59 0H30v-248h39L202-35l-2-213h31V0h-41" id="ap"/><path fill="#fff" d="M100-194c62-1 85 37 85 99 1 63-27 99-86 99S16-35 15-95c0-66 28-99 85-99zM99-20c44 1 53-31 53-75 0-43-8-75-51-75s-53 32-53 75 10 74 51 75" id="aq"/><path fill="#fff" d="M24-231v-30h32v30H24zM24 0v-190h32V0H24" id="ar"/><path fill="#fff" d="M101-234c-31-9-42 10-38 44h38v23H63V0H32v-167H5v-23h27c-7-52 17-82 69-68v24" id="as"/><path fill="#fff" d="M96-169c-40 0-48 33-48 73s9 75 48 75c24 0 41-14 43-38l32 2c-6 37-31 61-74 61-59 0-76-41-82-99-10-93 101-131 147-64 4 7 5 14 7 22l-32 3c-4-21-16-35-41-35" id="at"/><path fill="#fff" d="M96-169c-40 0-48 33-48 73s9 75 48 75c24 0 41-14 43-38l32 2c-6 37-31 61-74 61-59 0-76-41-82-99-10-93 101-131 147-64 4 7 5 14 7 22l-32 3c-4-21-16-35-41-35zm3 187c19-1 33 8 33 26 0 31-30 33-64 32V58c18 2 39 4 41-13 1-15-18-13-34-13L87 0h19" id="au"/><path fill="#fff" d="M100-194c62-1 85 37 85 99 1 63-27 99-86 99S16-35 15-95c0-66 28-99 85-99zM99-20c44 1 53-31 53-75 0-43-8-75-51-75s-53 32-53 75 10 74 51 75zm66-238c-3 23-9 48-36 47-26-1-65-44-74 0H39c4-23 8-48 36-47s64 44 74 0h16" id="av"/><path fill="#fff" d="M100-194c63 0 86 42 84 106H49c0 40 14 67 53 68 26 1 43-12 49-29l28 8c-11 28-37 45-77 45C44 4 14-33 15-96c1-61 26-98 85-98zm52 81c6-60-76-77-97-28-3 7-6 17-6 28h103" id="aw"/><path fill="#fff" d="M135-143c-3-34-86-38-87 0 15 53 115 12 119 90S17 21 10-45l28-5c4 36 97 45 98 0-10-56-113-15-118-90-4-57 82-63 122-42 12 7 21 19 24 35" id="ax"/><g id="d"><use transform="matrix(0.05,0,0,0.05,0,0)" xlink:href="#ap"/><use transform="matrix(0.05,0,0,0.05,12.950000000000001,0)" xlink:href="#aq"/><use transform="matrix(0.05,0,0,0.05,22.950000000000003,0)" xlink:href="#ak"/><use transform="matrix(0.05,0,0,0.05,27.950000000000003,0)" xlink:href="#ar"/><use transform="matrix(0.05,0,0,0.05,31.900000000000002,0)" xlink:href="#as"/><use transform="matrix(0.05,0,0,0.05,36.900000000000006,0)" xlink:href="#ar"/><use transform="matrix(0.05,0,0,0.05,40.85000000000001,0)" xlink:href="#at"/><use transform="matrix(0.05,0,0,0.05,49.85000000000001,0)" xlink:href="#al"/><use transform="matrix(0.05,0,0,0.05,59.85,0)" xlink:href="#au"/><use transform="matrix(0.05,0,0,0.05,68.85000000000001,0)" xlink:href="#av"/><use transform="matrix(0.05,0,0,0.05,78.85000000000001,0)" xlink:href="#aw"/><use transform="matrix(0.05,0,0,0.05,88.85000000000001,0)" xlink:href="#ax"/></g><path fill="#fff" d="M85-194c31 0 48 13 60 33l-1-100h32l1 261h-30c-2-10 0-23-3-31C134-8 116 4 85 4 32 4 16-35 15-94c0-66 23-100 70-100zm9 24c-40 0-46 34-46 75 0 40 6 74 45 74 42 0 51-32 51-76 0-42-9-74-50-73" id="ay"/><g id="e"><use transform="matrix(0.05,0,0,0.05,0,0)" xlink:href="#ay"/><use transform="matrix(0.05,0,0,0.05,10,0)" xlink:href="#aw"/></g><path fill="#fff" d="M114-163C36-179 61-72 57 0H25l-1-190h30c1 12-1 29 2 39 6-27 23-49 58-41v29" id="az"/><path fill="#fff" d="M210-169c-67 3-38 105-44 169h-31v-121c0-29-5-50-35-48C34-165 62-65 56 0H25l-1-190h30c1 10-1 24 2 32 10-44 99-50 107 0 11-21 27-35 58-36 85-2 47 119 55 194h-31v-121c0-29-5-49-35-48" id="aA"/><g id="f"><use transform="matrix(0.05,0,0,0.05,0,0)" xlink:href="#am"/><use transform="matrix(0.05,0,0,0.05,10,0)" xlink:href="#az"/><use transform="matrix(0.05,0,0,0.05,15.949999999999998,0)" xlink:href="#ar"/><use transform="matrix(0.05,0,0,0.05,19.9,0)" xlink:href="#aA"/><use transform="matrix(0.05,0,0,0.05,34.85,0)" xlink:href="#aw"/><use transform="matrix(0.05,0,0,0.05,44.85,0)" xlink:href="#ar"/><use transform="matrix(0.05,0,0,0.05,48.800000000000004,0)" xlink:href="#az"/><use transform="matrix(0.05,0,0,0.05,54.75,0)" xlink:href="#al"/></g><path fill="#fff" d="M117-194c89-4 53 116 60 194h-32v-121c0-31-8-49-39-48C34-167 62-67 57 0H25l-1-190h30c1 10-1 24 2 32 11-22 29-35 61-36" id="aB"/><path fill="#fff" d="M84 4C-5 8 30-112 23-190h32v120c0 31 7 50 39 49 72-2 45-101 50-169h31l1 190h-30c-1-10 1-25-2-33-11 22-28 36-60 37" id="aC"/><path fill="#fff" d="M24 0v-261h32V0H24" id="aD"/><g id="g"><use transform="matrix(0.05,0,0,0.05,0,0)" xlink:href="#at"/><use transform="matrix(0.05,0,0,0.05,9,0)" xlink:href="#aq"/><use transform="matrix(0.05,0,0,0.05,19,0)" xlink:href="#aB"/><use transform="matrix(0.05,0,0,0.05,29,0)" xlink:href="#ax"/><use transform="matrix(0.05,0,0,0.05,38,0)" xlink:href="#aC"/><use transform="matrix(0.05,0,0,0.05,48,0)" xlink:href="#aD"/><use transform="matrix(0.05,0,0,0.05,51.95,0)" xlink:href="#ak"/><use transform="matrix(0.05,0,0,0.05,56.95,0)" xlink:href="#al"/></g><path fill="#fff" d="M30-248c118-7 216 8 213 122C240-48 200 0 122 0H30v-248zM63-27c89 8 146-16 146-99s-60-101-146-95v194" id="aE"/><g id="h"><use transform="matrix(0.05,0,0,0.05,0,0)" xlink:href="#aE"/><use transform="matrix(0.05,0,0,0.05,12.950000000000001,0)" xlink:href="#aq"/><use transform="matrix(0.05,0,0,0.05,22.950000000000003,0)" xlink:href="#aC"/><use transform="matrix(0.05,0,0,0.05,32.95,0)" xlink:href="#ak"/><use transform="matrix(0.05,0,0,0.05,37.95,0)" xlink:href="#aq"/><use transform="matrix(0.05,0,0,0.05,47.95,0)" xlink:href="#az"/></g><path fill="#fff" d="M108 0H70L1-190h34L89-25l56-165h34" id="aF"/><g id="i"><use transform="matrix(0.05,0,0,0.05,0,0)" xlink:href="#aw"/><use transform="matrix(0.05,0,0,0.05,10,0)" xlink:href="#aB"/><use transform="matrix(0.05,0,0,0.05,20,0)" xlink:href="#aF"/><use transform="matrix(0.05,0,0,0.05,29,0)" xlink:href="#ar"/><use transform="matrix(0.05,0,0,0.05,32.95,0)" xlink:href="#al"/></g><path fill="#fff" d="M206 0h-36l-40-164L89 0H53L-1-190h32L70-26l43-164h34l41 164 42-164h31" id="aG"/><g id="j"><use transform="matrix(0.05,0,0,0.05,0,0)" xlink:href="#as"/><use transform="matrix(0.05,0,0,0.05,5,0)" xlink:href="#aD"/><use transform="matrix(0.05,0,0,0.05,8.95,0)" xlink:href="#aq"/><use transform="matrix(0.05,0,0,0.05,18.95,0)" xlink:href="#aG"/></g><path fill="#fff" d="M100-194c63 0 86 42 84 106H49c0 40 14 67 53 68 26 1 43-12 49-29l28 8c-11 28-37 45-77 45C44 4 14-33 15-96c1-61 26-98 85-98zm52 81c6-60-76-77-97-28-3 7-6 17-6 28h103zm-74-98c8-23 27-35 38-54h36v5l-58 49H78" id="aH"/><g id="k"><use transform="matrix(0.05,0,0,0.05,0,0)" xlink:href="#al"/><use transform="matrix(0.05,0,0,0.05,10,0)" xlink:href="#ak"/><use transform="matrix(0.05,0,0,0.05,15,0)" xlink:href="#az"/><use transform="matrix(0.05,0,0,0.05,20.95,0)" xlink:href="#al"/><use transform="matrix(0.05,0,0,0.05,30.950000000000003,0)" xlink:href="#aF"/><use transform="matrix(0.05,0,0,0.05,39.95,0)" xlink:href="#aH"/><use transform="matrix(0.05,0,0,0.05,49.95,0)" xlink:href="#ax"/></g><g id="l"><use transform="matrix(0.05,0,0,0.05,0,0)" xlink:href="#ay"/><use transform="matrix(0.05,0,0,0.05,10,0)" xlink:href="#aq"/></g><path fill="#fff" d="M266 0h-40l-56-210L115 0H75L2-248h35L96-30l15-64 43-154h32l59 218 59-218h35" id="aI"/><path fill="#fff" d="M106-169C34-169 62-67 57 0H25v-261h32l-1 103c12-21 28-36 61-36 89 0 53 116 60 194h-32v-121c2-32-8-49-39-48" id="aJ"/><path fill="#fff" d="M205 0l-28-72H64L36 0H1l101-248h38L239 0h-34zm-38-99l-47-123c-12 45-31 82-46 123h93" id="aK"/><g id="m"><use transform="matrix(0.05,0,0,0.05,0,0)" xlink:href="#aI"/><use transform="matrix(0.05,0,0,0.05,16.95,0)" xlink:href="#aJ"/><use transform="matrix(0.05,0,0,0.05,26.950000000000003,0)" xlink:href="#al"/><use transform="matrix(0.05,0,0,0.05,36.95,0)" xlink:href="#ak"/><use transform="matrix(0.05,0,0,0.05,41.95,0)" xlink:href="#ax"/><use transform="matrix(0.05,0,0,0.05,50.95,0)" xlink:href="#aK"/><use transform="matrix(0.05,0,0,0.05,62.95,0)" xlink:href="#am"/><use transform="matrix(0.05,0,0,0.05,72.95,0)" xlink:href="#am"/></g><g id="n"><use transform="matrix(0.05,0,0,0.05,0,0)" xlink:href="#al"/><use transform="matrix(0.05,0,0,0.05,10,0)" xlink:href="#am"/><use transform="matrix(0.05,0,0,0.05,20,0)" xlink:href="#am"/></g><path fill="#fff" d="M212-179c-10-28-35-45-73-45-59 0-87 40-87 99 0 60 29 101 89 101 43 0 62-24 78-52l27 14C228-24 195 4 139 4 59 4 22-46 18-125c-6-104 99-153 187-111 19 9 31 26 39 46" id="aL"/><g id="o"><use transform="matrix(0.05,0,0,0.05,0,0)" xlink:href="#aL"/><use transform="matrix(0.05,0,0,0.05,12.950000000000001,0)" xlink:href="#aD"/><use transform="matrix(0.05,0,0,0.05,16.900000000000002,0)" xlink:href="#ar"/><use transform="matrix(0.05,0,0,0.05,20.85,0)" xlink:href="#aw"/><use transform="matrix(0.05,0,0,0.05,30.85,0)" xlink:href="#aB"/><use transform="matrix(0.05,0,0,0.05,40.85,0)" xlink:href="#ak"/><use transform="matrix(0.05,0,0,0.05,45.85,0)" xlink:href="#aw"/></g><g id="p"><use transform="matrix(0.05,0,0,0.05,0,0)" xlink:href="#at"/><use transform="matrix(0.05,0,0,0.05,9,0)" xlink:href="#aq"/><use transform="matrix(0.05,0,0,0.05,19,0)" xlink:href="#aB"/><use transform="matrix(0.05,0,0,0.05,29,0)" xlink:href="#at"/><use transform="matrix(0.05,0,0,0.05,38,0)" xlink:href="#aD"/><use transform="matrix(0.05,0,0,0.05,41.95,0)" xlink:href="#aC"/><use transform="matrix(0.05,0,0,0.05,51.95,0)" xlink:href="#ar"/><use transform="matrix(0.05,0,0,0.05,55.900000000000006,0)" xlink:href="#aC"/></g><path fill="#fff" d="M63-220v92h138v28H63V0H30v-248h175v28H63" id="aM"/><path fill="#fff" d="M30 0v-248h33v221h125V0H30" id="aN"/><path fill="#fff" d="M140-251c81 0 123 46 123 126C263-46 219 4 140 4 59 4 17-45 17-125s42-126 123-126zm0 227c63 0 89-41 89-101s-29-99-89-99c-61 0-89 39-89 99S79-25 140-24" id="aO"/><path fill="#fff" d="M103-251c84 0 111 97 45 133-19 10-37 24-39 52H78c0-63 77-55 77-114 0-30-21-42-52-43-32 0-53 17-56 46l-32-2c7-45 34-72 88-72zM77 0v-35h34V0H77" id="aP"/><g id="q"><use transform="matrix(0.05,0,0,0.05,0,0)" xlink:href="#aM"/><use transform="matrix(0.05,0,0,0.05,10.950000000000001,0)" xlink:href="#aN"/><use transform="matrix(0.05,0,0,0.05,20.950000000000003,0)" xlink:href="#aO"/><use transform="matrix(0.05,0,0,0.05,34.95,0)" xlink:href="#aI"/><use transform="matrix(0.05,0,0,0.05,51.900000000000006,0)" xlink:href="#aP"/></g><path fill="#fff" d="M141-36C126-15 110 5 73 4 37 3 15-17 15-53c-1-64 63-63 125-63 3-35-9-54-41-54-24 1-41 7-42 31l-33-3c5-37 33-52 76-52 45 0 72 20 72 64v82c-1 20 7 32 28 27v20c-31 9-61-2-59-35zM48-53c0 20 12 33 32 33 41-3 63-29 60-74-43 2-92-5-92 41zm117-205c-3 23-9 48-36 47-26-1-65-44-74 0H39c4-23 8-48 36-47s64 44 74 0h16" id="aQ"/><path fill="#fff" d="M33-154v-36h34v36H33zM33 0v-36h34V0H33" id="aR"/><g id="r"><use transform="matrix(0.05,0,0,0.05,0,0)" xlink:href="#ap"/><use transform="matrix(0.05,0,0,0.05,12.950000000000001,0)" xlink:href="#aq"/><use transform="matrix(0.05,0,0,0.05,22.950000000000003,0)" xlink:href="#ak"/><use transform="matrix(0.05,0,0,0.05,27.950000000000003,0)" xlink:href="#ar"/><use transform="matrix(0.05,0,0,0.05,31.900000000000002,0)" xlink:href="#as"/><use transform="matrix(0.05,0,0,0.05,36.900000000000006,0)" xlink:href="#ar"/><use transform="matrix(0.05,0,0,0.05,40.85000000000001,0)" xlink:href="#at"/><use transform="matrix(0.05,0,0,0.05,49.85000000000001,0)" xlink:href="#al"/><use transform="matrix(0.05,0,0,0.05,59.85,0)" xlink:href="#au"/><use transform="matrix(0.05,0,0,0.05,68.85000000000001,0)" xlink:href="#aQ"/><use transform="matrix(0.05,0,0,0.05,78.85000000000001,0)" xlink:href="#aq"/><use transform="matrix(0.05,0,0,0.05,88.85000000000001,0)" xlink:href="#aR"/></g><g id="s"><use transform="matrix(0.05,0,0,0.05,0,0)" xlink:href="#aj"/><use transform="matrix(0.05,0,0,0.05,12,0)" xlink:href="#aB"/><use transform="matrix(0.05,0,0,0.05,22,0)" xlink:href="#aF"/><use transform="matrix(0.05,0,0,0.05,31,0)" xlink:href="#ar"/><use transform="matrix(0.05,0,0,0.05,34.95,0)" xlink:href="#al"/></g><use transform="matrix(0.05,0,0,0.05,0,0)" xlink:href="#aq" id="t"/><path fill="#fff" d="M127-220V0H93v-220H8v-28h204v28h-85" id="aS"/><g id="u"><use transform="matrix(0.05,0,0,0.05,0,0)" xlink:href="#aS"/><use transform="matrix(0.05,0,0,0.05,8.950000000000001,0)" xlink:href="#aw"/><use transform="matrix(0.05,0,0,0.05,18.950000000000003,0)" xlink:href="#aA"/><use transform="matrix(0.05,0,0,0.05,33.900000000000006,0)" xlink:href="#am"/><use transform="matrix(0.05,0,0,0.05,43.900000000000006,0)" xlink:href="#aD"/><use transform="matrix(0.05,0,0,0.05,47.85000000000001,0)" xlink:href="#al"/><use transform="matrix(0.05,0,0,0.05,57.85,0)" xlink:href="#ak"/><use transform="matrix(0.05,0,0,0.05,62.85,0)" xlink:href="#aw"/></g><path fill="#fff" d="M126-127c33 6 58 20 58 59 0 88-139 92-164 29-3-8-5-16-6-25l32-3c6 27 21 44 54 44 32 0 52-15 52-46 0-38-36-46-79-43v-28c39 1 72-4 72-42 0-27-17-43-46-43-28 0-47 15-49 41l-32-3c6-42 35-63 81-64 48-1 79 21 79 65 0 36-21 52-52 59" id="aT"/><use transform="matrix(0.05,0,0,0.05,0,0)" xlink:href="#aT" id="v"/><g id="w"><use transform="matrix(0.05,0,0,0.05,0,0)" xlink:href="#am"/><use transform="matrix(0.05,0,0,0.05,10,0)" xlink:href="#al"/><use transform="matrix(0.05,0,0,0.05,20,0)" xlink:href="#az"/><use transform="matrix(0.05,0,0,0.05,25.950000000000003,0)" xlink:href="#al"/></g><use transform="matrix(0.05,0,0,0.05,0,0)" xlink:href="#aq" id="x"/><g id="y"><use transform="matrix(0.05,0,0,0.05,0,0)" xlink:href="#ay"/><use transform="matrix(0.05,0,0,0.05,10,0)" xlink:href="#aq"/><use transform="matrix(0.05,0,0,0.05,20,0)" xlink:href="#aC"/><use transform="matrix(0.05,0,0,0.05,30,0)" xlink:href="#ak"/><use transform="matrix(0.05,0,0,0.05,35,0)" xlink:href="#aq"/><use transform="matrix(0.05,0,0,0.05,45,0)" xlink:href="#az"/></g><g id="z"><use transform="matrix(0.05,0,0,0.05,0,0)" xlink:href="#aS"/><use transform="matrix(0.05,0,0,0.05,8.950000000000001,0)" xlink:href="#aw"/><use transform="matrix(0.05,0,0,0.05,18.950000000000003,0)" xlink:href="#aA"/><use transform="matrix(0.05,0,0,0.05,33.900000000000006,0)" xlink:href="#am"/><use transform="matrix(0.05,0,0,0.05,43.900000000000006,0)" xlink:href="#aD"/><use transform="matrix(0.05,0,0,0.05,47.85000000000001,0)" xlink:href="#al"/><use transform="matrix(0.05,0,0,0.05,57.85,0)" xlink:href="#ak"/><use transform="matrix(0.05,0,0,0.05,62.85,0)" xlink:href="#aw"/></g><path fill="#fff" d="M27 0v-27h64v-190l-56 39v-29l58-41h29v221h61V0H27" id="aU"/><use transform="matrix(0.05,0,0,0.05,0,0)" xlink:href="#aU" id="A"/><g id="B"><use transform="matrix(0.05,0,0,0.05,0,0)" xlink:href="#aq"/><use transform="matrix(0.05,0,0,0.05,10,0)" xlink:href="#aC"/></g><path fill="#fff" d="M101-251c82-7 93 87 43 132L82-64C71-53 59-42 53-27h129V0H18c2-99 128-94 128-182 0-28-16-43-45-43s-46 15-49 41l-32-3c6-41 34-60 81-64" id="aV"/><g id="C"><use transform="matrix(0.05,0,0,0.05,0,0)" xlink:href="#aV"/><use transform="matrix(0.05,0,0,0.05,10,0)" xlink:href="#aR"/></g><g id="D"><use transform="matrix(0.05,0,0,0.05,0,0)" xlink:href="#aB"/><use transform="matrix(0.05,0,0,0.05,10,0)" xlink:href="#aq"/><use transform="matrix(0.05,0,0,0.05,20,0)" xlink:href="#ak"/><use transform="matrix(0.05,0,0,0.05,25,0)" xlink:href="#ar"/><use transform="matrix(0.05,0,0,0.05,28.950000000000003,0)" xlink:href="#as"/><use transform="matrix(0.05,0,0,0.05,33.95,0)" xlink:href="#ar"/><use transform="matrix(0.05,0,0,0.05,37.900000000000006,0)" xlink:href="#at"/><use transform="matrix(0.05,0,0,0.05,46.900000000000006,0)" xlink:href="#al"/></g><path fill="#fff" d="M155-56V0h-30v-56H8v-25l114-167h33v167h35v25h-35zm-30-156c-27 46-58 90-88 131h88v-131" id="aW"/><g id="E"><use transform="matrix(0.05,0,0,0.05,0,0)" xlink:href="#aW"/><use transform="matrix(0.05,0,0,0.05,10,0)" xlink:href="#aR"/></g><g id="F"><use transform="matrix(0.05,0,0,0.05,0,0)" xlink:href="#aD"/><use transform="matrix(0.05,0,0,0.05,3.95,0)" xlink:href="#aw"/><use transform="matrix(0.05,0,0,0.05,13.949999999999998,0)" xlink:href="#al"/><use transform="matrix(0.05,0,0,0.05,23.95,0)" xlink:href="#ay"/></g><g id="G"><use transform="matrix(0.05,0,0,0.05,0,0)" xlink:href="#am"/><use transform="matrix(0.05,0,0,0.05,10,0)" xlink:href="#al"/><use transform="matrix(0.05,0,0,0.05,20,0)" xlink:href="#az"/><use transform="matrix(0.05,0,0,0.05,25.950000000000003,0)" xlink:href="#al"/></g><g id="H"><use transform="matrix(0.05,0,0,0.05,0,0)" xlink:href="#at"/><use transform="matrix(0.05,0,0,0.05,9,0)" xlink:href="#aq"/><use transform="matrix(0.05,0,0,0.05,19,0)" xlink:href="#aB"/><use transform="matrix(0.05,0,0,0.05,29,0)" xlink:href="#at"/><use transform="matrix(0.05,0,0,0.05,38,0)" xlink:href="#aD"/><use transform="matrix(0.05,0,0,0.05,41.95,0)" xlink:href="#aC"/><use transform="matrix(0.05,0,0,0.05,51.95,0)" xlink:href="#ar"/><use transform="matrix(0.05,0,0,0.05,55.900000000000006,0)" xlink:href="#az"/></g><g id="I"><use transform="matrix(0.05,0,0,0.05,0,0)" xlink:href="#at"/><use transform="matrix(0.05,0,0,0.05,9,0)" xlink:href="#al"/><use transform="matrix(0.05,0,0,0.05,19,0)" xlink:href="#aB"/><use transform="matrix(0.05,0,0,0.05,29,0)" xlink:href="#at"/><use transform="matrix(0.05,0,0,0.05,38,0)" xlink:href="#aw"/><use transform="matrix(0.05,0,0,0.05,48,0)" xlink:href="#aD"/><use transform="matrix(0.05,0,0,0.05,51.95,0)" xlink:href="#al"/><use transform="matrix(0.05,0,0,0.05,61.95,0)" xlink:href="#az"/></g><path fill="#fff" d="M64 0c3-98 48-159 88-221H18v-27h164v26C143-157 98-101 97 0H64" id="aX"/><g id="J"><use transform="matrix(0.05,0,0,0.05,0,0)" xlink:href="#aX"/><use transform="matrix(0.05,0,0,0.05,10,0)" xlink:href="#aR"/></g><g id="K"><use transform="matrix(0.05,0,0,0.05,0,0)" xlink:href="#at"/><use transform="matrix(0.05,0,0,0.05,9,0)" xlink:href="#aq"/><use transform="matrix(0.05,0,0,0.05,19,0)" xlink:href="#aB"/><use transform="matrix(0.05,0,0,0.05,29,0)" xlink:href="#as"/><use transform="matrix(0.05,0,0,0.05,34,0)" xlink:href="#ar"/><use transform="matrix(0.05,0,0,0.05,37.95,0)" xlink:href="#az"/><use transform="matrix(0.05,0,0,0.05,43.900000000000006,0)" xlink:href="#aA"/><use transform="matrix(0.05,0,0,0.05,58.85,0)" xlink:href="#al"/><use transform="matrix(0.05,0,0,0.05,68.85000000000001,0)" xlink:href="#au"/><use transform="matrix(0.05,0,0,0.05,77.85000000000001,0)" xlink:href="#aQ"/><use transform="matrix(0.05,0,0,0.05,87.85000000000001,0)" xlink:href="#aq"/></g><g id="L"><use transform="matrix(0.05,0,0,0.05,0,0)" xlink:href="#aD"/><use transform="matrix(0.05,0,0,0.05,3.95,0)" xlink:href="#aw"/><use transform="matrix(0.05,0,0,0.05,13.949999999999998,0)" xlink:href="#al"/><use transform="matrix(0.05,0,0,0.05,23.95,0)" xlink:href="#ay"/></g><g id="M"><use transform="matrix(0.05,0,0,0.05,0,0)" xlink:href="#at"/><use transform="matrix(0.05,0,0,0.05,9,0)" xlink:href="#aq"/><use transform="matrix(0.05,0,0,0.05,19,0)" xlink:href="#aA"/></g><use transform="matrix(0.05,0,0,0.05,0,0)" xlink:href="#aq" id="N"/><path fill="#fff" d="M143 0L79-87 56-68V0H24v-261h32v163l83-92h37l-77 82L181 0h-38" id="aY"/><g id="O"><use transform="matrix(0.05,0,0,0.05,0,0)" xlink:href="#aD"/><use transform="matrix(0.05,0,0,0.05,3.95,0)" xlink:href="#ar"/><use transform="matrix(0.05,0,0,0.05,7.9,0)" xlink:href="#aB"/><use transform="matrix(0.05,0,0,0.05,17.9,0)" xlink:href="#aY"/></g><g id="P"><use transform="matrix(0.05,0,0,0.05,0,0)" xlink:href="#aq"/><use transform="matrix(0.05,0,0,0.05,10,0)" xlink:href="#aB"/><use transform="matrix(0.05,0,0,0.05,20,0)" xlink:href="#aD"/><use transform="matrix(0.05,0,0,0.05,23.95,0)" xlink:href="#ar"/><use transform="matrix(0.05,0,0,0.05,27.899999999999995,0)" xlink:href="#aB"/><use transform="matrix(0.05,0,0,0.05,37.9,0)" xlink:href="#aw"/></g><g id="Q"><use transform="matrix(0.05,0,0,0.05,0,0)" xlink:href="#aw"/><use transform="matrix(0.05,0,0,0.05,10,0)" xlink:href="#aB"/><use transform="matrix(0.05,0,0,0.05,20,0)" xlink:href="#ay"/><use transform="matrix(0.05,0,0,0.05,30,0)" xlink:href="#aw"/><use transform="matrix(0.05,0,0,0.05,40,0)" xlink:href="#az"/><use transform="matrix(0.05,0,0,0.05,45.95,0)" xlink:href="#aw"/><use transform="matrix(0.05,0,0,0.05,55.95,0)" xlink:href="#au"/><use transform="matrix(0.05,0,0,0.05,64.95,0)" xlink:href="#aq"/></g><g id="R"><use transform="matrix(0.05,0,0,0.05,0,0)" xlink:href="#am"/><use transform="matrix(0.05,0,0,0.05,10,0)" xlink:href="#az"/><use transform="matrix(0.05,0,0,0.05,15.949999999999998,0)" xlink:href="#aw"/><use transform="matrix(0.05,0,0,0.05,25.950000000000003,0)" xlink:href="#ax"/><use transform="matrix(0.05,0,0,0.05,34.95,0)" xlink:href="#aw"/><use transform="matrix(0.05,0,0,0.05,44.95,0)" xlink:href="#aB"/><use transform="matrix(0.05,0,0,0.05,54.95,0)" xlink:href="#at"/><use transform="matrix(0.05,0,0,0.05,63.95,0)" xlink:href="#ar"/><use transform="matrix(0.05,0,0,0.05,67.9,0)" xlink:href="#al"/><use transform="matrix(0.05,0,0,0.05,77.9,0)" xlink:href="#aD"/></g><path fill="#fff" d="M134-131c28 9 52 24 51 62-1 50-34 73-85 73S17-19 16-69c0-36 21-54 49-61-75-25-45-126 34-121 46 3 78 18 79 63 0 33-17 51-44 57zm-34-11c31 1 46-15 46-44 0-28-17-43-47-42-29 0-46 13-45 42 1 28 16 44 46 44zm1 122c35 0 51-18 51-52 0-30-18-46-53-46-33 0-51 17-51 47 0 34 19 51 53 51" id="aZ"/><g id="S"><use transform="matrix(0.05,0,0,0.05,0,0)" xlink:href="#aZ"/><use transform="matrix(0.05,0,0,0.05,10,0)" xlink:href="#aR"/></g><path fill="#fff" d="M115-194c53 0 69 39 70 98 0 66-23 100-70 100C84 3 66-7 56-30L54 0H23l1-261h32v101c10-23 28-34 59-34zm-8 174c40 0 45-34 45-75 0-40-5-75-45-74-42 0-51 32-51 76 0 43 10 73 51 73" id="ba"/><g id="T"><use transform="matrix(0.05,0,0,0.05,0,0)" xlink:href="#aD"/><use transform="matrix(0.05,0,0,0.05,3.95,0)" xlink:href="#aw"/><use transform="matrix(0.05,0,0,0.05,13.949999999999998,0)" xlink:href="#aA"/><use transform="matrix(0.05,0,0,0.05,28.899999999999995,0)" xlink:href="#ba"/><use transform="matrix(0.05,0,0,0.05,38.9,0)" xlink:href="#az"/><use transform="matrix(0.05,0,0,0.05,44.85,0)" xlink:href="#aw"/><use transform="matrix(0.05,0,0,0.05,54.85,0)" xlink:href="#ak"/><use transform="matrix(0.05,0,0,0.05,59.85,0)" xlink:href="#aw"/></g><path fill="#fff" d="M101-251c68 0 85 55 85 127S166 4 100 4C33 4 14-52 14-124c0-73 17-127 87-127zm-1 229c47 0 54-49 54-102s-4-102-53-102c-51 0-55 48-55 102 0 53 5 102 54 102" id="bb"/><g id="U"><use transform="matrix(0.05,0,0,0.05,0,0)" xlink:href="#aT"/><use transform="matrix(0.05,0,0,0.05,10,0)" xlink:href="#bb"/></g><g id="V"><use transform="matrix(0.05,0,0,0.05,0,0)" xlink:href="#aA"/><use transform="matrix(0.05,0,0,0.05,14.950000000000001,0)" xlink:href="#ar"/><use transform="matrix(0.05,0,0,0.05,18.900000000000002,0)" xlink:href="#aB"/></g><g id="W"><use transform="matrix(0.05,0,0,0.05,0,0)" xlink:href="#al"/><use transform="matrix(0.05,0,0,0.05,10,0)" xlink:href="#aB"/><use transform="matrix(0.05,0,0,0.05,20,0)" xlink:href="#ak"/><use transform="matrix(0.05,0,0,0.05,25,0)" xlink:href="#aw"/><use transform="matrix(0.05,0,0,0.05,35,0)" xlink:href="#ax"/></g><path fill="#fff" d="M175 0L67-191c6 58 2 128 3 191H24v-248h59L193-55c-6-58-2-129-3-193h46V0h-61" id="bc"/><path fill="#fff" d="M132-34C116-15 102 5 68 4 31 3 10-16 10-54c-1-60 55-63 116-61 1-26-3-47-28-47-18 1-26 9-28 27l-52-2c7-38 36-58 82-57s74 22 75 68l1 82c-1 14 12 18 25 15v27c-30 8-71 5-69-32zm-48 3c29 0 43-24 42-57-32 0-66-3-65 30 0 17 8 27 23 27zm82-228c-2 27-9 52-40 51-27-1-66-46-73 0H29c0-29 9-51 39-51 28 0 66 44 74 0h24" id="bd"/><path fill="#fff" d="M110-194c64 0 96 36 96 99 0 64-35 99-97 99-61 0-95-36-95-99 0-62 34-99 96-99zm-1 164c35 0 45-28 45-65 0-40-10-65-43-65-34 0-45 26-45 65 0 36 10 65 43 65" id="be"/><g id="X"><use transform="matrix(0.04938271604938272,0,0,0.04938271604938272,0,0)" xlink:href="#bc"/><use transform="matrix(0.04938271604938272,0,0,0.04938271604938272,12.790123456790125,0)" xlink:href="#bd"/><use transform="matrix(0.04938271604938272,0,0,0.04938271604938272,22.66666666666667,0)" xlink:href="#be"/></g><path fill="#fff" d="M169-182c-1-43-94-46-97-3 18 66 151 10 154 114 3 95-165 93-204 36-6-8-10-19-12-30l50-8c3 46 112 56 116 5-17-69-150-10-154-114-4-87 153-88 188-35 5 8 8 18 10 28" id="bf"/><path fill="#fff" d="M25-224v-37h50v37H25zM25 0v-190h50V0H25" id="bg"/><path fill="#fff" d="M220-157c-53 9-28 100-34 157h-49v-107c1-27-5-49-29-50C55-147 81-57 75 0H25l-1-190h47c2 12-1 28 3 38 10-53 101-56 108 0 13-22 24-43 59-42 82 1 51 116 57 194h-49v-107c-1-25-5-48-29-50" id="bh"/><g id="Y"><use transform="matrix(0.04938271604938272,0,0,0.04938271604938272,0,0)" xlink:href="#bf"/><use transform="matrix(0.04938271604938272,0,0,0.04938271604938272,11.851851851851853,0)" xlink:href="#bg"/><use transform="matrix(0.04938271604938272,0,0,0.04938271604938272,16.790123456790127,0)" xlink:href="#bh"/></g><path fill="#fff" d="M177-190C167-65 218 103 67 71c-23-6-38-20-44-43l32-5c15 47 100 32 89-28v-30C133-14 115 1 83 1 29 1 15-40 15-95c0-56 16-97 71-98 29-1 48 16 59 35 1-10 0-23 2-32h30zM94-22c36 0 50-32 50-73 0-42-14-75-50-75-39 0-46 34-46 75s6 73 46 73" id="bi"/><g id="Z"><use transform="matrix(0.05,0,0,0.05,0,0)" xlink:href="#aK"/><use transform="matrix(0.05,0,0,0.05,12,0)" xlink:href="#bi"/><use transform="matrix(0.05,0,0,0.05,22,0)" xlink:href="#aC"/><use transform="matrix(0.05,0,0,0.05,32,0)" xlink:href="#al"/><use transform="matrix(0.05,0,0,0.05,42,0)" xlink:href="#az"/><use transform="matrix(0.05,0,0,0.05,47.95,0)" xlink:href="#ay"/><use transform="matrix(0.05,0,0,0.05,57.95,0)" xlink:href="#al"/></g><g id="aa"><use transform="matrix(0.05,0,0,0.05,0,0)" xlink:href="#aU"/><use transform="matrix(0.05,0,0,0.05,10,0)" xlink:href="#aJ"/></g><g id="ab"><use transform="matrix(0.05,0,0,0.05,0,0)" xlink:href="#al"/><use transform="matrix(0.05,0,0,0.05,10,0)" xlink:href="#aB"/><use transform="matrix(0.05,0,0,0.05,20,0)" xlink:href="#ak"/><use transform="matrix(0.05,0,0,0.05,25,0)" xlink:href="#aw"/><use transform="matrix(0.05,0,0,0.05,35,0)" xlink:href="#ax"/></g><g id="ac"><use transform="matrix(0.05,0,0,0.05,0,0)" xlink:href="#ay"/><use transform="matrix(0.05,0,0,0.05,10,0)" xlink:href="#aq"/></g><g id="ad"><use transform="matrix(0.05,0,0,0.05,0,0)" xlink:href="#al"/><use transform="matrix(0.05,0,0,0.05,10,0)" xlink:href="#ak"/><use transform="matrix(0.05,0,0,0.05,15,0)" xlink:href="#aw"/><use transform="matrix(0.05,0,0,0.05,25,0)" xlink:href="#aB"/><use transform="matrix(0.05,0,0,0.05,35,0)" xlink:href="#ay"/><use transform="matrix(0.05,0,0,0.05,45,0)" xlink:href="#ar"/><use transform="matrix(0.05,0,0,0.05,48.95,0)" xlink:href="#aA"/><use transform="matrix(0.05,0,0,0.05,63.900000000000006,0)" xlink:href="#aw"/><use transform="matrix(0.05,0,0,0.05,73.9,0)" xlink:href="#aB"/><use transform="matrix(0.05,0,0,0.05,83.9,0)" xlink:href="#ak"/><use transform="matrix(0.05,0,0,0.05,88.9,0)" xlink:href="#aq"/></g><path fill="#fff" d="M54-142c48-35 137-8 131 61C196 18 31 33 14-55l32-4c7 23 22 37 52 37 35-1 51-22 54-58 4-55-73-65-99-34H22l8-134h141v27H59" id="bj"/><g id="ae"><use transform="matrix(0.05,0,0,0.05,0,0)" xlink:href="#bj"/><use transform="matrix(0.05,0,0,0.05,10,0)" xlink:href="#aR"/></g><g id="af"><use transform="matrix(0.05,0,0,0.05,0,0)" xlink:href="#at"/><use transform="matrix(0.05,0,0,0.05,9,0)" xlink:href="#aq"/><use transform="matrix(0.05,0,0,0.05,19,0)" xlink:href="#aB"/><use transform="matrix(0.05,0,0,0.05,29,0)" xlink:href="#at"/><use transform="matrix(0.05,0,0,0.05,38,0)" xlink:href="#aD"/><use transform="matrix(0.05,0,0,0.05,41.95,0)" xlink:href="#aC"/><use transform="matrix(0.05,0,0,0.05,51.95,0)" xlink:href="#ar"/><use transform="matrix(0.05,0,0,0.05,55.900000000000006,0)" xlink:href="#aC"/></g><g id="ag"><use transform="matrix(0.05,0,0,0.05,0,0)" xlink:href="#aM"/><use transform="matrix(0.05,0,0,0.05,10.950000000000001,0)" xlink:href="#aN"/><use transform="matrix(0.05,0,0,0.05,20.950000000000003,0)" xlink:href="#aO"/><use transform="matrix(0.05,0,0,0.05,34.95,0)" xlink:href="#aI"/></g><g id="ah"><use transform="matrix(0.05,0,0,0.05,0,0)" xlink:href="#aU"/><use transform="matrix(0.05,0,0,0.05,10,0)" xlink:href="#aJ"/><use transform="matrix(0.05,0,0,0.05,20,0)" xlink:href="#aT"/><use transform="matrix(0.05,0,0,0.05,30,0)" xlink:href="#bb"/></g><g id="ai"><use transform="matrix(0.05,0,0,0.05,0,0)" xlink:href="#al"/><use transform="matrix(0.05,0,0,0.05,10,0)" xlink:href="#ak"/><use transform="matrix(0.05,0,0,0.05,15,0)" xlink:href="#aw"/><use transform="matrix(0.05,0,0,0.05,25,0)" xlink:href="#aB"/><use transform="matrix(0.05,0,0,0.05,35,0)" xlink:href="#ay"/><use transform="matrix(0.05,0,0,0.05,45,0)" xlink:href="#ar"/><use transform="matrix(0.05,0,0,0.05,48.95,0)" xlink:href="#aA"/><use transform="matrix(0.05,0,0,0.05,63.900000000000006,0)" xlink:href="#aw"/><use transform="matrix(0.05,0,0,0.05,73.9,0)" xlink:href="#aB"/><use transform="matrix(0.05,0,0,0.05,83.9,0)" xlink:href="#ak"/><use transform="matrix(0.05,0,0,0.05,88.9,0)" xlink:href="#aq"/><use transform="matrix(0.05,0,0,0.05,98.9,0)" xlink:href="#aP"/></g></defs></g></svg>