<svg xmlns="http://www.w3.org/2000/svg" xmlns:xlink="http://www.w3.org/1999/xlink" xmlns:lucid="lucid" width="1203.88" height="3142.03"><g transform="translate(-10379 -7219)" lucid:page-tab-id="DzQuOS0QucBl"><path d="M10381.88 7220h1200v280h-1200z" fill-opacity="0"/><path d="M10401.58 7220h1.97m9.85 0h19.7m9.86 0h1.97m9.85 0h19.7m9.86 0h1.97m9.86 0h19.7m9.86 0h1.97m9.84 0h19.7m9.86 0h1.97m9.85 0h19.7m9.86 0h1.97m9.85 0h19.7m9.85 0h1.98m9.85 0h19.7m9.86 0h1.97m9.86 0h19.7m9.85 0h1.98m9.86 0h19.7m9.85 0h1.96m9.86 0h19.7m9.85 0h1.97m9.85 0h19.7m9.85 0h1.97m9.86 0h19.7m9.85 0h1.97m9.85 0h19.7m9.86 0h1.98m9.85 0h19.7m9.86 0h1.96m9.85 0h19.72m9.85 0h1.97m9.85 0h19.7m9.85 0h1.97m9.85 0h19.7m9.86 0h1.97m9.85 0h19.7m9.86 0h1.98m9.85 0h19.7m9.86 0h1.96m9.85 0h19.7m9.87 0h1.97m9.85 0h19.7m9.84 0h1.97m9.87 0h19.7m9.85 0h1.98m9.85 0h19.7m9.85 0h1.97m9.86 0h19.7m9.85 0h1.97m9.86 0h19.7m9.86 0h1.97m9.85 0h19.7m9.86 0h1.97m9.86 0h19.7m9.86 0h1.97m9.84 0h19.7m9.86 0h1.97m9.85 0h9.85v9.52m0 9.53v1.9m0 9.53v19.04m0 9.53v1.9m0 9.53v19.04m0 9.53v1.9m0 9.53v19.04m0 9.53v1.9m0 9.53v19.04m0 9.53v1.9m0 9.53v19.04m0 9.53v1.9m0 9.53v19.04m0 9.53v1.9m0 9.53v9.52h-9.85m-9.85 0h-1.97m-9.85 0h-19.7m-9.86 0h-1.98m-9.85 0h-19.7m-9.86 0h-1.96m-9.85 0h-19.72m-9.85 0h-1.97m-9.85 0h-19.7m-9.85 0h-1.97m-9.85 0h-19.7m-9.86 0h-1.97m-9.85 0h-19.7m-9.85 0h-1.98m-9.85 0h-19.7m-9.86 0h-1.95m-9.86 0h-19.7m-9.86 0h-1.97m-9.86 0h-19.7m-9.84 0h-1.97m-9.87 0h-19.7m-9.85 0h-1.97m-9.84 0h-19.7m-9.86 0h-1.97m-9.86 0h-19.7m-9.85 0h-1.97m-9.85 0h-19.7m-9.86 0h-1.97m-9.85 0h-19.7m-9.86 0h-1.97m-9.86 0h-19.7m-9.86 0h-1.97m-9.84 0h-19.7m-9.86 0h-1.97m-9.85 0h-19.7m-9.86 0h-1.97m-9.85 0h-19.7m-9.86 0h-1.97m-9.85 0h-19.7m-9.86 0h-1.97m-9.86 0h-19.7m-9.86 0h-1.97m-9.84 0h-19.7m-9.85 0h-1.97m-9.85 0h-19.7m-9.85 0h-1.98m-9.85 0h-19.7m-9.85 0h-1.97m-9.86 0h-19.7m-9.85 0h-1.97m-9.86 0h-19.7m-9.85 0h-1.98m-9.85 0h-19.7m-9.86 0h-1.96m-9.85 0h-19.72m-9.85 0h-1.97m-9.85 0h-19.7m-9.85 0h-1.97m-9.85 0h-9.85v-9.52m0-9.53v-1.9m0-9.53v-19.04m0-9.53v-1.9m0-9.53v-19.04m0-9.53v-1.9m0-9.53v-19.04m0-9.53v-1.9m0-9.53v-19.04m0-9.53v-1.9m0-9.53v-19.04m0-9.53v-1.9m0-9.53v-19.04m0-9.53v-1.9m0-9.53V7220h9.85" stroke="#fff" stroke-width="2" fill="none"/><use xlink:href="#a" transform="matrix(1,0,0,1,10401.875,7240) translate(474.55 14.4)"/><use xlink:href="#b" transform="matrix(1,0,0,1,10401.875,7240) translate(535.55 14.4)"/><use xlink:href="#c" transform="matrix(1,0,0,1,10401.875,7240) translate(560.55 14.4)"/><use xlink:href="#d" transform="matrix(1,0,0,1,10401.875,7240) translate(626.5 14.4)"/><use xlink:href="#e" transform="matrix(1,0,0,1,10401.875,7240) translate(651.5 14.4)"/><path d="M10381.88 7560h1200v460h-1200z" fill-opacity="0"/><path d="M10401.58 7560h1.97m9.85 0h19.7m9.86 0h1.97m9.85 0h19.7m9.86 0h1.97m9.86 0h19.7m9.86 0h1.97m9.84 0h19.7m9.86 0h1.97m9.85 0h19.7m9.86 0h1.97m9.85 0h19.7m9.85 0h1.98m9.85 0h19.7m9.86 0h1.97m9.86 0h19.7m9.85 0h1.98m9.86 0h19.7m9.85 0h1.96m9.86 0h19.7m9.85 0h1.97m9.85 0h19.7m9.85 0h1.97m9.86 0h19.7m9.85 0h1.97m9.85 0h19.7m9.86 0h1.98m9.85 0h19.7m9.86 0h1.96m9.85 0h19.72m9.85 0h1.97m9.85 0h19.7m9.85 0h1.97m9.85 0h19.7m9.86 0h1.97m9.85 0h19.7m9.86 0h1.98m9.85 0h19.7m9.86 0h1.96m9.85 0h19.7m9.87 0h1.97m9.85 0h19.7m9.84 0h1.97m9.87 0h19.7m9.85 0h1.98m9.85 0h19.7m9.85 0h1.97m9.86 0h19.7m9.85 0h1.97m9.86 0h19.7m9.86 0h1.97m9.85 0h19.7m9.86 0h1.97m9.86 0h19.7m9.86 0h1.97m9.84 0h19.7m9.86 0h1.97m9.85 0h9.85v9.96m0 9.95v2m0 9.96v19.9m0 9.97v2m0 9.95v19.9m0 9.97v2m0 9.95v19.9m0 9.97v2m0 9.95v19.9m0 9.97v1.98m0 9.95v19.92m0 9.95v2m0 9.95v19.92m0 9.95v2m0 9.95v19.9m0 9.97v2m0 9.95v19.9m0 9.96v2m0 9.95v19.92m0 9.96v2m0 9.95v19.9m0 9.97v2m0 9.94v9.96h-9.85m-9.85 0h-1.97m-9.85 0h-19.7m-9.86 0h-1.98m-9.85 0h-19.7m-9.86 0h-1.96m-9.85 0h-19.72m-9.85 0h-1.97m-9.85 0h-19.7m-9.85 0h-1.97m-9.85 0h-19.7m-9.86 0h-1.97m-9.85 0h-19.7m-9.85 0h-1.98m-9.85 0h-19.7m-9.86 0h-1.95m-9.86 0h-19.7m-9.86 0h-1.97m-9.86 0h-19.7m-9.84 0h-1.97m-9.87 0h-19.7m-9.85 0h-1.97m-9.84 0h-19.7m-9.86 0h-1.97m-9.86 0h-19.7m-9.85 0h-1.97m-9.85 0h-19.7m-9.86 0h-1.97m-9.85 0h-19.7m-9.86 0h-1.97m-9.86 0h-19.7m-9.86 0h-1.97m-9.84 0h-19.7m-9.86 0h-1.97m-9.85 0h-19.7m-9.86 0h-1.97m-9.85 0h-19.7m-9.86 0h-1.97m-9.85 0h-19.7m-9.86 0h-1.97m-9.86 0h-19.7m-9.86 0h-1.97m-9.84 0h-19.7m-9.85 0h-1.97m-9.85 0h-19.7m-9.85 0h-1.98m-9.85 0h-19.7m-9.85 0h-1.97m-9.86 0h-19.7m-9.85 0h-1.97m-9.86 0h-19.7m-9.85 0h-1.98m-9.85 0h-19.7m-9.86 0h-1.96m-9.85 0h-19.72m-9.85 0h-1.97m-9.85 0h-19.7m-9.85 0h-1.97m-9.85 0h-9.85v-9.96m0-9.95v-2m0-9.96v-19.9m0-9.97v-2m0-9.95v-19.9m0-9.97v-2m0-9.95v-19.9m0-9.97v-2m0-9.95v-19.9m0-9.97v-1.98m0-9.95v-19.92m0-9.95v-2m0-9.95v-19.92m0-9.95v-2m0-9.95v-19.9m0-9.97v-2m0-9.95v-19.9m0-9.96v-2m0-9.95v-19.92m0-9.96v-2m0-9.95v-19.9m0-9.97v-2m0-9.94V7560h9.85" stroke="#fff" stroke-width="2" fill="none"/><use xlink:href="#f" transform="matrix(1,0,0,1,10401.875,7580) translate(440.175 14.4)"/><use xlink:href="#g" transform="matrix(1,0,0,1,10401.875,7580) translate(493.125 14.4)"/><use xlink:href="#h" transform="matrix(1,0,0,1,10401.875,7580) translate(609.975 14.4)"/><use xlink:href="#i" transform="matrix(1,0,0,1,10401.875,7580) translate(620.925 14.4)"/><use xlink:href="#j" transform="matrix(1,0,0,1,10401.875,7580) translate(663.875 14.4)"/><use xlink:href="#k" transform="matrix(1,0,0,1,10401.875,7580) translate(688.875 14.4)"/><path d="M10380 8100.03h1200v740h-1200z" fill-opacity="0"/><path d="M10399.7 8100.03h1.97m9.86 0h19.7m9.85 0h1.97m9.86 0h19.7m9.86 0h1.97m9.86 0h19.7m9.84 0h1.97m9.87 0h19.7m9.85 0h1.97m9.84 0h19.7m9.86 0h1.97m9.85 0h19.7m9.86 0h1.97m9.85 0h19.7m9.86 0h1.97m9.85 0h19.7m9.86 0h1.97m9.86 0h19.7m9.86 0h1.97m9.84 0h19.7m9.86 0h1.97m9.85 0h19.7m9.86 0h1.97m9.85 0h19.7m9.86 0h1.97m9.85 0h19.7m9.85 0h1.98m9.86 0h19.7m9.85 0h2m9.84 0h19.7m9.85 0h1.97m9.85 0h19.7m9.85 0h1.97m9.86 0h19.7m9.85 0h1.97m9.85 0h19.7m9.86 0h1.97m9.85 0h19.7m9.86 0h1.98m9.85 0h19.7m9.86 0h1.96m9.85 0h19.72m9.85 0h1.97m9.85 0h19.7m9.85 0h1.97m9.85 0h19.7m9.86 0h1.97m9.85 0h19.7m9.86 0h1.98m9.85 0h19.7m9.86 0h1.96m9.85 0h19.7m9.87 0h1.97m9.85 0h19.7m9.85 0h1.97m9.85 0h19.7m9.86 0h1.97m9.85 0h9.85v9.8m0 9.78v1.97m0 9.8v19.56m0 9.8v1.95m0 9.8v19.56m0 9.8v1.95m0 9.78v19.58m0 9.78v1.96m0 9.8v19.57m0 9.78v1.96m0 9.8v19.58m0 9.8v1.94m0 9.8v19.57m0 9.78v1.95m0 9.8v19.57m0 9.8v1.94m0 9.8v19.57m0 9.8v1.96m0 9.8v19.56m0 9.8v1.95m0 9.8v19.56m0 9.8v1.95m0 9.8v19.56m0 9.8v1.95m0 9.78v19.58m0 9.78v1.96m0 9.8v19.57m0 9.78v1.96m0 9.8v19.58m0 9.8v1.94m0 9.8v19.57m0 9.78v1.95m0 9.8v19.57m0 9.8v1.94m0 9.8v19.57m0 9.8v1.96m0 9.8v9.77h-9.85m-9.85 0h-1.97m-9.86 0h-19.7m-9.85 0h-1.97m-9.86 0h-19.7m-9.86 0h-1.97m-9.86 0h-19.7m-9.84 0h-1.97m-9.87 0h-19.7m-9.85 0h-1.97m-9.84 0h-19.7m-9.86 0h-1.97m-9.85 0h-19.7m-9.86 0h-1.97m-9.85 0h-19.7m-9.86 0h-1.97m-9.85 0h-19.7m-9.86 0h-1.97m-9.86 0h-19.7m-9.86 0h-1.97m-9.84 0h-19.7m-9.86 0h-1.97m-9.85 0h-19.7m-9.86 0h-1.97m-9.85 0h-19.7m-9.86 0h-1.97m-9.85 0h-19.7m-9.85 0h-1.98m-9.86 0h-19.7m-9.85 0h-2m-9.84 0h-19.7m-9.85 0h-1.97m-9.85 0h-19.7m-9.85 0h-1.97m-9.86 0h-19.7m-9.85 0h-1.97m-9.85 0h-19.7m-9.86 0h-1.97m-9.85 0h-19.7m-9.86 0h-1.98m-9.85 0h-19.7m-9.86 0h-1.96m-9.85 0h-19.72m-9.85 0h-1.97m-9.85 0h-19.7m-9.85 0h-1.97m-9.85 0h-19.7m-9.86 0h-1.97m-9.85 0h-19.7m-9.86 0h-1.98m-9.85 0h-19.7m-9.86 0h-1.96m-9.85 0h-19.7m-9.87 0h-1.97m-9.85 0h-19.7m-9.85 0h-1.97m-9.85 0h-19.7m-9.86 0h-1.97m-9.85 0h-9.85v-9.78m0-9.8v-1.95m0-9.8v-19.57m0-9.78v-1.96m0-9.8v-19.58m0-9.8v-1.94m0-9.8v-19.57m0-9.78v-1.95m0-9.8v-19.57m0-9.8v-1.95m0-9.78v-19.58m0-9.8v-1.96m0-9.78v-19.58m0-9.8v-1.95m0-9.8v-19.56m0-9.8v-1.95m0-9.8v-19.56m0-9.8v-1.95m0-9.78v-19.57m0-9.8v-1.95m0-9.8v-19.57m0-9.78v-1.96m0-9.8v-19.58m0-9.8v-1.94m0-9.8v-19.57m0-9.78v-1.95m0-9.8v-19.57m0-9.8v-1.95m0-9.78v-19.58m0-9.8v-1.96m0-9.78v-19.58m0-9.8v-1.95m0-9.8v-19.56m0-9.8v-1.95m0-9.8v-19.56m0-9.8v-1.95m0-9.78v-9.8h9.85" stroke="#fff" stroke-width="2" fill="none"/><use xlink:href="#f" transform="matrix(1,0,0,1,10400,8120.033157195663) translate(463.675 14.4)"/><use xlink:href="#l" transform="matrix(1,0,0,1,10400,8120.033157195663) translate(516.625 14.4)"/><use xlink:href="#m" transform="matrix(1,0,0,1,10400,8120.033157195663) translate(542.625 14.4)"/><path d="M10380 8920.03h1200v1100h-1200z" fill-opacity="0"/><path d="M10399.7 8920.03h1.97m9.86 0h19.7m9.85 0h1.97m9.86 0h19.7m9.86 0h1.97m9.86 0h19.7m9.84 0h1.97m9.87 0h19.7m9.85 0h1.97m9.84 0h19.7m9.86 0h1.97m9.85 0h19.7m9.86 0h1.97m9.85 0h19.7m9.86 0h1.97m9.85 0h19.7m9.86 0h1.97m9.86 0h19.7m9.86 0h1.97m9.84 0h19.7m9.86 0h1.97m9.85 0h19.7m9.86 0h1.97m9.85 0h19.7m9.86 0h1.97m9.85 0h19.7m9.85 0h1.98m9.86 0h19.7m9.85 0h2m9.84 0h19.7m9.85 0h1.97m9.85 0h19.7m9.85 0h1.97m9.86 0h19.7m9.85 0h1.97m9.85 0h19.7m9.86 0h1.97m9.85 0h19.7m9.86 0h1.98m9.85 0h19.7m9.86 0h1.96m9.85 0h19.72m9.85 0h1.97m9.85 0h19.7m9.85 0h1.97m9.85 0h19.7m9.86 0h1.97m9.85 0h19.7m9.86 0h1.98m9.85 0h19.7m9.86 0h1.96m9.85 0h19.7m9.87 0h1.97m9.85 0h19.7m9.85 0h1.97m9.85 0h19.7m9.86 0h1.97m9.85 0h9.85v10.08m0 10.08v2m0 10.1v20.13m0 10.1v2m0 10.08v20.14m0 10.08v2m0 10.08v20.15m0 10.07v2.02m0 10.07v20.14m0 10.07v2.02m0 10.08v20.15m0 10.07v2m0 10.1v20.13m0 10.08v2m0 10.08v20.16m0 10.07v2.02m0 10.07v20.15m0 10.07v2.02m0 10.07v20.15m0 10.07v2m0 10.1v20.13m0 10.08v2m0 10.08v20.15m0 10.06v2.02m0 10.07v20.15m0 10.07v2.02m0 10.06v20.15m0 10.08v2m0 10.1v20.13m0 10.1v2m0 10.08v20.14m0 10.08v2m0 10.08v20.15m0 10.07v2.02m0 10.07v20.14m0 10.07v2.02m0 10.08v20.15m0 10.07v2m0 10.1v20.13m0 10.08v2m0 10.08v20.16m0 10.07v2.02m0 10.07v20.15m0 10.07v2.02m0 10.07v20.15m0 10.07v2m0 10.1v20.13m0 10.08v2m0 10.08v20.15m0 10.06v2.02m0 10.07v20.15m0 10.07v2.02m0 10.06v10.07h-9.85m-9.85 0h-1.97m-9.86 0h-19.7m-9.85 0h-1.97m-9.86 0h-19.7m-9.86 0h-1.97m-9.86 0h-19.7m-9.84 0h-1.97m-9.87 0h-19.7m-9.85 0h-1.97m-9.84 0h-19.7m-9.86 0h-1.97m-9.85 0h-19.7m-9.86 0h-1.97m-9.85 0h-19.7m-9.86 0h-1.97m-9.85 0h-19.7m-9.86 0h-1.97m-9.86 0h-19.7m-9.86 0h-1.97m-9.84 0h-19.7m-9.86 0h-1.97m-9.85 0h-19.7m-9.86 0h-1.97m-9.85 0h-19.7m-9.86 0h-1.97m-9.85 0h-19.7m-9.85 0h-1.98m-9.86 0h-19.7m-9.85 0h-2m-9.84 0h-19.7m-9.85 0h-1.97m-9.85 0h-19.7m-9.85 0h-1.97m-9.86 0h-19.7m-9.85 0h-1.97m-9.85 0h-19.7m-9.86 0h-1.97m-9.85 0h-19.7m-9.86 0h-1.98m-9.85 0h-19.7m-9.86 0h-1.96m-9.85 0h-19.72m-9.85 0h-1.97m-9.85 0h-19.7m-9.85 0h-1.97m-9.85 0h-19.7m-9.86 0h-1.97m-9.85 0h-19.7m-9.86 0h-1.98m-9.85 0h-19.7m-9.86 0h-1.96m-9.85 0h-19.7m-9.87 0h-1.97m-9.85 0h-19.7m-9.85 0h-1.97m-9.85 0h-19.7m-9.86 0h-1.97m-9.85 0h-9.85v-10.07m0-10.07v-2.03m0-10.07v-20.15m0-10.07v-2.02m0-10.07v-20.16m0-10.07v-2m0-10.1v-20.13m0-10.08v-2m0-10.08v-20.15m0-10.07v-2.02m0-10.07v-20.15m0-10.07v-2.02m0-10.07v-20.15m0-10.06v-2m0-10.1v-20.13m0-10.07v-2m0-10.08v-20.15m0-10.08v-2m0-10.08v-20.15m0-10.08v-2.02m0-10.07v-20.15m0-10.07v-2m0-10.08v-20.14m0-10.08v-2m0-10.1v-20.13m0-10.08v-2.02m0-10.07v-20.14m0-10.07v-2.03m0-10.07v-20.15m0-10.07v-2.02m0-10.07v-20.16m0-10.07v-2m0-10.1v-20.13m0-10.08v-2m0-10.08v-20.15m0-10.07v-2.02m0-10.07v-20.15m0-10.07v-2.02m0-10.07v-20.15m0-10.06v-2m0-10.1v-20.13m0-10.07v-2m0-10.08v-20.15m0-10.08v-2m0-10.08v-20.15m0-10.08v-2.02m0-10.07v-20.15m0-10.07v-2m0-10.08v-20.14m0-10.08v-2m0-10.1v-20.13m0-10.08v-2.02m0-10.07v-10.07h9.85" stroke="#fff" stroke-width="2" fill="none"/><use xlink:href="#f" transform="matrix(1,0,0,1,10400,8940.033157195663) translate(411.15 14.4)"/><use xlink:href="#l" transform="matrix(1,0,0,1,10400,8940.033157195663) translate(464.09999999999997 14.4)"/><use xlink:href="#n" transform="matrix(1,0,0,1,10400,8940.033157195663) translate(490.09999999999997 14.4)"/><use xlink:href="#h" transform="matrix(1,0,0,1,10400,8940.033157195663) translate(546.05 14.4)"/><use xlink:href="#o" transform="matrix(1,0,0,1,10400,8940.033157195663) translate(557 14.4)"/><use xlink:href="#p" transform="matrix(1,0,0,1,10400,8940.033157195663) translate(584.95 14.4)"/><use xlink:href="#d" transform="matrix(1,0,0,1,10400,8940.033157195663) translate(672.9 14.4)"/><use xlink:href="#q" transform="matrix(1,0,0,1,10400,8940.033157195663) translate(697.9 14.4)"/><path d="M10380 10080.03h480v280h-480z" fill-opacity="0"/><path d="M10400.78 10080.03h2.08m10.4 0h20.77m10.4 0h2.06m10.38 0h20.78m10.4 0h2.07m10.4 0h20.77m10.4 0h2.07m10.4 0h20.76m10.4 0h2.07m10.4 0h20.77m10.4 0h2.07m10.4 0h20.77m10.4 0h2.07m10.4 0h20.77m10.4 0h2.07m10.4 0h20.78m10.4 0h2.07m10.4 0h20.77m10.4 0h2.06m10.4 0h20.77m10.4 0h2.07m10.4 0h10.38v9.53m0 9.52v1.9m0 9.53v19.06m0 9.52v1.9m0 9.53v19.06m0 9.52v1.9m0 9.53v19.06m0 9.52v1.9m0 9.53v19.06m0 9.52v1.9m0 9.53v19.06m0 9.52v1.9m0 9.53v19.06m0 9.52v1.9m0 9.53v9.53h-10.4m-10.38 0h-2.08m-10.4 0h-20.77m-10.4 0h-2.06m-10.38 0h-20.78m-10.4 0h-2.07m-10.4 0h-20.77m-10.4 0h-2.07m-10.4 0h-20.76m-10.4 0h-2.07m-10.4 0h-20.77m-10.4 0h-2.07m-10.4 0h-20.77m-10.4 0h-2.07m-10.4 0h-20.77m-10.4 0h-2.07m-10.4 0h-20.78m-10.4 0h-2.07m-10.4 0h-20.77m-10.4 0h-2.06m-10.4 0h-20.77m-10.4 0h-2.07m-10.4 0H10380v-9.52m0-9.5v-1.92m0-9.52v-19.05m0-9.5v-1.92m0-9.52v-19.05m0-9.5v-1.92m0-9.52v-19.05m0-9.5v-1.92m0-9.52v-19.05m0-9.5v-1.92m0-9.52v-19.05m0-9.5v-1.92m0-9.52v-19.05m0-9.5v-1.92m0-9.52v-9.53h10.4" stroke="#fff" stroke-width="2" fill="none"/><use xlink:href="#r" transform="matrix(1,0,0,1,10400,10100.033157195663) translate(132.1 14.4)"/><use xlink:href="#s" transform="matrix(1,0,0,1,10400,10100.033157195663) translate(184.1 14.4)"/><use xlink:href="#h" transform="matrix(1,0,0,1,10400,10100.033157195663) translate(199.1 14.4)"/><use xlink:href="#t" transform="matrix(1,0,0,1,10400,10100.033157195663) translate(210.05 14.4)"/><path d="M11100 10080.03h480v280h-480z" fill-opacity="0"/><path d="M11120.78 10080.03h2.08m10.4 0h20.77m10.4 0h2.06m10.38 0h20.78m10.4 0h2.07m10.4 0h20.77m10.4 0h2.07m10.4 0h20.76m10.4 0h2.07m10.4 0h20.77m10.4 0h2.07m10.4 0h20.77m10.4 0h2.07m10.4 0h20.77m10.4 0h2.07m10.4 0h20.78m10.4 0h2.07m10.4 0h20.77m10.4 0h2.06m10.4 0h20.77m10.4 0h2.07m10.4 0h10.38v9.53m0 9.52v1.9m0 9.53v19.06m0 9.52v1.9m0 9.53v19.06m0 9.52v1.9m0 9.53v19.06m0 9.52v1.9m0 9.53v19.06m0 9.52v1.9m0 9.53v19.06m0 9.52v1.9m0 9.53v19.06m0 9.52v1.9m0 9.53v9.53h-10.4m-10.38 0h-2.08m-10.4 0h-20.77m-10.4 0h-2.06m-10.38 0h-20.78m-10.4 0h-2.07m-10.4 0h-20.77m-10.4 0h-2.07m-10.4 0h-20.76m-10.4 0h-2.07m-10.4 0h-20.77m-10.4 0h-2.07m-10.4 0h-20.77m-10.4 0h-2.07m-10.4 0h-20.77m-10.4 0h-2.07m-10.4 0h-20.78m-10.4 0h-2.07m-10.4 0h-20.77m-10.4 0h-2.06m-10.4 0h-20.77m-10.4 0h-2.07m-10.4 0H11100v-9.52m0-9.5v-1.92m0-9.52v-19.05m0-9.5v-1.92m0-9.52v-19.05m0-9.5v-1.92m0-9.52v-19.05m0-9.5v-1.92m0-9.52v-19.05m0-9.5v-1.92m0-9.52v-19.05m0-9.5v-1.92m0-9.52v-19.05m0-9.5v-1.92m0-9.52v-9.53h10.4" stroke="#fff" stroke-width="2" fill="none"/><use xlink:href="#r" transform="matrix(1,0,0,1,11120,10100.033157195663) translate(127.05 14.4)"/><use xlink:href="#u" transform="matrix(1,0,0,1,11120,10100.033157195663) translate(179.05 14.4)"/><use xlink:href="#v" transform="matrix(1,0,0,1,11120,10100.033157195663) translate(194.05 14.4)"/><use xlink:href="#w" transform="matrix(1,0,0,1,11120,10100.033157195663) translate(209.05 14.4)"/><use xlink:href="#x" transform="matrix(1,0,0,1,11120,10100.033157195663) translate(220 36)"/><path d="M10461.88 7300h160v120h-160z" stroke="#fff" stroke-width="2" fill-opacity="0"/><use xlink:href="#y" transform="matrix(1,0,0,1,10461.875,7300) translate(64.53 63.15)"/><path d="M10681.88 7300h160v120h-160z" stroke="#fff" stroke-width="2" fill-opacity="0"/><use xlink:href="#z" transform="matrix(1,0,0,1,10681.875,7300) translate(24.07999999999999 63.15)"/><use xlink:href="#A" transform="matrix(1,0,0,1,10681.875,7300) translate(81.03 63.15)"/><path d="M10901.88 7300h160v120h-160z" stroke="#fff" stroke-width="2" fill-opacity="0"/><use xlink:href="#B" transform="matrix(1,0,0,1,10901.875,7300) translate(42.555 63.15)"/><use xlink:href="#C" transform="matrix(1,0,0,1,10901.875,7300) translate(74.505 63.15)"/><path d="M11121.88 7300h160v120h-160z" stroke="#fff" stroke-width="2" fill-opacity="0"/><use xlink:href="#D" transform="matrix(1,0,0,1,11121.875,7300) translate(31.054999999999993 51.9)"/><use xlink:href="#E" transform="matrix(1,0,0,1,11121.875,7300) translate(94.005 51.9)"/><use xlink:href="#F" transform="matrix(1,0,0,1,11121.875,7300) translate(47.05499999999999 73.5)"/><path d="M11341.88 7300h160v120h-160z" stroke="#fff" stroke-width="2" fill-opacity="0"/><use xlink:href="#G" transform="matrix(1,0,0,1,11341.875,7300) translate(11.554999999999987 51.9)"/><use xlink:href="#H" transform="matrix(1,0,0,1,11341.875,7300) translate(90.505 51.9)"/><use xlink:href="#I" transform="matrix(1,0,0,1,11341.875,7300) translate(50.029999999999994 73.5)"/><use xlink:href="#J" transform="matrix(1,0,0,1,11341.875,7300) translate(65.03 73.5)"/><path d="M10900 7660h160v120h-160z" stroke="#fff" stroke-width="2" fill-opacity="0"/><use xlink:href="#K" transform="matrix(1,0,0,1,10900,7660) translate(8.079999999999993 29.4)"/><use xlink:href="#L" transform="matrix(1,0,0,1,10900,7660) translate(63.029999999999994 29.4)"/><use xlink:href="#M" transform="matrix(1,0,0,1,10900,7660) translate(32.55499999999999 51)"/><use xlink:href="#N" transform="matrix(1,0,0,1,10900,7660) translate(93.505 51)"/><use xlink:href="#O" transform="matrix(1,0,0,1,10900,7660) translate(8.829999999999993 72.60000000000001)"/><use xlink:href="#d" transform="matrix(1,0,0,1,10900,7660) translate(58.779999999999994 72.60000000000001)"/><use xlink:href="#P" transform="matrix(1,0,0,1,10900,7660) translate(83.78 72.60000000000001)"/><use xlink:href="#Q" transform="matrix(1,0,0,1,10900,7660) translate(140.68 72.60000000000001)"/><use xlink:href="#R" transform="matrix(1,0,0,1,10900,7660) translate(52.58 94.20000000000002)"/><path d="M10509.4 7660h240v120h-240z" fill-opacity="0"/><path d="M10519.4 7660h4m8 0h4m8 0h4m8 0h4m8 0h4m8 0h4m8 0h4m8 0h4m8 0h4m8 0h4m8 0h4m8 0h4m8 0h4m8 0h4m8 0h4m8 0h4m8 0h4m8 0h4m8 0h4m8 0h2v2m0 8v4m0 8v4m0 8v4m0 8v4m0 8v4m0 8v4m0 8v4m0 8v4m0 8v4m0 8v2h-2m-8 0h-4m-8 0h-4m-8 0h-4m-8 0h-4m-8 0h-4m-8 0h-4m-8 0h-4m-8 0h-4m-8 0h-4m-8 0h-4m-8 0h-4m-8 0h-4m-8 0h-4m-8 0h-4m-8 0h-4m-8 0h-4m-8 0h-4m-8 0h-4m-8 0h-4m-8 0h-2v-2m0-8v-4m0-8v-4m0-8v-4m0-8v-4m0-8v-4m0-8v-4m0-8v-4m0-8v-4m0-8v-4m0-8v-2h2" stroke="#fff" stroke-width="2" fill="none"/><use xlink:href="#S" transform="matrix(1,0,0,1,10509.409273062833,7660) translate(23.104999999999997 29.4)"/><use xlink:href="#b" transform="matrix(1,0,0,1,10509.409273062833,7660) translate(98.00500000000001 29.4)"/><use xlink:href="#T" transform="matrix(1,0,0,1,10509.409273062833,7660) translate(123.00500000000001 29.4)"/><use xlink:href="#U" transform="matrix(1,0,0,1,10509.409273062833,7660) translate(11.604999999999999 51)"/><use xlink:href="#V" transform="matrix(1,0,0,1,10509.409273062833,7660) translate(49.555 51)"/><use xlink:href="#W" transform="matrix(1,0,0,1,10509.409273062833,7660) translate(89.505 51)"/><use xlink:href="#X" transform="matrix(1,0,0,1,10509.409273062833,7660) translate(139.455 51)"/><use xlink:href="#Y" transform="matrix(1,0,0,1,10509.409273062833,7660) translate(154.455 51)"/><use xlink:href="#Z" transform="matrix(1,0,0,1,10509.409273062833,7660) translate(7.329999999999993 72.60000000000001)"/><use xlink:href="#aa" transform="matrix(1,0,0,1,10509.409273062833,7660) translate(42.879999999999995 72.60000000000001)"/><use xlink:href="#ab" transform="matrix(1,0,0,1,10509.409273062833,7660) translate(81.83 72.60000000000001)"/><use xlink:href="#I" transform="matrix(1,0,0,1,10509.409273062833,7660) translate(153.78 72.60000000000001)"/><use xlink:href="#ac" transform="matrix(1,0,0,1,10509.409273062833,7660) translate(168.78 72.60000000000001)"/><use xlink:href="#b" transform="matrix(1,0,0,1,10509.409273062833,7660) translate(61.07999999999999 94.20000000000002)"/><use xlink:href="#ad" transform="matrix(1,0,0,1,10509.409273062833,7660) translate(86.07999999999998 94.20000000000002)"/><use xlink:href="#ae" transform="matrix(1,0,0,1,10509.409273062833,7660) translate(136.03 94.20000000000002)"/><path d="M10898.13 7840.03h163.75v120h-163.75z" stroke="#fff" stroke-width="2" fill-opacity="0"/><use xlink:href="#af" transform="matrix(1,0,0,1,10898.125,7840.033157195663) translate(38.05499999999999 29.4)"/><use xlink:href="#ag" transform="matrix(1,0,0,1,10898.125,7840.033157195663) translate(106.95500000000001 29.4)"/><use xlink:href="#ah" transform="matrix(1,0,0,1,10898.125,7840.033157195663) translate(25.58 51)"/><use xlink:href="#ai" transform="matrix(1,0,0,1,10898.125,7840.033157195663) translate(128.43 51)"/><use xlink:href="#aj" transform="matrix(1,0,0,1,10898.125,7840.033157195663) translate(32.555 72.60000000000001)"/><use xlink:href="#ak" transform="matrix(1,0,0,1,10898.125,7840.033157195663) translate(80.505 72.60000000000001)"/><use xlink:href="#al" transform="matrix(1,0,0,1,10898.125,7840.033157195663) translate(121.455 72.60000000000001)"/><use xlink:href="#am" transform="matrix(1,0,0,1,10898.125,7840.033157195663) translate(44.205 94.20000000000002)"/><path d="M10980 7781.5v26.88" stroke="#fff" fill="none"/><path d="M10980.48 7781.5h-.95v-.5h.94z" stroke="#fff" stroke-width=".05" fill="#fff"/><path d="M10980 7837.41l-9.27-28.52h18.54z" stroke="#fff" fill="#fff"/><path d="M11063.38 7900.03h54.38" stroke="#fff" fill="none"/><path d="M11063.4 7900.5h-.52v-.94h.5z" stroke="#fff" stroke-width=".05" fill="#fff"/><path d="M11146.8 7900.03l-28.54 9.27v-18.54z" stroke="#fff" fill="#fff"/><a xlink:href="https://lucid.app/lucidchart/24d23332-b7b3-4953-8bf8-4d155baff2c4/edit?view_items=rT9uV8OFOMuT&amp;page=DzQuOS0QucBl&amp;invitationId=inv_2ff18f6b-3775-4c2f-9645-ba7a9efe92fe" target="_blank"><path d="M11269.4 7948.03c0 6.63-26.85 12-60 12-33.13 0-60-5.37-60-12v-96c0-6.62 26.87-12 60-12 33.15 0 60 5.38 60 12z" stroke="#fff" stroke-width="2" fill-opacity="0"/><path d="M11269.4 7852.03c0 6.63-26.85 12-60 12-33.13 0-60-5.37-60-12" stroke="#fff" stroke-width="2" fill="none"/><use xlink:href="#an" transform="matrix(1,0,0,1,11154.409273062833,7869.033157195663) translate(33.525 46.65)"/><path class="lucid-link lucid-hotspot lucid-overlay-hotspot" d="M11269.4 7948.03c0 6.63-26.85 12-60 12-33.13 0-60-5.37-60-12v-96c0-6.62 26.87-12 60-12 33.15 0 60 5.38 60 12z" fill="none"/><path class="lucid-link lucid-hotspot lucid-overlay-hotspot" d="M11269.4 7852.03c0 6.63-26.85 12-60 12-33.13 0-60-5.37-60-12" fill="none"/></a><path d="M10809.4 7646a6 6 0 0 1 6-6h68a6 6 0 0 1 6 6v148a6 6 0 0 1-6 6h-68a6 6 0 0 1-6-6z" fill="none"/><path d="M10889.4 7800c-5.5 0-10-4.48-10-10v-60c0-5.52-4.47-10-10-10 5.53 0 10-4.48 10-10v-60c0-5.52 4.5-10 10-10" stroke="#fff" fill="none"/><use xlink:href="#ao" transform="matrix(1,0,0,1,10814.409273062833,7645) translate(-31.900000000000006 78.60000000000001)"/><path d="M10809.4 7826.03a6 6 0 0 1 6-6h68a6 6 0 0 1 6 6v148a6 6 0 0 1-6 6h-68a6 6 0 0 1-6-6z" fill="none"/><path d="M10889.4 7980.03c-5.5 0-10-4.47-10-10v-60c0-5.52-4.47-10-10-10 5.53 0 10-4.47 10-10v-60c0-5.52 4.5-10 10-10" stroke="#fff" fill="none"/><use xlink:href="#ap" transform="matrix(1,0,0,1,10814.409273062833,7825.033157195663) translate(-30 67.8)"/><use xlink:href="#aq" transform="matrix(1,0,0,1,10814.409273062833,7825.033157195663) translate(-7.800000000000004 89.4)"/><path d="M11089.4 7666a6 6 0 0 1 6-6H11346a6 6 0 0 1 6 6v108a6 6 0 0 1-6 6h-250.57a6 6 0 0 1-6-6z" fill="#fff" fill-opacity="0"/><path d="M11325.72 7660h20.26a6 6 0 0 1 6 6v108a6 6 0 0 1-6 6h-20.26" stroke="#fff" fill="none"/><use xlink:href="#ar" transform="matrix(1,0,0,1,11094.409273062853,7665) translate(0 15.399999999999993)"/><use xlink:href="#as" transform="matrix(1,0,0,1,11094.409273062853,7665) translate(45 15.399999999999993)"/><use xlink:href="#X" transform="matrix(1,0,0,1,11094.409273062853,7665) translate(138.9 15.399999999999993)"/><use xlink:href="#at" transform="matrix(1,0,0,1,11094.409273062853,7665) translate(153.9 15.399999999999993)"/><use xlink:href="#ai" transform="matrix(1,0,0,1,11094.409273062853,7665) translate(214.85000000000002 15.399999999999993)"/><use xlink:href="#au" transform="matrix(1,0,0,1,11094.409273062853,7665) translate(0 36.99999999999999)"/><use xlink:href="#av" transform="matrix(1,0,0,1,11094.409273062853,7665) translate(67.85000000000001 36.99999999999999)"/><use xlink:href="#aw" transform="matrix(1,0,0,1,11094.409273062853,7665) translate(97.80000000000001 36.99999999999999)"/><use xlink:href="#ax" transform="matrix(1,0,0,1,11094.409273062853,7665) translate(127.75000000000001 36.99999999999999)"/><use xlink:href="#j" transform="matrix(1,0,0,1,11094.409273062853,7665) translate(177.75 36.99999999999999)"/><use xlink:href="#ay" transform="matrix(1,0,0,1,11094.409273062853,7665) translate(202.75 36.99999999999999)"/><use xlink:href="#ak" transform="matrix(1,0,0,1,11094.409273062853,7665) translate(0 58.599999999999994)"/><use xlink:href="#az" transform="matrix(1,0,0,1,11094.409273062853,7665) translate(40.95 58.599999999999994)"/><use xlink:href="#aA" transform="matrix(1,0,0,1,11094.409273062853,7665) translate(55.95 58.599999999999994)"/><use xlink:href="#aB" transform="matrix(1,0,0,1,11094.409273062853,7665) translate(119.85000000000001 58.599999999999994)"/><use xlink:href="#I" transform="matrix(1,0,0,1,11094.409273062853,7665) translate(166.70000000000002 58.599999999999994)"/><use xlink:href="#aC" transform="matrix(1,0,0,1,11094.409273062853,7665) translate(181.70000000000002 58.599999999999994)"/><use xlink:href="#j" transform="matrix(1,0,0,1,11094.409273062853,7665) translate(0 80.20000000000002)"/><use xlink:href="#p" transform="matrix(1,0,0,1,11094.409273062853,7665) translate(25 80.20000000000002)"/><use xlink:href="#d" transform="matrix(1,0,0,1,11094.409273062853,7665) translate(112.95 80.20000000000002)"/><use xlink:href="#aD" transform="matrix(1,0,0,1,11094.409273062853,7665) translate(137.95 80.20000000000002)"/><use xlink:href="#aE" transform="matrix(1,0,0,1,11094.409273062853,7665) translate(196.85 80.20000000000002)"/><use xlink:href="#aF" transform="matrix(1,0,0,1,11094.409273062853,7665) translate(0 101.80000000000001)"/><use xlink:href="#aG" transform="matrix(1,0,0,1,11094.409273062853,7665) translate(15 101.80000000000001)"/><use xlink:href="#aH" transform="matrix(1,0,0,1,11094.409273062853,7665) translate(108.9 101.80000000000001)"/><path d="M10889.4 9000.03h160v120h-160z" stroke="#fff" stroke-width="2" fill-opacity="0"/><g><use xlink:href="#aI" transform="matrix(1,0,0,1,10889.409273062833,9000.033157195663) translate(42.379999999999995 40.65)"/><use xlink:href="#aJ" transform="matrix(1,0,0,1,10889.409273062833,9000.033157195663) translate(102.63 40.65)"/><use xlink:href="#aK" transform="matrix(1,0,0,1,10889.409273062833,9000.033157195663) translate(32.004999999999995 62.25)"/><use xlink:href="#ai" transform="matrix(1,0,0,1,10889.409273062833,9000.033157195663) translate(118.005 62.25)"/><use xlink:href="#aL" transform="matrix(1,0,0,1,10889.409273062833,9000.033157195663) translate(37.05499999999999 83.85000000000001)"/></g><path d="M10889.4 9180.03h160v120h-160z" stroke="#fff" stroke-width="2" fill-opacity="0"/><g><use xlink:href="#aI" transform="matrix(1,0,0,1,10889.409273062833,9180.033157195663) translate(9.404999999999996 51.9)"/><use xlink:href="#aM" transform="matrix(1,0,0,1,10889.409273062833,9180.033157195663) translate(69.655 51.9)"/><use xlink:href="#aN" transform="matrix(1,0,0,1,10889.409273062833,9180.033157195663) translate(89.655 51.9)"/><use xlink:href="#ai" transform="matrix(1,0,0,1,10889.409273062833,9180.033157195663) translate(140.60500000000002 51.9)"/><use xlink:href="#aO" transform="matrix(1,0,0,1,10889.409273062833,9180.033157195663) translate(58.005 73.5)"/></g><path d="M10889.4 9360.03h160v120h-160z" stroke="#fff" stroke-width="2" fill-opacity="0"/><g><use xlink:href="#aI" transform="matrix(1,0,0,1,10889.409273062833,9360.033157195663) translate(6.429999999999987 51.9)"/><use xlink:href="#aP" transform="matrix(1,0,0,1,10889.409273062833,9360.033157195663) translate(66.67999999999999 51.9)"/><use xlink:href="#aQ" transform="matrix(1,0,0,1,10889.409273062833,9360.033157195663) translate(86.67999999999999 51.9)"/><use xlink:href="#b" transform="matrix(1,0,0,1,10889.409273062833,9360.033157195663) translate(39.57999999999999 73.5)"/><use xlink:href="#aR" transform="matrix(1,0,0,1,10889.409273062833,9360.033157195663) translate(64.57999999999998 73.5)"/></g><path d="M11069.4 9600.03h160v120h-160z" stroke="#fff" stroke-width="2" fill-opacity="0"/><g><use xlink:href="#aI" transform="matrix(1,0,0,1,11069.409273062833,9600.033157195663) translate(5.904999999999996 51.9)"/><use xlink:href="#aS" transform="matrix(1,0,0,1,11069.409273062833,9600.033157195663) translate(66.155 51.9)"/><use xlink:href="#aT" transform="matrix(1,0,0,1,11069.409273062833,9600.033157195663) translate(86.155 51.9)"/><use xlink:href="#q" transform="matrix(1,0,0,1,11069.409273062833,9600.033157195663) translate(54.529999999999994 73.5)"/></g><path d="M11249.4 9880.03h160v120h-160z" stroke="#fff" stroke-width="2" fill-opacity="0"/><g><use xlink:href="#aI" transform="matrix(1,0,0,1,11249.409273062833,9880.033157195663) translate(12.929999999999987 29.4)"/><use xlink:href="#aU" transform="matrix(1,0,0,1,11249.409273062833,9880.033157195663) translate(73.17999999999999 29.4)"/><use xlink:href="#aV" transform="matrix(1,0,0,1,11249.409273062833,9880.033157195663) translate(93.17999999999999 29.4)"/><use xlink:href="#aW" transform="matrix(1,0,0,1,11249.409273062833,9880.033157195663) translate(6.054999999999987 51)"/><use xlink:href="#aX" transform="matrix(1,0,0,1,11249.409273062833,9880.033157195663) translate(74.005 51)"/><use xlink:href="#aY" transform="matrix(1,0,0,1,11249.409273062833,9880.033157195663) translate(84.005 51)"/><use xlink:href="#aZ" transform="matrix(1,0,0,1,11249.409273062833,9880.033157195663) translate(133.955 51)"/><use xlink:href="#ba" transform="matrix(1,0,0,1,11249.409273062833,9880.033157195663) translate(48.58 72.60000000000001)"/><use xlink:href="#bb" transform="matrix(1,0,0,1,11249.409273062833,9880.033157195663) translate(91.43 72.60000000000001)"/><use xlink:href="#bc" transform="matrix(1,0,0,1,11249.409273062833,9880.033157195663) translate(31.07999999999999 94.20000000000002)"/></g><path d="M10540 10160.03h160v120h-160z" stroke="#fff" stroke-width="2" fill-opacity="0"/><g><use xlink:href="#bd" transform="matrix(1,0,0,1,10540,10160.033157195663) translate(13.604999999999999 40.65)"/><use xlink:href="#aF" transform="matrix(1,0,0,1,10540,10160.033157195663) translate(73.555 40.65)"/><use xlink:href="#be" transform="matrix(1,0,0,1,10540,10160.033157195663) translate(88.555 40.65)"/><use xlink:href="#ak" transform="matrix(1,0,0,1,10540,10160.033157195663) translate(15.104999999999999 62.25)"/><use xlink:href="#bf" transform="matrix(1,0,0,1,10540,10160.033157195663) translate(56.055 62.25)"/><use xlink:href="#ag" transform="matrix(1,0,0,1,10540,10160.033157195663) translate(125.905 62.25)"/><use xlink:href="#bg" transform="matrix(1,0,0,1,10540,10160.033157195663) translate(32.55499999999999 83.85000000000001)"/></g><path d="M10969.42 9481.53v.55l.07.98.1.93.12.88.16.85.2.82.22.8.25.76.27.75.3.73.35.72.36.7.4.7.44.68.48.7.52.67.57.7.62.68.68.7.74.7.83.7.93.74 1.03.74 1.15.78 1.32.8 1.5.8 1.72.86 2 .9 2.4.94 2.9 1 3.6 1.1 4.62 1.17 6.34 1.34 9.9 1.65 66.7 8.8 9.12 1.92 7.1 1.82 5.78 1.73 4.88 1.7 4.18 1.65 3.64 1.62 3.22 1.6 2.86 1.57 2.57 1.56 2.33 1.54 2.1 1.53 1.94 1.53 1.78 1.54 1.64 1.53 1.5 1.55 1.4 1.56 1.32 1.6 1.22 1.6 1.13 1.62 1.07 1.66.98 1.7.92 1.77.85 1.8.8 1.9.72 1.94.66 2.02.6 2.14.52 2.24.34 1.77" stroke="#fff" stroke-linejoin="round" fill="none"/><path d="M10969.9 9481.54l-.95.02-.02-.53h.95z" stroke="#fff" stroke-width=".05" fill="#fff"/><path d="M11149.46 9597.42l-8.38-28.8 18.54.57z" stroke="#fff" fill="#fff"/><path d="M10969.4 9481.54l.47 327.1-3.84 62.3-4.77 45.78-5.3 36.08-5.62 29.53-5.8 24.8-5.9 21.22-6 18.42-6 16.17-6.02 14.35-6.03 12.82-6.05 11.56-6.05 10.48-6.06 9.56-6.1 8.76-6.1 8.06-6.17 7.45-6.22 6.9-6.3 6.44-6.38 6-6.5 5.6-6.62 5.25-6.77 4.9-6.94 4.62-7.15 4.33-7.38 4.05-7.63 3.8-7.94 3.52-8.26 3.27-8.66 3-9.1 2.75-9.58 2.46-10.17 2.17-10.84 1.83-11.58 1.45-2.48.2" stroke="#fff" stroke-linejoin="round" fill="none"/><path d="M10969.9 9481.56h-.97v-.53h.95z" stroke="#fff" stroke-width=".05" fill="#fff"/><path d="M10702.62 10219.96l28.05-10.63.9 18.52z" stroke="#fff" fill="#fff"/><path d="M11149.42 9721.53l.03 1.38.1 1.76.18 1.63.23 1.53.27 1.45.33 1.4.37 1.3.4 1.27.46 1.23.5 1.18.53 1.15.58 1.12.65 1.1.68 1.08.74 1.06.8 1.05.86 1.06.94 1.04 1.03 1.04 1.1 1.05 1.24 1.06 1.36 1.07 1.5 1.1 1.7 1.12 1.9 1.15 2.18 1.2 2.52 1.24 2.96 1.32 3.55 1.4 4.42 1.54 5.76 1.73 8.27 2.1 17.64 3.68 36.44 7.27 10.6 2.7 7.85 2.37 6.33 2.2 5.34 2.12 4.6 2.05 4.07 2.02 3.6 1.98 3.27 1.97 2.96 1.96 2.7 1.97 2.5 1.97 2.3 1.98 2.13 2 1.98 2.05 1.87 2.07 1.75 2.1 1.65 2.18 1.54 2.23 1.45 2.3 1.37 2.37 1.3 2.47 1.2 2.58 1.15 2.7 1.05 2.84.98 3 .88 3.2.8 3.38.7 3.64.57 3.92.45 4.25.03.54" stroke="#fff" stroke-linejoin="round" fill="none"/><path d="M11149.9 9721.54l-.95.02-.02-.53h.95z" stroke="#fff" stroke-width=".05" fill="#fff"/><path d="M11329.47 9877.42l-8.12-28.88 18.53.74z" stroke="#fff" fill="#fff"/><path d="M11149.4 9721.54l-.5 24.5-1.57 24.66-2.55 24.3-3.53 23.9-4.46 23.4-5.37 22.87-6.23 22.3-7.04 21.68-7.82 21.02-8.54 20.32-9.22 19.6-9.85 18.84-10.44 18.08-11 17.3-11.47 16.53-11.95 15.73-12.37 14.96-12.75 14.17-13.12 13.42-13.47 12.64-13.78 11.9-14.1 11.17-14.37 10.44-14.65 9.74-14.93 9.06-15.2 8.36-15.5 7.7-15.76 7-16.06 6.36-16.36 5.7-16.68 5.04-17 4.36-17.4 3.7-17.74 3-18.17 2.3-16.82 1.4" stroke="#fff" stroke-linejoin="round" fill="none"/><path d="M11149.87 9721.56l-.95-.02v-.5h.97z" stroke="#fff" stroke-width=".05" fill="#fff"/><path d="M10702.62 10219.98l28.2-10.25.63 18.53z" stroke="#fff" fill="#fff"/><path d="M10981.88 7501.5v26.85" stroke="#fff" fill="none"/><path d="M10982.35 7501.5h-.95v-.5h.95z" stroke="#fff" stroke-width=".05" fill="#fff"/><path d="M10981.88 7557.38l-9.28-28.53h18.55z" stroke="#fff" fill="#fff"/><path d="M10981.88 8021.5v47.88" stroke="#fff" fill="none"/><path d="M10982.35 8021.5h-.95v-.5h.95z" stroke="#fff" stroke-width=".05" fill="#fff"/><path d="M10981.88 8098.41l-9.28-28.52h18.55z" stroke="#fff" fill="#fff"/><path d="M10980 8841.53v46.85" stroke="#fff" fill="none"/><path d="M10980.48 8841.55h-.95v-.52h.94z" stroke="#fff" stroke-width=".05" fill="#fff"/><path d="M10980 8917.42l-9.27-28.54h18.54z" stroke="#fff" fill="#fff"/><path d="M10969.4 9121.53v26.85" stroke="#fff" fill="none"/><path d="M10969.88 9121.55h-.95v-.52h.95z" stroke="#fff" stroke-width=".05" fill="#fff"/><path d="M10969.4 9177.42l-9.26-28.54h18.54z" stroke="#fff" fill="#fff"/><path d="M10969.4 9301.53v26.85" stroke="#fff" fill="none"/><path d="M10969.88 9301.55h-.95v-.52h.95z" stroke="#fff" stroke-width=".05" fill="#fff"/><path d="M10969.4 9357.42l-9.26-28.54h18.54z" stroke="#fff" fill="#fff"/><path d="M11060 8646.05a6 6 0 0 1 6-6h250.57a6 6 0 0 1 6 6v108a6 6 0 0 1-6 6H11066a6 6 0 0 1-6-6z" fill="#fff" fill-opacity="0"/><path d="M11296.3 8640.05h20.27a6 6 0 0 1 6 6v108a6 6 0 0 1-6 6h-20.26" stroke="#fff" fill="none"/><g><use xlink:href="#bh" transform="matrix(1,0,0,1,11065.00000000002,8645.049735793495) translate(0 26.19999999999999)"/><use xlink:href="#bi" transform="matrix(1,0,0,1,11065.00000000002,8645.049735793495) translate(31.950000000000003 26.19999999999999)"/><use xlink:href="#bj" transform="matrix(1,0,0,1,11065.00000000002,8645.049735793495) translate(101.85000000000001 26.19999999999999)"/><use xlink:href="#bk" transform="matrix(1,0,0,1,11065.00000000002,8645.049735793495) translate(125.85000000000001 26.19999999999999)"/><use xlink:href="#bl" transform="matrix(1,0,0,1,11065.00000000002,8645.049735793495) translate(0 47.79999999999999)"/><use xlink:href="#bm" transform="matrix(1,0,0,1,11065.00000000002,8645.049735793495) translate(34 47.79999999999999)"/><use xlink:href="#j" transform="matrix(1,0,0,1,11065.00000000002,8645.049735793495) translate(112.95 47.79999999999999)"/><use xlink:href="#bn" transform="matrix(1,0,0,1,11065.00000000002,8645.049735793495) translate(137.95 47.79999999999999)"/><use xlink:href="#bb" transform="matrix(1,0,0,1,11065.00000000002,8645.049735793495) translate(191.95 47.79999999999999)"/><use xlink:href="#bo" transform="matrix(1,0,0,1,11065.00000000002,8645.049735793495) translate(0 69.39999999999999)"/><use xlink:href="#bp" transform="matrix(1,0,0,1,11065.00000000002,8645.049735793495) translate(59 69.39999999999999)"/><use xlink:href="#az" transform="matrix(1,0,0,1,11065.00000000002,8645.049735793495) translate(140.9 69.39999999999999)"/><use xlink:href="#bq" transform="matrix(1,0,0,1,11065.00000000002,8645.049735793495) translate(155.9 69.39999999999999)"/><use xlink:href="#I" transform="matrix(1,0,0,1,11065.00000000002,8645.049735793495) translate(194.85000000000002 69.39999999999999)"/><use xlink:href="#al" transform="matrix(1,0,0,1,11065.00000000002,8645.049735793495) translate(209.85000000000002 69.39999999999999)"/><use xlink:href="#q" transform="matrix(1,0,0,1,11065.00000000002,8645.049735793495) translate(0 91)"/></g><path d="M11028 8180.03c17.67 0 32 17.9 32 40s-14.33 40-32 40h-96c-17.67 0-32-17.9-32-40s14.33-40 32-40z" stroke="#fff" fill-opacity="0"/><g><use xlink:href="#br" transform="matrix(1,0,0,1,10905,8185.033157195663) translate(22.549999999999997 38.4625)"/><use xlink:href="#b" transform="matrix(1,0,0,1,10905,8185.033157195663) translate(43.55 38.4625)"/><use xlink:href="#bs" transform="matrix(1,0,0,1,10905,8185.033157195663) translate(68.55 38.4625)"/></g><path d="M10900 8300.03h160v120h-160z" stroke="#fff" stroke-width="2" fill-opacity="0"/><g><use xlink:href="#bt" transform="matrix(1,0,0,1,10900,8300.033157195663) translate(37.029999999999994 40.65)"/><use xlink:href="#ag" transform="matrix(1,0,0,1,10900,8300.033157195663) translate(103.98 40.65)"/><use xlink:href="#ah" transform="matrix(1,0,0,1,10900,8300.033157195663) translate(18.58 62.25)"/><use xlink:href="#aZ" transform="matrix(1,0,0,1,10900,8300.033157195663) translate(121.43 62.25)"/><use xlink:href="#e" transform="matrix(1,0,0,1,10900,8300.033157195663) translate(63.029999999999994 83.85000000000001)"/></g><path d="M10900 8460.03h160v120h-160z" stroke="#fff" stroke-width="2" fill-opacity="0"/><g><use xlink:href="#bu" transform="matrix(1,0,0,1,10900,8460.033157195663) translate(12.654999999999996 63.15)"/><use xlink:href="#bv" transform="matrix(1,0,0,1,10900,8460.033157195663) translate(50.504999999999995 63.15)"/><use xlink:href="#bw" transform="matrix(1,0,0,1,10900,8460.033157195663) translate(90.455 63.15)"/></g><path d="M10980 8421.53v6.85" stroke="#fff" fill="none"/><path d="M10980.48 8421.55h-.95v-.52h.94z" stroke="#fff" stroke-width=".05" fill="#fff"/><path d="M10980 8457.42l-9.27-28.54h18.54z" stroke="#fff" fill="#fff"/><path d="M10980 8581.53v26.87" stroke="#fff" fill="none"/><path d="M10980.48 8581.55h-.95v-.52h.94z" stroke="#fff" stroke-width=".05" fill="#fff"/><path d="M10980 8637.43l-9.27-28.53h18.54z" stroke="#fff" fill="#fff"/><path d="M11040 8748.05c0 6.63-26.86 12-60 12s-60-5.37-60-12v-96c0-6.63 26.86-12 60-12s60 5.37 60 12z" stroke="#fff" stroke-width="2" fill-opacity="0"/><path d="M11040 8652.05c0 6.63-26.86 12-60 12s-60-5.37-60-12" stroke="#fff" stroke-width="2" fill="none"/><g><use xlink:href="#bx" transform="matrix(1,0,0,1,10925,8669.049735793495) translate(21.549999999999997 46.65)"/></g><path d="M10980 8261.03v7.35" stroke="#fff" fill="none"/><path d="M10980.48 8261.05h-.95v-.52h.94z" stroke="#fff" stroke-width=".05" fill="#fff"/><path d="M10980 8297.42l-9.27-28.54h18.54z" stroke="#fff" fill="#fff"/><path d="M11260 10160.03h160v120h-160z" stroke="#fff" stroke-width="2" fill-opacity="0"/><g><use xlink:href="#bh" transform="matrix(1,0,0,1,11260,10160.033157195663) translate(41.555 63.15)"/><use xlink:href="#by" transform="matrix(1,0,0,1,11260,10160.033157195663) translate(73.505 63.15)"/></g><defs><path fill="#fff" d="M30-248c87 1 191-15 191 75 0 78-77 80-158 76V0H30v-248zm33 125c57 0 124 11 124-50 0-59-68-47-124-48v98" id="bz"/><path fill="#fff" d="M100-194c62-1 85 37 85 99 1 63-27 99-86 99S16-35 15-95c0-66 28-99 85-99zM99-20c44 1 53-31 53-75 0-43-8-75-51-75s-53 32-53 75 10 74 51 75" id="bA"/><path fill="#fff" d="M117-194c89-4 53 116 60 194h-32v-121c0-31-8-49-39-48C34-167 62-67 57 0H25l-1-190h30c1 10-1 24 2 32 11-22 29-35 61-36" id="bB"/><path fill="#fff" d="M59-47c-2 24 18 29 38 22v24C64 9 27 4 27-40v-127H5v-23h24l9-43h21v43h35v23H59v120" id="bC"/><path fill="#fff" d="M135-143c-3-34-86-38-87 0 15 53 115 12 119 90S17 21 10-45l28-5c4 36 97 45 98 0-10-56-113-15-118-90-4-57 82-63 122-42 12 7 21 19 24 35" id="bD"/><g id="a"><use transform="matrix(0.05,0,0,0.05,0,0)" xlink:href="#bz"/><use transform="matrix(0.05,0,0,0.05,12,0)" xlink:href="#bA"/><use transform="matrix(0.05,0,0,0.05,22,0)" xlink:href="#bB"/><use transform="matrix(0.05,0,0,0.05,32,0)" xlink:href="#bC"/><use transform="matrix(0.05,0,0,0.05,37,0)" xlink:href="#bA"/><use transform="matrix(0.05,0,0,0.05,47,0)" xlink:href="#bD"/></g><path fill="#fff" d="M85-194c31 0 48 13 60 33l-1-100h32l1 261h-30c-2-10 0-23-3-31C134-8 116 4 85 4 32 4 16-35 15-94c0-66 23-100 70-100zm9 24c-40 0-46 34-46 75 0 40 6 74 45 74 42 0 51-32 51-76 0-42-9-74-50-73" id="bE"/><path fill="#fff" d="M100-194c63 0 86 42 84 106H49c0 40 14 67 53 68 26 1 43-12 49-29l28 8c-11 28-37 45-77 45C44 4 14-33 15-96c1-61 26-98 85-98zm52 81c6-60-76-77-97-28-3 7-6 17-6 28h103" id="bF"/><g id="b"><use transform="matrix(0.05,0,0,0.05,0,0)" xlink:href="#bE"/><use transform="matrix(0.05,0,0,0.05,10,0)" xlink:href="#bF"/></g><path fill="#fff" d="M114-163C36-179 61-72 57 0H25l-1-190h30c1 12-1 29 2 39 6-27 23-49 58-41v29" id="bG"/><path fill="#fff" d="M141-36C126-15 110 5 73 4 37 3 15-17 15-53c-1-64 63-63 125-63 3-35-9-54-41-54-24 1-41 7-42 31l-33-3c5-37 33-52 76-52 45 0 72 20 72 64v82c-1 20 7 32 28 27v20c-31 9-61-2-59-35zM48-53c0 20 12 33 32 33 41-3 63-29 60-74-43 2-92-5-92 41" id="bH"/><g id="c"><use transform="matrix(0.05,0,0,0.05,0,0)" xlink:href="#bF"/><use transform="matrix(0.05,0,0,0.05,10,0)" xlink:href="#bB"/><use transform="matrix(0.05,0,0,0.05,20,0)" xlink:href="#bC"/><use transform="matrix(0.05,0,0,0.05,25,0)" xlink:href="#bG"/><use transform="matrix(0.05,0,0,0.05,30.950000000000003,0)" xlink:href="#bH"/><use transform="matrix(0.05,0,0,0.05,40.95,0)" xlink:href="#bE"/><use transform="matrix(0.05,0,0,0.05,50.95,0)" xlink:href="#bH"/></g><g id="d"><use transform="matrix(0.05,0,0,0.05,0,0)" xlink:href="#bE"/><use transform="matrix(0.05,0,0,0.05,10,0)" xlink:href="#bA"/></g><path fill="#fff" d="M24 0v-261h32V0H24" id="bI"/><g id="e"><use transform="matrix(0.05,0,0,0.05,0,0)" xlink:href="#bI"/><use transform="matrix(0.05,0,0,0.05,3.95,0)" xlink:href="#bF"/><use transform="matrix(0.05,0,0,0.05,13.949999999999998,0)" xlink:href="#bH"/><use transform="matrix(0.05,0,0,0.05,23.95,0)" xlink:href="#bE"/></g><path fill="#fff" d="M185-189c-5-48-123-54-124 2 14 75 158 14 163 119 3 78-121 87-175 55-17-10-28-26-33-46l33-7c5 56 141 63 141-1 0-78-155-14-162-118-5-82 145-84 179-34 5 7 8 16 11 25" id="bJ"/><path fill="#fff" d="M205 0l-28-72H64L36 0H1l101-248h38L239 0h-34zm-38-99l-47-123c-12 45-31 82-46 123h93" id="bK"/><path fill="#fff" d="M190 0L58-211 59 0H30v-248h39L202-35l-2-213h31V0h-41" id="bL"/><g id="f"><use transform="matrix(0.05,0,0,0.05,0,0)" xlink:href="#bJ"/><use transform="matrix(0.05,0,0,0.05,12,0)" xlink:href="#bK"/><use transform="matrix(0.05,0,0,0.05,24,0)" xlink:href="#bL"/><use transform="matrix(0.05,0,0,0.05,36.95,0)" xlink:href="#bK"/></g><path fill="#fff" d="M33 0v-248h34V0H33" id="bM"/><path fill="#fff" d="M127-220V0H93v-220H8v-28h204v28h-85" id="bN"/><path fill="#fff" d="M30 0v-248h187v28H63v79h144v27H63v87h162V0H30" id="bO"/><g id="g"><use transform="matrix(0.05,0,0,0.05,0,0)" xlink:href="#bK"/><use transform="matrix(0.05,0,0,0.05,12,0)" xlink:href="#bJ"/><use transform="matrix(0.05,0,0,0.05,24,0)" xlink:href="#bJ"/><use transform="matrix(0.05,0,0,0.05,36,0)" xlink:href="#bM"/><use transform="matrix(0.05,0,0,0.05,41,0)" xlink:href="#bJ"/><use transform="matrix(0.05,0,0,0.05,53,0)" xlink:href="#bN"/><use transform="matrix(0.05,0,0,0.05,63.95,0)" xlink:href="#bO"/><use transform="matrix(0.05,0,0,0.05,75.95,0)" xlink:href="#bL"/><use transform="matrix(0.05,0,0,0.05,88.9,0)" xlink:href="#bN"/><use transform="matrix(0.05,0,0,0.05,99.85000000000001,0)" xlink:href="#bO"/></g><path fill="#fff" d="M16-82v-28h88v28H16" id="bP"/><use transform="matrix(0.05,0,0,0.05,0,0)" xlink:href="#bP" id="h"/><path fill="#fff" d="M212-179c-10-28-35-45-73-45-59 0-87 40-87 99 0 60 29 101 89 101 43 0 62-24 78-52l27 14C228-24 195 4 139 4 59 4 22-46 18-125c-6-104 99-153 187-111 19 9 31 26 39 46" id="bQ"/><path fill="#fff" d="M106-169C34-169 62-67 57 0H25v-261h32l-1 103c12-21 28-36 61-36 89 0 53 116 60 194h-32v-121c2-32-8-49-39-48" id="bR"/><g id="i"><use transform="matrix(0.05,0,0,0.05,0,0)" xlink:href="#bQ"/><use transform="matrix(0.05,0,0,0.05,12.950000000000001,0)" xlink:href="#bR"/><use transform="matrix(0.05,0,0,0.05,22.950000000000003,0)" xlink:href="#bH"/><use transform="matrix(0.05,0,0,0.05,32.95,0)" xlink:href="#bC"/></g><g id="j"><use transform="matrix(0.05,0,0,0.05,0,0)" xlink:href="#bB"/><use transform="matrix(0.05,0,0,0.05,10,0)" xlink:href="#bA"/></g><path fill="#fff" d="M24-231v-30h32v30H24zM24 0v-190h32V0H24" id="bS"/><g id="k"><use transform="matrix(0.05,0,0,0.05,0,0)" xlink:href="#bJ"/><use transform="matrix(0.05,0,0,0.05,12,0)" xlink:href="#bS"/><use transform="matrix(0.05,0,0,0.05,15.949999999999998,0)" xlink:href="#bC"/><use transform="matrix(0.05,0,0,0.05,20.95,0)" xlink:href="#bF"/></g><path fill="#fff" d="M33 0v-38h34V0H33" id="bT"/><g id="l"><use transform="matrix(0.05,0,0,0.05,0,0)" xlink:href="#bM"/><use transform="matrix(0.05,0,0,0.05,5,0)" xlink:href="#bT"/><use transform="matrix(0.05,0,0,0.05,10,0)" xlink:href="#bK"/></g><path fill="#fff" d="M140-251c81 0 123 46 123 126C263-46 219 4 140 4 59 4 17-45 17-125s42-126 123-126zm0 227c63 0 89-41 89-101s-29-99-89-99c-61 0-89 39-89 99S79-25 140-24" id="bU"/><path fill="#fff" d="M233-177c-1 41-23 64-60 70L243 0h-38l-65-103H63V0H30v-248c88 3 205-21 203 71zM63-129c60-2 137 13 137-47 0-61-80-42-137-45v92" id="bV"/><path fill="#fff" d="M140-251c81 0 123 46 123 126C263-53 228-8 163 1c7 30 30 48 69 40v23c-55 16-95-15-103-61C56-3 17-48 17-125c0-80 42-126 123-126zm0 227c63 0 89-41 89-101s-29-99-89-99c-61 0-89 39-89 99S79-25 140-24" id="bW"/><path fill="#fff" d="M232-93c-1 65-40 97-104 97C67 4 28-28 28-90v-158h33c8 89-33 224 67 224 102 0 64-133 71-224h33v155" id="bX"/><path fill="#fff" d="M30-248c118-7 216 8 213 122C240-48 200 0 122 0H30v-248zM63-27c89 8 146-16 146-99s-60-101-146-95v194" id="bY"/><g id="m"><use transform="matrix(0.05,0,0,0.05,0,0)" xlink:href="#bU"/><use transform="matrix(0.05,0,0,0.05,14,0)" xlink:href="#bV"/><use transform="matrix(0.05,0,0,0.05,26.950000000000003,0)" xlink:href="#bW"/><use transform="matrix(0.05,0,0,0.05,40.95,0)" xlink:href="#bX"/><use transform="matrix(0.05,0,0,0.05,53.900000000000006,0)" xlink:href="#bO"/><use transform="matrix(0.05,0,0,0.05,65.9,0)" xlink:href="#bJ"/><use transform="matrix(0.05,0,0,0.05,77.9,0)" xlink:href="#bN"/><use transform="matrix(0.05,0,0,0.05,88.85000000000001,0)" xlink:href="#bV"/><use transform="matrix(0.05,0,0,0.05,101.80000000000001,0)" xlink:href="#bK"/><use transform="matrix(0.05,0,0,0.05,113.80000000000001,0)" xlink:href="#bY"/><use transform="matrix(0.05,0,0,0.05,126.75,0)" xlink:href="#bU"/><use transform="matrix(0.05,0,0,0.05,140.75,0)" xlink:href="#bV"/></g><path fill="#fff" d="M195 0l-74-108L45 0H8l94-129-87-119h37l69 98 67-98h37l-84 118L233 0h-38" id="bZ"/><g id="n"><use transform="matrix(0.05,0,0,0.05,0,0)" xlink:href="#bQ"/><use transform="matrix(0.05,0,0,0.05,12.950000000000001,0)" xlink:href="#bU"/><use transform="matrix(0.05,0,0,0.05,26.950000000000003,0)" xlink:href="#bO"/><use transform="matrix(0.05,0,0,0.05,38.95,0)" xlink:href="#bZ"/></g><g id="o"><use transform="matrix(0.05,0,0,0.05,0,0)" xlink:href="#bL"/><use transform="matrix(0.05,0,0,0.05,12.950000000000001,0)" xlink:href="#bA"/></g><path fill="#fff" d="M266 0h-40l-56-210L115 0H75L2-248h35L96-30l15-64 43-154h32l59 218 59-218h35" id="ca"/><path fill="#fff" d="M115-194c55 1 70 41 70 98S169 2 115 4C84 4 66-9 55-30l1 105H24l-1-265h31l2 30c10-21 28-34 59-34zm-8 174c40 0 45-34 45-75s-6-73-45-74c-42 0-51 32-51 76 0 43 10 73 51 73" id="cb"/><g id="p"><use transform="matrix(0.05,0,0,0.05,0,0)" xlink:href="#ca"/><use transform="matrix(0.05,0,0,0.05,16.95,0)" xlink:href="#bR"/><use transform="matrix(0.05,0,0,0.05,26.950000000000003,0)" xlink:href="#bH"/><use transform="matrix(0.05,0,0,0.05,36.95,0)" xlink:href="#bC"/><use transform="matrix(0.05,0,0,0.05,41.95,0)" xlink:href="#bD"/><use transform="matrix(0.05,0,0,0.05,50.95,0)" xlink:href="#bK"/><use transform="matrix(0.05,0,0,0.05,62.95,0)" xlink:href="#cb"/><use transform="matrix(0.05,0,0,0.05,72.95,0)" xlink:href="#cb"/></g><path fill="#fff" d="M84 4C-5 8 30-112 23-190h32v120c0 31 7 50 39 49 72-2 45-101 50-169h31l1 190h-30c-1-10 1-25-2-33-11 22-28 36-60 37" id="cc"/><g id="q"><use transform="matrix(0.05,0,0,0.05,0,0)" xlink:href="#bE"/><use transform="matrix(0.05,0,0,0.05,10,0)" xlink:href="#bA"/><use transform="matrix(0.05,0,0,0.05,20,0)" xlink:href="#cc"/><use transform="matrix(0.05,0,0,0.05,30,0)" xlink:href="#bC"/><use transform="matrix(0.05,0,0,0.05,35,0)" xlink:href="#bA"/><use transform="matrix(0.05,0,0,0.05,45,0)" xlink:href="#bG"/></g><g id="r"><use transform="matrix(0.05,0,0,0.05,0,0)" xlink:href="#bO"/><use transform="matrix(0.05,0,0,0.05,12,0)" xlink:href="#bC"/><use transform="matrix(0.05,0,0,0.05,17,0)" xlink:href="#bH"/><use transform="matrix(0.05,0,0,0.05,27,0)" xlink:href="#cb"/><use transform="matrix(0.05,0,0,0.05,37,0)" xlink:href="#bH"/></g><path fill="#fff" d="M110-160c48 1 74 30 74 79 0 53-28 85-80 85-65 0-83-55-86-122-5-90 50-162 133-122 14 7 22 21 27 39l-31 6c-5-40-67-38-82-6-9 19-15 44-15 74 11-20 30-34 60-33zm-7 138c34 0 49-23 49-58s-16-56-50-56c-29 0-50 16-49 49 1 36 15 65 50 65" id="cd"/><use transform="matrix(0.05,0,0,0.05,0,0)" xlink:href="#cd" id="s"/><path fill="#fff" d="M101-234c-31-9-42 10-38 44h38v23H63V0H32v-167H5v-23h27c-7-52 17-82 69-68v24" id="ce"/><path fill="#fff" d="M96-169c-40 0-48 33-48 73s9 75 48 75c24 0 41-14 43-38l32 2c-6 37-31 61-74 61-59 0-76-41-82-99-10-93 101-131 147-64 4 7 5 14 7 22l-32 3c-4-21-16-35-41-35" id="cf"/><path fill="#fff" d="M96-169c-40 0-48 33-48 73s9 75 48 75c24 0 41-14 43-38l32 2c-6 37-31 61-74 61-59 0-76-41-82-99-10-93 101-131 147-64 4 7 5 14 7 22l-32 3c-4-21-16-35-41-35zm3 187c19-1 33 8 33 26 0 31-30 33-64 32V58c18 2 39 4 41-13 1-15-18-13-34-13L87 0h19" id="cg"/><path fill="#fff" d="M100-194c62-1 85 37 85 99 1 63-27 99-86 99S16-35 15-95c0-66 28-99 85-99zM99-20c44 1 53-31 53-75 0-43-8-75-51-75s-53 32-53 75 10 74 51 75zm66-238c-3 23-9 48-36 47-26-1-65-44-74 0H39c4-23 8-48 36-47s64 44 74 0h16" id="ch"/><g id="t"><use transform="matrix(0.05,0,0,0.05,0,0)" xlink:href="#bL"/><use transform="matrix(0.05,0,0,0.05,12.950000000000001,0)" xlink:href="#bA"/><use transform="matrix(0.05,0,0,0.05,22.950000000000003,0)" xlink:href="#bC"/><use transform="matrix(0.05,0,0,0.05,27.950000000000003,0)" xlink:href="#bS"/><use transform="matrix(0.05,0,0,0.05,31.900000000000002,0)" xlink:href="#ce"/><use transform="matrix(0.05,0,0,0.05,36.900000000000006,0)" xlink:href="#bS"/><use transform="matrix(0.05,0,0,0.05,40.85000000000001,0)" xlink:href="#cf"/><use transform="matrix(0.05,0,0,0.05,49.85000000000001,0)" xlink:href="#bH"/><use transform="matrix(0.05,0,0,0.05,59.85,0)" xlink:href="#cg"/><use transform="matrix(0.05,0,0,0.05,68.85000000000001,0)" xlink:href="#ch"/><use transform="matrix(0.05,0,0,0.05,78.85000000000001,0)" xlink:href="#bF"/><use transform="matrix(0.05,0,0,0.05,88.85000000000001,0)" xlink:href="#bD"/></g><path fill="#fff" d="M64 0c3-98 48-159 88-221H18v-27h164v26C143-157 98-101 97 0H64" id="ci"/><use transform="matrix(0.05,0,0,0.05,0,0)" xlink:href="#ci" id="u"/><path fill="#fff" d="M0-79v-24h200v24H0" id="cj"/><use transform="matrix(0.05,0,0,0.05,0,0)" xlink:href="#cj" id="v"/><path fill="#fff" d="M100-194c62-1 85 37 85 99 1 63-27 99-86 99S16-35 15-95c0-66 28-99 85-99zM99-20c44 1 53-31 53-75 0-43-8-75-51-75s-53 32-53 75 10 74 51 75zM76-211c8-23 27-35 38-54h36v5l-58 49H76" id="ck"/><g id="w"><use transform="matrix(0.05,0,0,0.05,0,0)" xlink:href="#bz"/><use transform="matrix(0.05,0,0,0.05,12,0)" xlink:href="#ck"/><use transform="matrix(0.05,0,0,0.05,22,0)" xlink:href="#bD"/><use transform="matrix(0.05,0,0,0.05,31,0)" xlink:href="#bP"/><use transform="matrix(0.05,0,0,0.05,36.95,0)" xlink:href="#cf"/><use transform="matrix(0.05,0,0,0.05,45.95,0)" xlink:href="#bA"/><use transform="matrix(0.05,0,0,0.05,55.95,0)" xlink:href="#bB"/><use transform="matrix(0.05,0,0,0.05,65.95,0)" xlink:href="#bD"/><use transform="matrix(0.05,0,0,0.05,74.95,0)" xlink:href="#cc"/><use transform="matrix(0.05,0,0,0.05,84.95,0)" xlink:href="#bI"/><use transform="matrix(0.05,0,0,0.05,88.9,0)" xlink:href="#bC"/><use transform="matrix(0.05,0,0,0.05,93.9,0)" xlink:href="#bH"/></g><g id="y"><use transform="matrix(0.05,0,0,0.05,0,0)" xlink:href="#bJ"/><use transform="matrix(0.05,0,0,0.05,12,0)" xlink:href="#bS"/><use transform="matrix(0.05,0,0,0.05,15.949999999999998,0)" xlink:href="#bC"/><use transform="matrix(0.05,0,0,0.05,20.95,0)" xlink:href="#bF"/></g><g id="z"><use transform="matrix(0.05,0,0,0.05,0,0)" xlink:href="#bV"/><use transform="matrix(0.05,0,0,0.05,12.950000000000001,0)" xlink:href="#bF"/><use transform="matrix(0.05,0,0,0.05,22.950000000000003,0)" xlink:href="#bE"/><use transform="matrix(0.05,0,0,0.05,32.95,0)" xlink:href="#bF"/><use transform="matrix(0.05,0,0,0.05,42.95,0)" xlink:href="#bD"/></g><g id="A"><use transform="matrix(0.05,0,0,0.05,0,0)" xlink:href="#bD"/><use transform="matrix(0.05,0,0,0.05,9,0)" xlink:href="#bA"/><use transform="matrix(0.05,0,0,0.05,19,0)" xlink:href="#cf"/><use transform="matrix(0.05,0,0,0.05,28,0)" xlink:href="#bS"/><use transform="matrix(0.05,0,0,0.05,31.950000000000003,0)" xlink:href="#bH"/><use transform="matrix(0.05,0,0,0.05,41.95,0)" xlink:href="#bS"/><use transform="matrix(0.05,0,0,0.05,45.900000000000006,0)" xlink:href="#bD"/></g><g id="B"><use transform="matrix(0.05,0,0,0.05,0,0)" xlink:href="#bW"/><use transform="matrix(0.05,0,0,0.05,14,0)" xlink:href="#bV"/></g><g id="C"><use transform="matrix(0.05,0,0,0.05,0,0)" xlink:href="#bQ"/><use transform="matrix(0.05,0,0,0.05,12.950000000000001,0)" xlink:href="#bA"/><use transform="matrix(0.05,0,0,0.05,22.950000000000003,0)" xlink:href="#bE"/><use transform="matrix(0.05,0,0,0.05,32.95,0)" xlink:href="#bF"/></g><path fill="#fff" d="M143 4C61 4 22-44 18-125c-5-107 100-154 193-111 17 8 29 25 37 43l-32 9c-13-25-37-40-76-40-61 0-88 39-88 99 0 61 29 100 91 101 35 0 62-11 79-27v-45h-74v-28h105v86C228-13 192 4 143 4" id="cl"/><path fill="#fff" d="M177-190C167-65 218 103 67 71c-23-6-38-20-44-43l32-5c15 47 100 32 89-28v-30C133-14 115 1 83 1 29 1 15-40 15-95c0-56 16-97 71-98 29-1 48 16 59 35 1-10 0-23 2-32h30zM94-22c36 0 50-32 50-73 0-42-14-75-50-75-39 0-46 34-46 75s6 73 46 73" id="cm"/><g id="D"><use transform="matrix(0.05,0,0,0.05,0,0)" xlink:href="#cl"/><use transform="matrix(0.05,0,0,0.05,14,0)" xlink:href="#bA"/><use transform="matrix(0.05,0,0,0.05,24,0)" xlink:href="#bA"/><use transform="matrix(0.05,0,0,0.05,34,0)" xlink:href="#cm"/><use transform="matrix(0.05,0,0,0.05,44,0)" xlink:href="#bI"/><use transform="matrix(0.05,0,0,0.05,47.95,0)" xlink:href="#bF"/></g><path fill="#fff" d="M240 0l2-218c-23 76-54 145-80 218h-23L58-218 59 0H30v-248h44l77 211c21-75 51-140 76-211h43V0h-30" id="cn"/><g id="E"><use transform="matrix(0.05,0,0,0.05,0,0)" xlink:href="#cn"/><use transform="matrix(0.05,0,0,0.05,14.950000000000001,0)" xlink:href="#bF"/><use transform="matrix(0.05,0,0,0.05,24.950000000000003,0)" xlink:href="#cc"/></g><g id="F"><use transform="matrix(0.05,0,0,0.05,0,0)" xlink:href="#bL"/><use transform="matrix(0.05,0,0,0.05,12.950000000000001,0)" xlink:href="#bF"/><use transform="matrix(0.05,0,0,0.05,22.950000000000003,0)" xlink:href="#cm"/><use transform="matrix(0.05,0,0,0.05,32.95,0)" xlink:href="#ck"/><use transform="matrix(0.05,0,0,0.05,42.95,0)" xlink:href="#cf"/><use transform="matrix(0.05,0,0,0.05,51.95,0)" xlink:href="#bS"/><use transform="matrix(0.05,0,0,0.05,55.900000000000006,0)" xlink:href="#bA"/></g><path fill="#fff" d="M85 4C-4 8 31-112 24-190h32v120c0 31 7 50 39 49 72-2 45-101 50-169h31l1 190h-30c-1-10 1-25-2-33-11 22-28 36-60 37zM73-211c8-23 27-35 38-54h36v5l-58 49H73" id="co"/><g id="G"><use transform="matrix(0.05,0,0,0.05,0,0)" xlink:href="#bK"/><use transform="matrix(0.05,0,0,0.05,12,0)" xlink:href="#bB"/><use transform="matrix(0.05,0,0,0.05,22,0)" xlink:href="#co"/><use transform="matrix(0.05,0,0,0.05,32,0)" xlink:href="#bB"/><use transform="matrix(0.05,0,0,0.05,42,0)" xlink:href="#cf"/><use transform="matrix(0.05,0,0,0.05,51,0)" xlink:href="#bS"/><use transform="matrix(0.05,0,0,0.05,54.95,0)" xlink:href="#bA"/><use transform="matrix(0.05,0,0,0.05,64.95,0)" xlink:href="#bD"/></g><g id="H"><use transform="matrix(0.05,0,0,0.05,0,0)" xlink:href="#cl"/><use transform="matrix(0.05,0,0,0.05,14,0)" xlink:href="#bA"/><use transform="matrix(0.05,0,0,0.05,24,0)" xlink:href="#bA"/><use transform="matrix(0.05,0,0,0.05,34,0)" xlink:href="#cm"/><use transform="matrix(0.05,0,0,0.05,44,0)" xlink:href="#bI"/><use transform="matrix(0.05,0,0,0.05,47.95,0)" xlink:href="#bF"/></g><use transform="matrix(0.05,0,0,0.05,0,0)" xlink:href="#bF" id="I"/><g id="J"><use transform="matrix(0.05,0,0,0.05,0,0)" xlink:href="#bG"/><use transform="matrix(0.05,0,0,0.05,5.95,0)" xlink:href="#bF"/><use transform="matrix(0.05,0,0,0.05,15.949999999999998,0)" xlink:href="#bE"/><use transform="matrix(0.05,0,0,0.05,25.950000000000003,0)" xlink:href="#bF"/><use transform="matrix(0.05,0,0,0.05,35.95,0)" xlink:href="#bD"/></g><g id="K"><use transform="matrix(0.05,0,0,0.05,0,0)" xlink:href="#cn"/><use transform="matrix(0.05,0,0,0.05,14.950000000000001,0)" xlink:href="#bA"/><use transform="matrix(0.05,0,0,0.05,24.950000000000003,0)" xlink:href="#bB"/><use transform="matrix(0.05,0,0,0.05,34.95,0)" xlink:href="#bC"/><use transform="matrix(0.05,0,0,0.05,39.95,0)" xlink:href="#bH"/></g><path fill="#fff" d="M210-169c-67 3-38 105-44 169h-31v-121c0-29-5-50-35-48C34-165 62-65 56 0H25l-1-190h30c1 10-1 24 2 32 10-44 99-50 107 0 11-21 27-35 58-36 85-2 47 119 55 194h-31v-121c0-29-5-49-35-48" id="cp"/><g id="L"><use transform="matrix(0.05,0,0,0.05,0,0)" xlink:href="#cp"/><use transform="matrix(0.05,0,0,0.05,14.950000000000001,0)" xlink:href="#bF"/><use transform="matrix(0.05,0,0,0.05,24.950000000000003,0)" xlink:href="#bB"/><use transform="matrix(0.05,0,0,0.05,34.95,0)" xlink:href="#bD"/><use transform="matrix(0.05,0,0,0.05,43.95,0)" xlink:href="#bH"/><use transform="matrix(0.05,0,0,0.05,53.95,0)" xlink:href="#cm"/><use transform="matrix(0.05,0,0,0.05,63.95,0)" xlink:href="#bF"/><use transform="matrix(0.05,0,0,0.05,73.95,0)" xlink:href="#cp"/></g><path fill="#fff" d="M141-36C126-15 110 5 73 4 37 3 15-17 15-53c-1-64 63-63 125-63 3-35-9-54-41-54-24 1-41 7-42 31l-33-3c5-37 33-52 76-52 45 0 72 20 72 64v82c-1 20 7 32 28 27v20c-31 9-61-2-59-35zM48-53c0 20 12 33 32 33 41-3 63-29 60-74-43 2-92-5-92 41zm117-205c-3 23-9 48-36 47-26-1-65-44-74 0H39c4-23 8-48 36-47s64 44 74 0h16" id="cq"/><g id="M"><use transform="matrix(0.05,0,0,0.05,0,0)" xlink:href="#cb"/><use transform="matrix(0.05,0,0,0.05,10,0)" xlink:href="#bH"/><use transform="matrix(0.05,0,0,0.05,20,0)" xlink:href="#bE"/><use transform="matrix(0.05,0,0,0.05,30,0)" xlink:href="#bG"/><use transform="matrix(0.05,0,0,0.05,35.95,0)" xlink:href="#cq"/><use transform="matrix(0.05,0,0,0.05,45.95,0)" xlink:href="#bA"/></g><g id="N"><use transform="matrix(0.05,0,0,0.05,0,0)" xlink:href="#cf"/><use transform="matrix(0.05,0,0,0.05,9,0)" xlink:href="#bA"/><use transform="matrix(0.05,0,0,0.05,19,0)" xlink:href="#cp"/></g><g id="O"><use transform="matrix(0.05,0,0,0.05,0,0)" xlink:href="#bB"/><use transform="matrix(0.05,0,0,0.05,10,0)" xlink:href="#bA"/><use transform="matrix(0.05,0,0,0.05,20,0)" xlink:href="#cp"/><use transform="matrix(0.05,0,0,0.05,34.95,0)" xlink:href="#bF"/></g><g id="P"><use transform="matrix(0.05,0,0,0.05,0,0)" xlink:href="#cf"/><use transform="matrix(0.05,0,0,0.05,9,0)" xlink:href="#bI"/><use transform="matrix(0.05,0,0,0.05,12.949999999999998,0)" xlink:href="#bS"/><use transform="matrix(0.05,0,0,0.05,16.9,0)" xlink:href="#bF"/><use transform="matrix(0.05,0,0,0.05,26.899999999999995,0)" xlink:href="#bB"/><use transform="matrix(0.05,0,0,0.05,36.9,0)" xlink:href="#bC"/><use transform="matrix(0.05,0,0,0.05,41.9,0)" xlink:href="#bF"/></g><path fill="#fff" d="M118-107v75H92v-75H18v-26h74v-75h26v75h74v26h-74" id="cr"/><use transform="matrix(0.05,0,0,0.05,0,0)" xlink:href="#cr" id="Q"/><g id="R"><use transform="matrix(0.05,0,0,0.05,0,0)" xlink:href="#bA"/><use transform="matrix(0.05,0,0,0.05,10,0)" xlink:href="#bG"/><use transform="matrix(0.05,0,0,0.05,15.949999999999998,0)" xlink:href="#bS"/><use transform="matrix(0.05,0,0,0.05,19.9,0)" xlink:href="#cm"/><use transform="matrix(0.05,0,0,0.05,29.899999999999995,0)" xlink:href="#bF"/><use transform="matrix(0.05,0,0,0.05,39.9,0)" xlink:href="#cp"/></g><path fill="#fff" d="M141 0L90-78 38 0H4l68-98-65-92h35l48 74 47-74h35l-64 92 68 98h-35" id="cs"/><g id="S"><use transform="matrix(0.05,0,0,0.05,0,0)" xlink:href="#bO"/><use transform="matrix(0.05,0,0,0.05,12,0)" xlink:href="#cs"/><use transform="matrix(0.05,0,0,0.05,21,0)" xlink:href="#bF"/><use transform="matrix(0.05,0,0,0.05,31,0)" xlink:href="#cp"/><use transform="matrix(0.05,0,0,0.05,45.95,0)" xlink:href="#cb"/><use transform="matrix(0.05,0,0,0.05,55.95,0)" xlink:href="#bI"/><use transform="matrix(0.05,0,0,0.05,59.900000000000006,0)" xlink:href="#bA"/></g><path fill="#fff" d="M33-154v-36h34v36H33zM33 0v-36h34V0H33" id="ct"/><g id="T"><use transform="matrix(0.05,0,0,0.05,0,0)" xlink:href="#cp"/><use transform="matrix(0.05,0,0,0.05,14.950000000000001,0)" xlink:href="#bF"/><use transform="matrix(0.05,0,0,0.05,24.950000000000003,0)" xlink:href="#bB"/><use transform="matrix(0.05,0,0,0.05,34.95,0)" xlink:href="#bD"/><use transform="matrix(0.05,0,0,0.05,43.95,0)" xlink:href="#bH"/><use transform="matrix(0.05,0,0,0.05,53.95,0)" xlink:href="#cm"/><use transform="matrix(0.05,0,0,0.05,63.95,0)" xlink:href="#bF"/><use transform="matrix(0.05,0,0,0.05,73.95,0)" xlink:href="#cp"/><use transform="matrix(0.05,0,0,0.05,88.9,0)" xlink:href="#ct"/></g><path fill="#fff" d="M141-36C126-15 110 5 73 4 37 3 15-17 15-53c-1-64 63-63 125-63 3-35-9-54-41-54-24 1-41 7-42 31l-33-3c5-37 33-52 76-52 45 0 72 20 72 64v82c-1 20 7 32 28 27v20c-31 9-61-2-59-35zM48-53c0 20 12 33 32 33 41-3 63-29 60-74-43 2-92-5-92 41zm25-158c8-23 27-35 38-54h36v5l-58 49H73" id="cu"/><path fill="#fff" d="M68-38c1 34 0 65-14 84H32c9-13 17-26 17-46H33v-38h35" id="cv"/><g id="U"><use transform="matrix(0.05,0,0,0.05,0,0)" xlink:href="#bU"/><use transform="matrix(0.05,0,0,0.05,14,0)" xlink:href="#bI"/><use transform="matrix(0.05,0,0,0.05,17.95,0)" xlink:href="#cu"/><use transform="matrix(0.05,0,0,0.05,27.950000000000003,0)" xlink:href="#cv"/></g><g id="V"><use transform="matrix(0.05,0,0,0.05,0,0)" xlink:href="#cp"/><use transform="matrix(0.05,0,0,0.05,14.950000000000001,0)" xlink:href="#bF"/><use transform="matrix(0.05,0,0,0.05,24.950000000000003,0)" xlink:href="#cc"/></g><g id="W"><use transform="matrix(0.05,0,0,0.05,0,0)" xlink:href="#bB"/><use transform="matrix(0.05,0,0,0.05,10,0)" xlink:href="#bA"/><use transform="matrix(0.05,0,0,0.05,20,0)" xlink:href="#cp"/><use transform="matrix(0.05,0,0,0.05,34.95,0)" xlink:href="#bF"/></g><path fill="#fff" d="M100-194c63 0 86 42 84 106H49c0 40 14 67 53 68 26 1 43-12 49-29l28 8c-11 28-37 45-77 45C44 4 14-33 15-96c1-61 26-98 85-98zm52 81c6-60-76-77-97-28-3 7-6 17-6 28h103zm-74-98c8-23 27-35 38-54h36v5l-58 49H78" id="cw"/><use transform="matrix(0.05,0,0,0.05,0,0)" xlink:href="#cw" id="X"/><path fill="#fff" d="M39-94c74 12-11 154 75 146v23c-44 4-70-10-70-52C44-23 55-84 6-82v-22c81 4-7-162 84-157h24v23c-82-15-2 131-75 144" id="cx"/><path fill="#fff" d="M76-40C78 24 84 88 6 75V52C86 64 9-79 80-94c-40-6-34-59-34-106 1-29-11-41-40-38v-23c44-4 70 10 70 52 0 47-12 108 38 105v22c-26 1-39 14-38 42" id="cy"/><g id="Y"><use transform="matrix(0.05,0,0,0.05,0,0)" xlink:href="#cx"/><use transform="matrix(0.05,0,0,0.05,6,0)" xlink:href="#cx"/><use transform="matrix(0.05,0,0,0.05,12,0)" xlink:href="#bB"/><use transform="matrix(0.05,0,0,0.05,22,0)" xlink:href="#bH"/><use transform="matrix(0.05,0,0,0.05,32,0)" xlink:href="#cp"/><use transform="matrix(0.05,0,0,0.05,46.95,0)" xlink:href="#bF"/><use transform="matrix(0.05,0,0,0.05,56.95,0)" xlink:href="#cy"/><use transform="matrix(0.05,0,0,0.05,62.95,0)" xlink:href="#cy"/><use transform="matrix(0.05,0,0,0.05,68.95,0)" xlink:href="#bT"/></g><path fill="#fff" d="M137 0h-34L2-248h35l83 218 83-218h36" id="cz"/><g id="Z"><use transform="matrix(0.05,0,0,0.05,0,0)" xlink:href="#cz"/><use transform="matrix(0.05,0,0,0.05,11.65,0)" xlink:href="#bS"/><use transform="matrix(0.05,0,0,0.05,15.600000000000001,0)" xlink:href="#cp"/></g><g id="aa"><use transform="matrix(0.05,0,0,0.05,0,0)" xlink:href="#cb"/><use transform="matrix(0.05,0,0,0.05,10,0)" xlink:href="#bF"/><use transform="matrix(0.05,0,0,0.05,20,0)" xlink:href="#bI"/><use transform="matrix(0.05,0,0,0.05,23.95,0)" xlink:href="#bA"/></g><g id="ab"><use transform="matrix(0.05,0,0,0.05,0,0)" xlink:href="#cx"/><use transform="matrix(0.05,0,0,0.05,6,0)" xlink:href="#cx"/><use transform="matrix(0.05,0,0,0.05,12,0)" xlink:href="#cf"/><use transform="matrix(0.05,0,0,0.05,21,0)" xlink:href="#bH"/><use transform="matrix(0.05,0,0,0.05,31,0)" xlink:href="#bB"/><use transform="matrix(0.05,0,0,0.05,41,0)" xlink:href="#bH"/><use transform="matrix(0.05,0,0,0.05,51,0)" xlink:href="#bI"/><use transform="matrix(0.05,0,0,0.05,54.95,0)" xlink:href="#cy"/><use transform="matrix(0.05,0,0,0.05,60.95,0)" xlink:href="#cy"/></g><g id="ac"><use transform="matrix(0.05,0,0,0.05,0,0)" xlink:href="#cm"/><use transform="matrix(0.05,0,0,0.05,10,0)" xlink:href="#bA"/><use transform="matrix(0.05,0,0,0.05,20,0)" xlink:href="#bD"/><use transform="matrix(0.05,0,0,0.05,29,0)" xlink:href="#bC"/><use transform="matrix(0.05,0,0,0.05,34,0)" xlink:href="#bH"/><use transform="matrix(0.05,0,0,0.05,44,0)" xlink:href="#bG"/><use transform="matrix(0.05,0,0,0.05,49.95,0)" xlink:href="#bS"/><use transform="matrix(0.05,0,0,0.05,53.900000000000006,0)" xlink:href="#bH"/></g><path fill="#fff" d="M115-194c53 0 69 39 70 98 0 66-23 100-70 100C84 3 66-7 56-30L54 0H23l1-261h32v101c10-23 28-34 59-34zm-8 174c40 0 45-34 45-75 0-40-5-75-45-74-42 0-51 32-51 76 0 43 10 73 51 73" id="cA"/><g id="ad"><use transform="matrix(0.05,0,0,0.05,0,0)" xlink:href="#bD"/><use transform="matrix(0.05,0,0,0.05,9,0)" xlink:href="#bH"/><use transform="matrix(0.05,0,0,0.05,19,0)" xlink:href="#cA"/><use transform="matrix(0.05,0,0,0.05,29,0)" xlink:href="#bF"/><use transform="matrix(0.05,0,0,0.05,39,0)" xlink:href="#bG"/></g><path fill="#fff" d="M63-70H37l-4-178h34zM33 0v-35h34V0H33" id="cB"/><g id="ae"><use transform="matrix(0.05,0,0,0.05,0,0)" xlink:href="#cp"/><use transform="matrix(0.05,0,0,0.05,14.950000000000001,0)" xlink:href="#bH"/><use transform="matrix(0.05,0,0,0.05,24.950000000000003,0)" xlink:href="#bS"/><use transform="matrix(0.05,0,0,0.05,28.900000000000002,0)" xlink:href="#bD"/><use transform="matrix(0.05,0,0,0.05,37.900000000000006,0)" xlink:href="#cB"/></g><g id="af"><use transform="matrix(0.05,0,0,0.05,0,0)" xlink:href="#bz"/><use transform="matrix(0.05,0,0,0.05,12,0)" xlink:href="#bG"/><use transform="matrix(0.05,0,0,0.05,17.95,0)" xlink:href="#bF"/><use transform="matrix(0.05,0,0,0.05,27.950000000000003,0)" xlink:href="#cb"/><use transform="matrix(0.05,0,0,0.05,37.95,0)" xlink:href="#bH"/><use transform="matrix(0.05,0,0,0.05,47.95,0)" xlink:href="#bG"/><use transform="matrix(0.05,0,0,0.05,53.900000000000006,0)" xlink:href="#bH"/></g><g id="ag"><use transform="matrix(0.05,0,0,0.05,0,0)" xlink:href="#bH"/><use transform="matrix(0.05,0,0,0.05,10,0)" xlink:href="#bD"/></g><g id="ah"><use transform="matrix(0.05,0,0,0.05,0,0)" xlink:href="#bS"/><use transform="matrix(0.05,0,0,0.05,3.95,0)" xlink:href="#bB"/><use transform="matrix(0.05,0,0,0.05,13.949999999999998,0)" xlink:href="#ce"/><use transform="matrix(0.05,0,0,0.05,18.95,0)" xlink:href="#bA"/><use transform="matrix(0.05,0,0,0.05,28.950000000000003,0)" xlink:href="#bG"/><use transform="matrix(0.05,0,0,0.05,34.9,0)" xlink:href="#cp"/><use transform="matrix(0.05,0,0,0.05,49.85,0)" xlink:href="#bH"/><use transform="matrix(0.05,0,0,0.05,59.85,0)" xlink:href="#cg"/><use transform="matrix(0.05,0,0,0.05,68.85,0)" xlink:href="#ch"/><use transform="matrix(0.05,0,0,0.05,78.85,0)" xlink:href="#bF"/><use transform="matrix(0.05,0,0,0.05,88.85,0)" xlink:href="#bD"/></g><use transform="matrix(0.05,0,0,0.05,0,0)" xlink:href="#bF" id="ai"/><path fill="#fff" d="M108 0H70L1-190h34L89-25l56-165h34" id="cC"/><g id="aj"><use transform="matrix(0.05,0,0,0.05,0,0)" xlink:href="#bF"/><use transform="matrix(0.05,0,0,0.05,10,0)" xlink:href="#bB"/><use transform="matrix(0.05,0,0,0.05,20,0)" xlink:href="#cC"/><use transform="matrix(0.05,0,0,0.05,29,0)" xlink:href="#bS"/><use transform="matrix(0.05,0,0,0.05,32.95,0)" xlink:href="#bH"/></g><g id="ak"><use transform="matrix(0.05,0,0,0.05,0,0)" xlink:href="#cb"/><use transform="matrix(0.05,0,0,0.05,10,0)" xlink:href="#bH"/><use transform="matrix(0.05,0,0,0.05,20,0)" xlink:href="#bG"/><use transform="matrix(0.05,0,0,0.05,25.950000000000003,0)" xlink:href="#bH"/></g><use transform="matrix(0.05,0,0,0.05,0,0)" xlink:href="#bA" id="al"/><path fill="#fff" d="M143 0L79-87 56-68V0H24v-261h32v163l83-92h37l-77 82L181 0h-38" id="cD"/><g id="am"><use transform="matrix(0.05,0,0,0.05,0,0)" xlink:href="#ca"/><use transform="matrix(0.05,0,0,0.05,16.599999999999998,0)" xlink:href="#bF"/><use transform="matrix(0.05,0,0,0.05,26.599999999999994,0)" xlink:href="#cA"/><use transform="matrix(0.05,0,0,0.05,36.599999999999994,0)" xlink:href="#bR"/><use transform="matrix(0.05,0,0,0.05,46.599999999999994,0)" xlink:href="#bA"/><use transform="matrix(0.05,0,0,0.05,56.599999999999994,0)" xlink:href="#bA"/><use transform="matrix(0.05,0,0,0.05,66.6,0)" xlink:href="#cD"/></g><g id="an"><use transform="matrix(0.05,0,0,0.05,0,0)" xlink:href="#bI"/><use transform="matrix(0.05,0,0,0.05,3.95,0)" xlink:href="#bF"/><use transform="matrix(0.05,0,0,0.05,13.949999999999998,0)" xlink:href="#bH"/><use transform="matrix(0.05,0,0,0.05,23.95,0)" xlink:href="#bE"/><use transform="matrix(0.05,0,0,0.05,33.95,0)" xlink:href="#bD"/></g><path fill="#fff" d="M63-220v92h138v28H63V0H30v-248h175v28H63" id="cE"/><g id="ao"><use transform="matrix(0.05,0,0,0.05,0,0)" xlink:href="#cE"/><use transform="matrix(0.05,0,0,0.05,10.950000000000001,0)" xlink:href="#bG"/><use transform="matrix(0.05,0,0,0.05,16.900000000000002,0)" xlink:href="#bA"/><use transform="matrix(0.05,0,0,0.05,26.900000000000002,0)" xlink:href="#bB"/><use transform="matrix(0.05,0,0,0.05,36.900000000000006,0)" xlink:href="#bC"/><use transform="matrix(0.05,0,0,0.05,41.900000000000006,0)" xlink:href="#bF"/><use transform="matrix(0.05,0,0,0.05,51.900000000000006,0)" xlink:href="#bB"/><use transform="matrix(0.05,0,0,0.05,61.900000000000006,0)" xlink:href="#bE"/></g><path fill="#fff" d="M160-131c35 5 61 23 61 61C221 17 115-2 30 0v-248c76 3 177-17 177 60 0 33-19 50-47 57zm-97-11c50-1 110 9 110-42 0-47-63-36-110-37v79zm0 115c55-2 124 14 124-45 0-56-70-42-124-44v89" id="cF"/><g id="ap"><use transform="matrix(0.05,0,0,0.05,0,0)" xlink:href="#cF"/><use transform="matrix(0.05,0,0,0.05,12,0)" xlink:href="#bH"/><use transform="matrix(0.05,0,0,0.05,22,0)" xlink:href="#cf"/><use transform="matrix(0.05,0,0,0.05,31,0)" xlink:href="#cD"/><use transform="matrix(0.05,0,0,0.05,40,0)" xlink:href="#bF"/><use transform="matrix(0.05,0,0,0.05,50,0)" xlink:href="#bB"/><use transform="matrix(0.05,0,0,0.05,60,0)" xlink:href="#bE"/></g><path fill="#fff" d="M87 75C49 33 22-17 22-94c0-76 28-126 65-167h31c-38 41-64 92-64 168S80 34 118 75H87" id="cG"/><path fill="#fff" d="M134-131c28 9 52 24 51 62-1 50-34 73-85 73S17-19 16-69c0-36 21-54 49-61-75-25-45-126 34-121 46 3 78 18 79 63 0 33-17 51-44 57zm-34-11c31 1 46-15 46-44 0-28-17-43-47-42-29 0-46 13-45 42 1 28 16 44 46 44zm1 122c35 0 51-18 51-52 0-30-18-46-53-46-33 0-51 17-51 47 0 34 19 51 53 51" id="cH"/><path fill="#fff" d="M33-261c38 41 65 92 65 168S71 34 33 75H2C39 34 66-17 66-93S39-220 2-261h31" id="cI"/><g id="aq"><use transform="matrix(0.05,0,0,0.05,0,0)" xlink:href="#cG"/><use transform="matrix(0.05,0,0,0.05,5.95,0)" xlink:href="#bL"/><use transform="matrix(0.05,0,0,0.05,18.900000000000002,0)" xlink:href="#cH"/><use transform="matrix(0.05,0,0,0.05,28.900000000000002,0)" xlink:href="#bL"/><use transform="matrix(0.05,0,0,0.05,41.85,0)" xlink:href="#cI"/></g><g id="ar"><use transform="matrix(0.05,0,0,0.05,0,0)" xlink:href="#bO"/><use transform="matrix(0.05,0,0,0.05,12,0)" xlink:href="#bD"/><use transform="matrix(0.05,0,0,0.05,21,0)" xlink:href="#bD"/><use transform="matrix(0.05,0,0,0.05,30,0)" xlink:href="#bH"/></g><g id="as"><use transform="matrix(0.05,0,0,0.05,0,0)" xlink:href="#cp"/><use transform="matrix(0.05,0,0,0.05,14.950000000000001,0)" xlink:href="#bF"/><use transform="matrix(0.05,0,0,0.05,24.950000000000003,0)" xlink:href="#bD"/><use transform="matrix(0.05,0,0,0.05,33.95,0)" xlink:href="#bB"/><use transform="matrix(0.05,0,0,0.05,43.95,0)" xlink:href="#bH"/><use transform="matrix(0.05,0,0,0.05,53.95,0)" xlink:href="#cm"/><use transform="matrix(0.05,0,0,0.05,63.95,0)" xlink:href="#bF"/><use transform="matrix(0.05,0,0,0.05,73.95,0)" xlink:href="#cp"/></g><g id="at"><use transform="matrix(0.05,0,0,0.05,0,0)" xlink:href="#cm"/><use transform="matrix(0.05,0,0,0.05,10,0)" xlink:href="#bF"/><use transform="matrix(0.05,0,0,0.05,20,0)" xlink:href="#bG"/><use transform="matrix(0.05,0,0,0.05,25.950000000000003,0)" xlink:href="#bH"/><use transform="matrix(0.05,0,0,0.05,35.95,0)" xlink:href="#bE"/><use transform="matrix(0.05,0,0,0.05,45.95,0)" xlink:href="#bH"/></g><g id="au"><use transform="matrix(0.05,0,0,0.05,0,0)" xlink:href="#bS"/><use transform="matrix(0.05,0,0,0.05,3.95,0)" xlink:href="#bB"/><use transform="matrix(0.05,0,0,0.05,13.949999999999998,0)" xlink:href="#bD"/><use transform="matrix(0.05,0,0,0.05,22.95,0)" xlink:href="#bF"/><use transform="matrix(0.05,0,0,0.05,32.95,0)" xlink:href="#bG"/><use transform="matrix(0.05,0,0,0.05,38.900000000000006,0)" xlink:href="#bS"/><use transform="matrix(0.05,0,0,0.05,42.85000000000001,0)" xlink:href="#bE"/><use transform="matrix(0.05,0,0,0.05,52.85,0)" xlink:href="#bH"/></g><g id="av"><use transform="matrix(0.05,0,0,0.05,0,0)" xlink:href="#bF"/><use transform="matrix(0.05,0,0,0.05,10,0)" xlink:href="#cp"/></g><g id="aw"><use transform="matrix(0.05,0,0,0.05,0,0)" xlink:href="#cc"/><use transform="matrix(0.05,0,0,0.05,10,0)" xlink:href="#cp"/></g><g id="ax"><use transform="matrix(0.05,0,0,0.05,0,0)" xlink:href="#cA"/><use transform="matrix(0.05,0,0,0.05,10,0)" xlink:href="#bA"/><use transform="matrix(0.05,0,0,0.05,20,0)" xlink:href="#bC"/><use transform="matrix(0.05,0,0,0.05,25,0)" xlink:href="#cq"/><use transform="matrix(0.05,0,0,0.05,35,0)" xlink:href="#bA"/></g><g id="ay"><use transform="matrix(0.05,0,0,0.05,0,0)" xlink:href="#cf"/><use transform="matrix(0.05,0,0,0.05,9,0)" xlink:href="#bR"/><use transform="matrix(0.05,0,0,0.05,19,0)" xlink:href="#bH"/><use transform="matrix(0.05,0,0,0.05,29,0)" xlink:href="#bC"/></g><use transform="matrix(0.05,0,0,0.05,0,0)" xlink:href="#bA" id="az"/><g id="aA"><use transform="matrix(0.05,0,0,0.05,0,0)" xlink:href="#cc"/><use transform="matrix(0.05,0,0,0.05,10,0)" xlink:href="#bD"/><use transform="matrix(0.05,0,0,0.05,19,0)" xlink:href="#cc"/><use transform="matrix(0.05,0,0,0.05,29,0)" xlink:href="#cu"/><use transform="matrix(0.05,0,0,0.05,39,0)" xlink:href="#bG"/><use transform="matrix(0.05,0,0,0.05,44.95,0)" xlink:href="#bS"/><use transform="matrix(0.05,0,0,0.05,48.900000000000006,0)" xlink:href="#bA"/></g><g id="aB"><use transform="matrix(0.05,0,0,0.05,0,0)" xlink:href="#cf"/><use transform="matrix(0.05,0,0,0.05,9,0)" xlink:href="#bI"/><use transform="matrix(0.05,0,0,0.05,12.949999999999998,0)" xlink:href="#bS"/><use transform="matrix(0.05,0,0,0.05,16.9,0)" xlink:href="#cf"/><use transform="matrix(0.05,0,0,0.05,25.899999999999995,0)" xlink:href="#bH"/><use transform="matrix(0.05,0,0,0.05,35.9,0)" xlink:href="#bG"/></g><g id="aC"><use transform="matrix(0.05,0,0,0.05,0,0)" xlink:href="#bF"/><use transform="matrix(0.05,0,0,0.05,10,0)" xlink:href="#bB"/><use transform="matrix(0.05,0,0,0.05,20,0)" xlink:href="#bC"/><use transform="matrix(0.05,0,0,0.05,25,0)" xlink:href="#bG"/><use transform="matrix(0.05,0,0,0.05,30.950000000000003,0)" xlink:href="#bH"/><use transform="matrix(0.05,0,0,0.05,40.95,0)" xlink:href="#bG"/></g><g id="aD"><use transform="matrix(0.05,0,0,0.05,0,0)" xlink:href="#bY"/><use transform="matrix(0.05,0,0,0.05,12.950000000000001,0)" xlink:href="#bA"/><use transform="matrix(0.05,0,0,0.05,22.950000000000003,0)" xlink:href="#cc"/><use transform="matrix(0.05,0,0,0.05,32.95,0)" xlink:href="#bC"/><use transform="matrix(0.05,0,0,0.05,37.95,0)" xlink:href="#bA"/><use transform="matrix(0.05,0,0,0.05,47.95,0)" xlink:href="#bG"/></g><g id="aE"><use transform="matrix(0.05,0,0,0.05,0,0)" xlink:href="#cf"/><use transform="matrix(0.05,0,0,0.05,9,0)" xlink:href="#bA"/><use transform="matrix(0.05,0,0,0.05,19,0)" xlink:href="#cp"/></g><use transform="matrix(0.05,0,0,0.05,0,0)" xlink:href="#bH" id="aF"/><g id="aG"><use transform="matrix(0.05,0,0,0.05,0,0)" xlink:href="#cp"/><use transform="matrix(0.05,0,0,0.05,14.950000000000001,0)" xlink:href="#bF"/><use transform="matrix(0.05,0,0,0.05,24.950000000000003,0)" xlink:href="#bB"/><use transform="matrix(0.05,0,0,0.05,34.95,0)" xlink:href="#bD"/><use transform="matrix(0.05,0,0,0.05,43.95,0)" xlink:href="#bH"/><use transform="matrix(0.05,0,0,0.05,53.95,0)" xlink:href="#cm"/><use transform="matrix(0.05,0,0,0.05,63.95,0)" xlink:href="#bF"/><use transform="matrix(0.05,0,0,0.05,73.95,0)" xlink:href="#cp"/></g><g id="aH"><use transform="matrix(0.05,0,0,0.05,0,0)" xlink:href="#cb"/><use transform="matrix(0.05,0,0,0.05,10,0)" xlink:href="#bG"/><use transform="matrix(0.05,0,0,0.05,15.949999999999998,0)" xlink:href="#bA"/><use transform="matrix(0.05,0,0,0.05,25.950000000000003,0)" xlink:href="#bB"/><use transform="matrix(0.05,0,0,0.05,35.95,0)" xlink:href="#bC"/><use transform="matrix(0.05,0,0,0.05,40.95,0)" xlink:href="#bH"/></g><g id="aI"><use transform="matrix(0.05,0,0,0.05,0,0)" xlink:href="#bO"/><use transform="matrix(0.05,0,0,0.05,12,0)" xlink:href="#bN"/><use transform="matrix(0.05,0,0,0.05,21.6,0)" xlink:href="#bK"/><use transform="matrix(0.05,0,0,0.05,33.6,0)" xlink:href="#bz"/><use transform="matrix(0.05,0,0,0.05,44.25,0)" xlink:href="#bK"/></g><path fill="#fff" d="M27 0v-27h64v-190l-56 39v-29l58-41h29v221h61V0H27" id="cJ"/><g id="aJ"><use transform="matrix(0.05,0,0,0.05,0,0)" xlink:href="#cJ"/><use transform="matrix(0.05,0,0,0.05,10,0)" xlink:href="#ct"/></g><g id="aK"><use transform="matrix(0.05,0,0,0.05,0,0)" xlink:href="#bJ"/><use transform="matrix(0.05,0,0,0.05,12,0)" xlink:href="#bH"/><use transform="matrix(0.05,0,0,0.05,22,0)" xlink:href="#cc"/><use transform="matrix(0.05,0,0,0.05,32,0)" xlink:href="#bE"/><use transform="matrix(0.05,0,0,0.05,42,0)" xlink:href="#bH"/><use transform="matrix(0.05,0,0,0.05,52,0)" xlink:href="#cg"/><use transform="matrix(0.05,0,0,0.05,61,0)" xlink:href="#cq"/><use transform="matrix(0.05,0,0,0.05,71,0)" xlink:href="#bA"/></g><g id="aL"><use transform="matrix(0.05,0,0,0.05,0,0)" xlink:href="#bB"/><use transform="matrix(0.05,0,0,0.05,10,0)" xlink:href="#bA"/><use transform="matrix(0.05,0,0,0.05,20,0)" xlink:href="#bC"/><use transform="matrix(0.05,0,0,0.05,25,0)" xlink:href="#bS"/><use transform="matrix(0.05,0,0,0.05,28.950000000000003,0)" xlink:href="#ce"/><use transform="matrix(0.05,0,0,0.05,33.95,0)" xlink:href="#bS"/><use transform="matrix(0.05,0,0,0.05,37.900000000000006,0)" xlink:href="#cf"/><use transform="matrix(0.05,0,0,0.05,46.900000000000006,0)" xlink:href="#bH"/><use transform="matrix(0.05,0,0,0.05,56.900000000000006,0)" xlink:href="#cg"/><use transform="matrix(0.05,0,0,0.05,65.9,0)" xlink:href="#cq"/><use transform="matrix(0.05,0,0,0.05,75.9,0)" xlink:href="#bA"/></g><path fill="#fff" d="M101-251c82-7 93 87 43 132L82-64C71-53 59-42 53-27h129V0H18c2-99 128-94 128-182 0-28-16-43-45-43s-46 15-49 41l-32-3c6-41 34-60 81-64" id="cK"/><g id="aM"><use transform="matrix(0.05,0,0,0.05,0,0)" xlink:href="#cK"/><use transform="matrix(0.05,0,0,0.05,10,0)" xlink:href="#ct"/></g><path fill="#fff" d="M96-269c9-18 26-28 38-43h37v5l-55 38H96zM205 0l-28-72H64L36 0H1l101-248h38L239 0h-34zm-38-99l-47-123c-12 45-31 82-46 123h93" id="cL"/><g id="aN"><use transform="matrix(0.05,0,0,0.05,0,0)" xlink:href="#cL"/><use transform="matrix(0.05,0,0,0.05,12,0)" xlink:href="#cc"/><use transform="matrix(0.05,0,0,0.05,22,0)" xlink:href="#bE"/><use transform="matrix(0.05,0,0,0.05,32,0)" xlink:href="#bS"/><use transform="matrix(0.05,0,0,0.05,35.95,0)" xlink:href="#bA"/></g><path fill="#fff" d="M34 0v-190h32V0H34zM24-211c8-23 27-35 38-54h36v5l-58 49H24" id="cM"/><g id="aO"><use transform="matrix(0.05,0,0,0.05,0,0)" xlink:href="#cC"/><use transform="matrix(0.05,0,0,0.05,9,0)" xlink:href="#cM"/><use transform="matrix(0.05,0,0,0.05,14,0)" xlink:href="#bE"/><use transform="matrix(0.05,0,0,0.05,24,0)" xlink:href="#bF"/><use transform="matrix(0.05,0,0,0.05,34,0)" xlink:href="#bA"/></g><path fill="#fff" d="M126-127c33 6 58 20 58 59 0 88-139 92-164 29-3-8-5-16-6-25l32-3c6 27 21 44 54 44 32 0 52-15 52-46 0-38-36-46-79-43v-28c39 1 72-4 72-42 0-27-17-43-46-43-28 0-47 15-49 41l-32-3c6-42 35-63 81-64 48-1 79 21 79 65 0 36-21 52-52 59" id="cN"/><g id="aP"><use transform="matrix(0.05,0,0,0.05,0,0)" xlink:href="#cN"/><use transform="matrix(0.05,0,0,0.05,10,0)" xlink:href="#ct"/></g><g id="aQ"><use transform="matrix(0.05,0,0,0.05,0,0)" xlink:href="#bV"/><use transform="matrix(0.05,0,0,0.05,12.950000000000001,0)" xlink:href="#bF"/><use transform="matrix(0.05,0,0,0.05,22.950000000000003,0)" xlink:href="#bD"/><use transform="matrix(0.05,0,0,0.05,31.950000000000003,0)" xlink:href="#bF"/><use transform="matrix(0.05,0,0,0.05,41.95,0)" xlink:href="#bG"/><use transform="matrix(0.05,0,0,0.05,47.900000000000006,0)" xlink:href="#cC"/><use transform="matrix(0.05,0,0,0.05,56.900000000000006,0)" xlink:href="#bH"/></g><g id="aR"><use transform="matrix(0.05,0,0,0.05,0,0)" xlink:href="#bR"/><use transform="matrix(0.05,0,0,0.05,10,0)" xlink:href="#bA"/><use transform="matrix(0.05,0,0,0.05,20,0)" xlink:href="#bG"/><use transform="matrix(0.05,0,0,0.05,25.950000000000003,0)" xlink:href="#cu"/><use transform="matrix(0.05,0,0,0.05,35.95,0)" xlink:href="#bG"/><use transform="matrix(0.05,0,0,0.05,41.900000000000006,0)" xlink:href="#bS"/><use transform="matrix(0.05,0,0,0.05,45.85000000000001,0)" xlink:href="#bA"/></g><path fill="#fff" d="M155-56V0h-30v-56H8v-25l114-167h33v167h35v25h-35zm-30-156c-27 46-58 90-88 131h88v-131" id="cO"/><g id="aS"><use transform="matrix(0.05,0,0,0.05,0,0)" xlink:href="#cO"/><use transform="matrix(0.05,0,0,0.05,10,0)" xlink:href="#ct"/></g><g id="aT"><use transform="matrix(0.05,0,0,0.05,0,0)" xlink:href="#bK"/><use transform="matrix(0.05,0,0,0.05,12,0)" xlink:href="#cm"/><use transform="matrix(0.05,0,0,0.05,22,0)" xlink:href="#cc"/><use transform="matrix(0.05,0,0,0.05,32,0)" xlink:href="#bH"/><use transform="matrix(0.05,0,0,0.05,42,0)" xlink:href="#bG"/><use transform="matrix(0.05,0,0,0.05,47.95,0)" xlink:href="#bE"/><use transform="matrix(0.05,0,0,0.05,57.95,0)" xlink:href="#bH"/></g><path fill="#fff" d="M54-142c48-35 137-8 131 61C196 18 31 33 14-55l32-4c7 23 22 37 52 37 35-1 51-22 54-58 4-55-73-65-99-34H22l8-134h141v27H59" id="cP"/><g id="aU"><use transform="matrix(0.05,0,0,0.05,0,0)" xlink:href="#cP"/><use transform="matrix(0.05,0,0,0.05,10,0)" xlink:href="#ct"/></g><g id="aV"><use transform="matrix(0.05,0,0,0.05,0,0)" xlink:href="#bY"/><use transform="matrix(0.05,0,0,0.05,12.950000000000001,0)" xlink:href="#bA"/><use transform="matrix(0.05,0,0,0.05,22.950000000000003,0)" xlink:href="#cc"/><use transform="matrix(0.05,0,0,0.05,32.95,0)" xlink:href="#bC"/><use transform="matrix(0.05,0,0,0.05,37.95,0)" xlink:href="#bA"/><use transform="matrix(0.05,0,0,0.05,47.95,0)" xlink:href="#bG"/></g><g id="aW"><use transform="matrix(0.05,0,0,0.05,0,0)" xlink:href="#bH"/><use transform="matrix(0.05,0,0,0.05,10,0)" xlink:href="#bD"/><use transform="matrix(0.05,0,0,0.05,19,0)" xlink:href="#bD"/><use transform="matrix(0.05,0,0,0.05,28,0)" xlink:href="#cc"/><use transform="matrix(0.05,0,0,0.05,38,0)" xlink:href="#cp"/><use transform="matrix(0.05,0,0,0.05,52.95,0)" xlink:href="#bF"/></g><path fill="#fff" d="M0 4l72-265h28L28 4H0" id="cQ"/><use transform="matrix(0.05,0,0,0.05,0,0)" xlink:href="#cQ" id="aX"/><g id="aY"><use transform="matrix(0.05,0,0,0.05,0,0)" xlink:href="#bO"/><use transform="matrix(0.05,0,0,0.05,12,0)" xlink:href="#bB"/><use transform="matrix(0.05,0,0,0.05,22,0)" xlink:href="#cC"/><use transform="matrix(0.05,0,0,0.05,31,0)" xlink:href="#bS"/><use transform="matrix(0.05,0,0,0.05,34.95,0)" xlink:href="#bA"/></g><g id="aZ"><use transform="matrix(0.05,0,0,0.05,0,0)" xlink:href="#bE"/><use transform="matrix(0.05,0,0,0.05,10,0)" xlink:href="#bA"/></g><path fill="#fff" d="M206 0h-36l-40-164L89 0H53L-1-190h32L70-26l43-164h34l41 164 42-164h31" id="cR"/><g id="ba"><use transform="matrix(0.05,0,0,0.05,0,0)" xlink:href="#cE"/><use transform="matrix(0.05,0,0,0.05,10.950000000000001,0)" xlink:href="#bI"/><use transform="matrix(0.05,0,0,0.05,14.9,0)" xlink:href="#bA"/><use transform="matrix(0.05,0,0,0.05,24.900000000000002,0)" xlink:href="#cR"/></g><g id="bb"><use transform="matrix(0.05,0,0,0.05,0,0)" xlink:href="#bE"/><use transform="matrix(0.05,0,0,0.05,10,0)" xlink:href="#bF"/></g><g id="bc"><use transform="matrix(0.05,0,0,0.05,0,0)" xlink:href="#cf"/><use transform="matrix(0.05,0,0,0.05,9,0)" xlink:href="#bA"/><use transform="matrix(0.05,0,0,0.05,19,0)" xlink:href="#bB"/><use transform="matrix(0.05,0,0,0.05,29,0)" xlink:href="#ce"/><use transform="matrix(0.05,0,0,0.05,34,0)" xlink:href="#bS"/><use transform="matrix(0.05,0,0,0.05,37.95,0)" xlink:href="#bG"/><use transform="matrix(0.05,0,0,0.05,43.900000000000006,0)" xlink:href="#cp"/><use transform="matrix(0.05,0,0,0.05,58.85,0)" xlink:href="#bH"/><use transform="matrix(0.05,0,0,0.05,68.85000000000001,0)" xlink:href="#cg"/><use transform="matrix(0.05,0,0,0.05,77.85000000000001,0)" xlink:href="#cq"/><use transform="matrix(0.05,0,0,0.05,87.85000000000001,0)" xlink:href="#bA"/></g><g id="bd"><use transform="matrix(0.05,0,0,0.05,0,0)" xlink:href="#bK"/><use transform="matrix(0.05,0,0,0.05,12,0)" xlink:href="#cf"/><use transform="matrix(0.05,0,0,0.05,21,0)" xlink:href="#bS"/><use transform="matrix(0.05,0,0,0.05,24.95,0)" xlink:href="#bA"/><use transform="matrix(0.05,0,0,0.05,34.95,0)" xlink:href="#bB"/><use transform="matrix(0.05,0,0,0.05,44.95,0)" xlink:href="#bH"/></g><g id="be"><use transform="matrix(0.05,0,0,0.05,0,0)" xlink:href="#bQ"/><use transform="matrix(0.05,0,0,0.05,12.950000000000001,0)" xlink:href="#bF"/><use transform="matrix(0.05,0,0,0.05,22.950000000000003,0)" xlink:href="#bB"/><use transform="matrix(0.05,0,0,0.05,32.95,0)" xlink:href="#bC"/><use transform="matrix(0.05,0,0,0.05,37.95,0)" xlink:href="#bG"/><use transform="matrix(0.05,0,0,0.05,43.900000000000006,0)" xlink:href="#bH"/><use transform="matrix(0.05,0,0,0.05,53.900000000000006,0)" xlink:href="#bI"/></g><g id="bf"><use transform="matrix(0.05,0,0,0.05,0,0)" xlink:href="#bE"/><use transform="matrix(0.05,0,0,0.05,10,0)" xlink:href="#bS"/><use transform="matrix(0.05,0,0,0.05,13.949999999999998,0)" xlink:href="#bD"/><use transform="matrix(0.05,0,0,0.05,22.95,0)" xlink:href="#cb"/><use transform="matrix(0.05,0,0,0.05,32.95,0)" xlink:href="#bH"/><use transform="matrix(0.05,0,0,0.05,42.95,0)" xlink:href="#bG"/><use transform="matrix(0.05,0,0,0.05,48.900000000000006,0)" xlink:href="#bH"/><use transform="matrix(0.05,0,0,0.05,58.900000000000006,0)" xlink:href="#bG"/></g><g id="bg"><use transform="matrix(0.05,0,0,0.05,0,0)" xlink:href="#bB"/><use transform="matrix(0.05,0,0,0.05,10,0)" xlink:href="#bA"/><use transform="matrix(0.05,0,0,0.05,20,0)" xlink:href="#bC"/><use transform="matrix(0.05,0,0,0.05,25,0)" xlink:href="#bS"/><use transform="matrix(0.05,0,0,0.05,28.950000000000003,0)" xlink:href="#ce"/><use transform="matrix(0.05,0,0,0.05,33.95,0)" xlink:href="#bS"/><use transform="matrix(0.05,0,0,0.05,37.900000000000006,0)" xlink:href="#cf"/><use transform="matrix(0.05,0,0,0.05,46.900000000000006,0)" xlink:href="#bH"/><use transform="matrix(0.05,0,0,0.05,56.900000000000006,0)" xlink:href="#cg"/><use transform="matrix(0.05,0,0,0.05,65.9,0)" xlink:href="#ch"/><use transform="matrix(0.05,0,0,0.05,75.9,0)" xlink:href="#bF"/><use transform="matrix(0.05,0,0,0.05,85.9,0)" xlink:href="#bD"/></g><g id="bh"><use transform="matrix(0.05,0,0,0.05,0,0)" xlink:href="#bO"/><use transform="matrix(0.05,0,0,0.05,12,0)" xlink:href="#cp"/></g><g id="bi"><use transform="matrix(0.05,0,0,0.05,0,0)" xlink:href="#bG"/><use transform="matrix(0.05,0,0,0.05,5.95,0)" xlink:href="#bF"/><use transform="matrix(0.05,0,0,0.05,15.949999999999998,0)" xlink:href="#bD"/><use transform="matrix(0.05,0,0,0.05,24.95,0)" xlink:href="#cc"/><use transform="matrix(0.05,0,0,0.05,34.95,0)" xlink:href="#cp"/><use transform="matrix(0.05,0,0,0.05,49.900000000000006,0)" xlink:href="#bA"/><use transform="matrix(0.05,0,0,0.05,59.900000000000006,0)" xlink:href="#cv"/></g><g id="bj"><use transform="matrix(0.05,0,0,0.05,0,0)" xlink:href="#bH"/><use transform="matrix(0.05,0,0,0.05,10,0)" xlink:href="#bD"/></g><g id="bk"><use transform="matrix(0.05,0,0,0.05,0,0)" xlink:href="#bS"/><use transform="matrix(0.05,0,0,0.05,3.95,0)" xlink:href="#bB"/><use transform="matrix(0.05,0,0,0.05,13.949999999999998,0)" xlink:href="#ce"/><use transform="matrix(0.05,0,0,0.05,18.95,0)" xlink:href="#bA"/><use transform="matrix(0.05,0,0,0.05,28.950000000000003,0)" xlink:href="#bG"/><use transform="matrix(0.05,0,0,0.05,34.9,0)" xlink:href="#cp"/><use transform="matrix(0.05,0,0,0.05,49.85,0)" xlink:href="#bH"/><use transform="matrix(0.05,0,0,0.05,59.85,0)" xlink:href="#cg"/><use transform="matrix(0.05,0,0,0.05,68.85,0)" xlink:href="#ch"/><use transform="matrix(0.05,0,0,0.05,78.85,0)" xlink:href="#bF"/></g><g id="bl"><use transform="matrix(0.05,0,0,0.05,0,0)" xlink:href="#bD"/><use transform="matrix(0.05,0,0,0.05,9,0)" xlink:href="#cq"/><use transform="matrix(0.05,0,0,0.05,19,0)" xlink:href="#bA"/></g><g id="bm"><use transform="matrix(0.05,0,0,0.05,0,0)" xlink:href="#cm"/><use transform="matrix(0.05,0,0,0.05,10,0)" xlink:href="#bG"/><use transform="matrix(0.05,0,0,0.05,15.949999999999998,0)" xlink:href="#bH"/><use transform="matrix(0.05,0,0,0.05,25.950000000000003,0)" xlink:href="#cC"/><use transform="matrix(0.05,0,0,0.05,34.95,0)" xlink:href="#bH"/><use transform="matrix(0.05,0,0,0.05,44.95,0)" xlink:href="#bE"/><use transform="matrix(0.05,0,0,0.05,54.95,0)" xlink:href="#bH"/><use transform="matrix(0.05,0,0,0.05,64.95,0)" xlink:href="#bD"/></g><g id="bn"><use transform="matrix(0.05,0,0,0.05,0,0)" xlink:href="#cA"/><use transform="matrix(0.05,0,0,0.05,10,0)" xlink:href="#bH"/><use transform="matrix(0.05,0,0,0.05,20,0)" xlink:href="#bB"/><use transform="matrix(0.05,0,0,0.05,30,0)" xlink:href="#cf"/><use transform="matrix(0.05,0,0,0.05,39,0)" xlink:href="#bA"/></g><g id="bo"><use transform="matrix(0.05,0,0,0.05,0,0)" xlink:href="#bE"/><use transform="matrix(0.05,0,0,0.05,10,0)" xlink:href="#bH"/><use transform="matrix(0.05,0,0,0.05,20,0)" xlink:href="#bE"/><use transform="matrix(0.05,0,0,0.05,30,0)" xlink:href="#bA"/><use transform="matrix(0.05,0,0,0.05,40,0)" xlink:href="#bD"/><use transform="matrix(0.05,0,0,0.05,49,0)" xlink:href="#cv"/></g><g id="bp"><use transform="matrix(0.05,0,0,0.05,0,0)" xlink:href="#bS"/><use transform="matrix(0.05,0,0,0.05,3.95,0)" xlink:href="#bB"/><use transform="matrix(0.05,0,0,0.05,13.949999999999998,0)" xlink:href="#bE"/><use transform="matrix(0.05,0,0,0.05,23.95,0)" xlink:href="#bS"/><use transform="matrix(0.05,0,0,0.05,27.899999999999995,0)" xlink:href="#cf"/><use transform="matrix(0.05,0,0,0.05,36.9,0)" xlink:href="#bH"/><use transform="matrix(0.05,0,0,0.05,46.9,0)" xlink:href="#bB"/><use transform="matrix(0.05,0,0,0.05,56.900000000000006,0)" xlink:href="#bE"/><use transform="matrix(0.05,0,0,0.05,66.9,0)" xlink:href="#bA"/></g><g id="bq"><use transform="matrix(0.05,0,0,0.05,0,0)" xlink:href="#bI"/><use transform="matrix(0.05,0,0,0.05,3.95,0)" xlink:href="#bF"/><use transform="matrix(0.05,0,0,0.05,13.949999999999998,0)" xlink:href="#bH"/><use transform="matrix(0.05,0,0,0.05,23.95,0)" xlink:href="#bE"/></g><g id="br"><use transform="matrix(0.05,0,0,0.05,0,0)" xlink:href="#bM"/><use transform="matrix(0.05,0,0,0.05,5,0)" xlink:href="#bK"/></g><g id="bs"><use transform="matrix(0.05,0,0,0.05,0,0)" xlink:href="#bK"/><use transform="matrix(0.05,0,0,0.05,12,0)" xlink:href="#bB"/><use transform="matrix(0.05,0,0,0.05,22,0)" xlink:href="#cu"/><use transform="matrix(0.05,0,0,0.05,32,0)" xlink:href="#bI"/><use transform="matrix(0.05,0,0,0.05,35.95,0)" xlink:href="#bS"/><use transform="matrix(0.05,0,0,0.05,39.900000000000006,0)" xlink:href="#bD"/><use transform="matrix(0.05,0,0,0.05,48.900000000000006,0)" xlink:href="#bF"/></g><g id="bt"><use transform="matrix(0.05,0,0,0.05,0,0)" xlink:href="#bV"/><use transform="matrix(0.05,0,0,0.05,12.950000000000001,0)" xlink:href="#bF"/><use transform="matrix(0.05,0,0,0.05,22.950000000000003,0)" xlink:href="#cf"/><use transform="matrix(0.05,0,0,0.05,31.950000000000003,0)" xlink:href="#bF"/><use transform="matrix(0.05,0,0,0.05,41.95,0)" xlink:href="#cA"/><use transform="matrix(0.05,0,0,0.05,51.95,0)" xlink:href="#bF"/></g><g id="bu"><use transform="matrix(0.05,0,0,0.05,0,0)" xlink:href="#bQ"/><use transform="matrix(0.05,0,0,0.05,12.950000000000001,0)" xlink:href="#bG"/><use transform="matrix(0.05,0,0,0.05,18.900000000000002,0)" xlink:href="#bS"/><use transform="matrix(0.05,0,0,0.05,22.85,0)" xlink:href="#bH"/></g><g id="bv"><use transform="matrix(0.05,0,0,0.05,0,0)" xlink:href="#cc"/><use transform="matrix(0.05,0,0,0.05,10,0)" xlink:href="#cp"/><use transform="matrix(0.05,0,0,0.05,24.950000000000003,0)" xlink:href="#bH"/></g><g id="bw"><use transform="matrix(0.05,0,0,0.05,0,0)" xlink:href="#bH"/><use transform="matrix(0.05,0,0,0.05,10,0)" xlink:href="#bB"/><use transform="matrix(0.05,0,0,0.05,20,0)" xlink:href="#cu"/><use transform="matrix(0.05,0,0,0.05,30,0)" xlink:href="#bI"/><use transform="matrix(0.05,0,0,0.05,33.95,0)" xlink:href="#bS"/><use transform="matrix(0.05,0,0,0.05,37.900000000000006,0)" xlink:href="#bD"/><use transform="matrix(0.05,0,0,0.05,46.900000000000006,0)" xlink:href="#bF"/></g><path fill="#fff" d="M179-190L93 31C79 59 56 82 12 73V49c39 6 53-20 64-50L1-190h34L92-34l54-156h33" id="cS"/><g id="bx"><use transform="matrix(0.05,0,0,0.05,0,0)" xlink:href="#bK"/><use transform="matrix(0.05,0,0,0.05,12,0)" xlink:href="#bB"/><use transform="matrix(0.05,0,0,0.05,22,0)" xlink:href="#bH"/><use transform="matrix(0.05,0,0,0.05,32,0)" xlink:href="#bI"/><use transform="matrix(0.05,0,0,0.05,35.95,0)" xlink:href="#cS"/><use transform="matrix(0.05,0,0,0.05,44.95,0)" xlink:href="#bD"/><use transform="matrix(0.05,0,0,0.05,53.95,0)" xlink:href="#bS"/><use transform="matrix(0.05,0,0,0.05,57.900000000000006,0)" xlink:href="#bD"/></g><g id="by"><use transform="matrix(0.05,0,0,0.05,0,0)" xlink:href="#cA"/><use transform="matrix(0.05,0,0,0.05,10,0)" xlink:href="#bG"/><use transform="matrix(0.05,0,0,0.05,15.949999999999998,0)" xlink:href="#bF"/><use transform="matrix(0.05,0,0,0.05,25.950000000000003,0)" xlink:href="#cC"/><use transform="matrix(0.05,0,0,0.05,34.95,0)" xlink:href="#bF"/></g></defs></g></svg>